SplineFontDB: 3.2
FontName: osifont-italic
FullName: osifont-italic
FamilyName: osifont
Weight: Book
Copyright: Created by\nZefram Cochrane,\nhikikomori82@gmail.com,\nwith FontForge 2.0 (http://fontforge.sf.net)\n\nProject hosted on:\nhttp://github.com/hikikomori82/osifont/\n\nDistributed under GNU LGPL version 3 with GPL font exception:\n\nAs a special exception, if you create a document which uses this font, and embed this font or unaltered portions of this font into the document, this font does not by itself cause the resulting document to be covered by the GNU General Public License. This exception does not however invalidate any other reasons why the document might be covered by the GNU General Public License. If you modify this font, you may extend this exception to your version of the font, but you are not obligated to do so. If you do not wish to do so, delete this exception statement from your version.
Version: 0.1.20221020
ItalicAngle: 0
UnderlinePosition: -533
UnderlineWidth: 327
Ascent: 1638
Descent: 410
InvalidEm: 0
sfntRevision: 0x00001999
LayerCount: 2
Layer: 0 1 "Back" 1
Layer: 1 1 "Fore" 0
XUID: [1021 152 -1143971804 645986]
StyleMap: 0x0040
FSType: 0
OS2Version: 4
OS2_WeightWidthSlopeOnly: 0
OS2_UseTypoMetrics: 1
CreationTime: 1212424095
ModificationTime: 1666901577
PfmFamily: 17
TTFWeight: 400
TTFWidth: 5
LineGap: 0
VLineGap: 0
Panose: 2 0 6 3 0 0 0 0 0 0
OS2TypoAscent: 1542
OS2TypoAOffset: 0
OS2TypoDescent: -693
OS2TypoDOffset: 0
OS2TypoLinegap: 0
OS2WinAscent: 2697
OS2WinAOffset: 0
OS2WinDescent: 709
OS2WinDOffset: 0
HheadAscent: 2697
HheadAOffset: 0
HheadDescent: -707
HheadDOffset: 0
OS2SubXSize: 1330
OS2SubYSize: 1434
OS2SubXOff: 0
OS2SubYOff: 287
OS2SupXSize: 1330
OS2SupYSize: 1434
OS2SupXOff: 0
OS2SupYOff: 983
OS2StrikeYSize: 102
OS2StrikeYPos: 531
OS2CapHeight: 1515
OS2XHeight: 1059
OS2Vendor: 'PfEd'
OS2CodePages: 00000001.00000000
OS2UnicodeRanges: 00000001.00000000.00000000.00000000

StartChar: .notdef
Encoding: 65536 -1 0
Width: 828
Flags: W
LayerCount: 2
Fore
SplineSet
73 0 m 1,0,-1
 451 1638 l 1,1,-1
 1058 1638 l 1,2,-1
 680 0 l 1,3,-1
 73 0 l 1,0,-1
168 80 m 1,4,-1
 624 80 l 1,5,-1
 965 1555 l 1,6,-1
 509 1555 l 1,7,-1
 168 80 l 1,4,-1
EndSplineSet
Validated: 1
EndChar

StartChar: exclam
Encoding: 33 33 4
Width: 412
GlyphClass: 2
Flags: W
LayerCount: 2
Fore
SplineSet
163.5 117.5 m 128,-1,1
 189 228 189 228 255 228 c 0,2,3
 328 228 328 228 302 113 c 0,4,5
 278 7 278 7 208 7 c 128,-1,0
 138 7 138 7 163.5 117.5 c 128,-1,1
313 463 m 128,-1,7
 243 463 243 463 265 558 c 2,8,-1
 466 1427 l 2,9,10
 487 1519 487 1519 557 1519 c 128,-1,11
 627 1519 627 1519 605 1426 c 2,12,-1
 405 558 l 2,13,6
 383 463 383 463 313 463 c 128,-1,7
EndSplineSet
Validated: 33
EndChar

StartChar: quotedbl
Encoding: 34 34 5
Width: 740
GlyphClass: 2
Flags: W
LayerCount: 2
Fore
SplineSet
917 1740 m 2,0,1
 946 1804 946 1804 991 1804 c 0,2,3
 1066 1804 1066 1804 1052 1742 c 0,4,5
 1047 1719 1047 1719 1031 1684 c 2,6,-1
 913 1424 l 2,7,8
 882 1356 882 1356 837 1356 c 0,9,10
 762 1356 762 1356 778 1423 c 0,11,12
 783 1443 783 1443 789 1457 c 2,13,-1
 917 1740 l 2,0,1
563 1740 m 2,14,15
 592 1803 592 1803 642 1803 c 0,16,17
 715 1803 715 1803 699 1734 c 0,18,19
 697 1724 697 1724 685 1700 c 2,20,-1
 555 1420 l 2,21,22
 525 1356 525 1356 477 1356 c 0,23,24
 404 1356 404 1356 419 1421 c 0,25,26
 423 1437 423 1437 432 1457 c 2,27,-1
 563 1740 l 2,14,15
EndSplineSet
Validated: 33
EndChar

StartChar: numbersign
Encoding: 35 35 6
Width: 1164
GlyphClass: 2
Flags: W
LayerCount: 2
Fore
SplineSet
866 607 m 1,0,-1
 937 914 l 1,1,-1
 648 914 l 1,2,-1
 577 607 l 1,3,-1
 866 607 l 1,0,-1
632 1437 m 2,4,5
 650 1515 650 1515 718 1515 c 128,-1,6
 786 1515 786 1515 767 1434 c 2,7,-1
 681 1063 l 1,8,-1
 972 1063 l 1,9,-1
 1059 1440 l 2,10,11
 1077 1518 1077 1518 1149 1518 c 0,12,13
 1214 1518 1214 1518 1195 1436 c 2,14,-1
 1109 1062 l 1,15,-1
 1249 1062 l 2,16,17
 1318 1062 1318 1062 1301 989 c 0,18,19
 1284 914 1284 914 1214 914 c 2,20,-1
 1075 914 l 1,21,-1
 1004 605 l 1,22,-1
 1140 605 l 2,23,24
 1212 605 1212 605 1195 534 c 0,25,26
 1178 460 1178 460 1110 460 c 2,27,-1
 968 460 l 1,28,-1
 883 89 l 2,29,30
 864 6 864 6 791 6 c 0,31,32
 728 6 728 6 747 90 c 2,33,-1
 832 460 l 1,34,-1
 544 460 l 1,35,-1
 458 89 l 2,36,37
 438 4 438 4 369 4 c 0,38,39
 301 4 301 4 321 90 c 2,40,-1
 406 460 l 1,41,-1
 273 460 l 2,42,43
 199 460 199 460 216 537 c 0,44,45
 231 604 231 604 307 604 c 2,46,-1
 440 604 l 1,47,-1
 511 914 l 1,48,-1
 380 914 l 2,49,50
 302 914 302 914 320 991 c 0,51,52
 337 1064 337 1064 416 1064 c 2,53,-1
 546 1064 l 1,54,-1
 632 1437 l 2,4,5
EndSplineSet
Validated: 33
EndChar

StartChar: dollar
Encoding: 36 36 7
Width: 883
GlyphClass: 2
Flags: W
LayerCount: 2
Fore
SplineSet
762 462 m 0,0,1
 785 561 785 561 653 628 c 1,2,-1
 576 297 l 1,3,4
 724 297 724 297 762 462 c 0,0,1
576 884 m 1,5,6
 651 1209 l 1,7,8
 505 1209 505 1209 469 1054 c 0,9,10
 447 957 447 957 576 884 c 1,5,6
336 1063 m 0,11,12
 364 1184 364 1184 452 1260 c 0,13,14
 563 1357 563 1357 685 1357 c 1,15,-1
 702 1431 l 2,16,17
 720 1507 720 1507 789 1507 c 0,18,19
 856 1507 856 1507 836 1421 c 2,20,-1
 819 1349 l 1,21,22
 938 1332 938 1332 1034 1284 c 0,23,24
 1082 1260 1082 1260 1071 1210 c 0,25,26
 1058 1152 1058 1152 994 1138 c 0,27,28
 975 1134 975 1134 944 1149 c 0,29,30
 842 1198 842 1198 784 1198 c 1,31,-1
 692 798 l 1,32,33
 748 768 748 768 828 702 c 0,34,35
 934 614 934 614 897 452 c 0,36,37
 869 332 869 332 776 250 c 0,38,39
 665 151 665 151 543 151 c 1,40,-1
 526 81 l 2,41,42
 507 0 507 0 441 0 c 0,43,44
 372 0 372 0 390 80 c 2,45,-1
 409 162 l 1,46,47
 229 190 229 190 177 233 c 0,48,49
 150 255 150 255 160 298 c 0,50,51
 176 369 176 369 243 369 c 0,52,53
 261 369 261 369 287 358 c 0,54,55
 375 321 375 321 443 309 c 1,56,-1
 537 715 l 1,57,58
 401 787 401 787 359 860 c 0,59,60
 309 947 309 947 336 1063 c 0,11,12
EndSplineSet
Validated: 33
EndChar

StartChar: percent
Encoding: 37 37 8
Width: 1450
GlyphClass: 2
Flags: W
LayerCount: 2
Fore
SplineSet
1281 402 m 0,0,1
 1255 456 1255 456 1181 456 c 0,2,3
 1121 456 1121 456 1062 398 c 0,4,5
 1021 358 1021 358 1007 297 c 0,6,7
 992 232 992 232 1026 192 c 0,8,9
 1062 150 1062 150 1113 150 c 0,10,11
 1165 150 1165 150 1234 203 c 0,12,13
 1278 237 1278 237 1293 302 c 0,14,15
 1305 352 1305 352 1281 402 c 0,0,1
1409 499 m 0,16,17
 1457 420 1457 420 1426 289 c 0,18,19
 1399 174 1399 174 1297 88 c 0,20,21
 1192 0 1192 0 1078 0 c 0,22,23
 986 0 986 0 923 65 c 0,24,25
 837 153 837 153 869 291 c 0,26,27
 904 442 904 442 1020 531 c 0,28,29
 1114 603 1114 603 1211 603 c 0,30,31
 1346 603 1346 603 1409 499 c 0,16,17
1568 1477 m 2,32,33
 1604 1510 1604 1510 1637 1510 c 0,34,35
 1706 1510 1706 1510 1688 1432 c 0,36,37
 1683 1412 1683 1412 1648 1378 c 2,38,-1
 224 31 l 2,39,40
 192 0 192 0 157 0 c 0,41,42
 91 0 91 0 108 75 c 0,43,44
 114 103 114 103 146 132 c 2,45,-1
 1568 1477 l 2,32,33
780 1309 m 0,46,47
 754 1363 754 1363 680 1363 c 0,48,49
 620 1363 620 1363 561 1305 c 0,50,51
 520 1265 520 1265 506 1204 c 0,52,53
 491 1139 491 1139 525 1099 c 0,54,55
 561 1057 561 1057 612 1057 c 0,56,57
 664 1057 664 1057 733 1110 c 0,58,59
 777 1144 777 1144 792 1209 c 0,60,61
 804 1259 804 1259 780 1309 c 0,46,47
908 1406 m 0,62,63
 956 1327 956 1327 925 1196 c 0,64,65
 898 1079 898 1079 796 995 c 0,66,67
 692 909 692 909 577 909 c 0,68,69
 485 909 485 909 421 972 c 0,70,71
 335 1057 335 1057 368 1198 c 0,72,73
 403 1349 403 1349 519 1438 c 0,74,75
 613 1510 613 1510 710 1510 c 0,76,77
 845 1510 845 1510 908 1406 c 0,62,63
EndSplineSet
Validated: 33
EndChar

StartChar: ampersand
Encoding: 38 38 9
Width: 1165
GlyphClass: 2
Flags: W
LayerCount: 2
Fore
SplineSet
714 324 m 1,0,1
 633 547 633 547 589 670 c 1,2,-1
 364 415 l 2,3,4
 317 361 317 361 304 305 c 0,5,6
 268 150 268 150 419 150 c 0,7,8
 462 150 462 150 522 192 c 2,9,-1
 714 324 l 1,0,1
655 934 m 1,10,-1
 822 1122 l 2,11,12
 858 1163 858 1163 871 1219 c 0,13,14
 883 1272 883 1272 851 1320 c 0,15,16
 820 1366 820 1366 761 1366 c 0,17,18
 700 1366 700 1366 648 1320 c 0,19,20
 594 1272 594 1272 581 1217 c 0,21,22
 570 1169 570 1169 588 1118 c 2,23,-1
 655 934 l 1,10,-1
790 1515 m 0,24,25
 912 1515 912 1515 981 1416 c 0,26,27
 1036 1338 1036 1338 1009 1224 c 0,28,29
 985 1120 985 1120 936 1064 c 2,30,-1
 705 801 l 1,31,-1
 843 414 l 1,32,-1
 1097 585 l 2,33,34
 1126 604 1126 604 1147 604 c 0,35,36
 1214 604 1214 604 1197 527 c 0,37,38
 1189 494 1189 494 1140 460 c 2,39,-1
 889 286 l 1,40,-1
 950 119 l 2,41,42
 957 97 957 97 951 73 c 0,43,44
 934 0 934 0 867 0 c 0,45,46
 834 0 834 0 821 35 c 2,47,-1
 760 197 l 1,48,-1
 544 54 l 2,49,50
 466 0 466 0 371 0 c 0,51,52
 259 0 259 0 212 67 c 0,53,54
 133 178 133 178 164 318 c 0,55,56
 184 403 184 403 268 493 c 1,57,-1
 542 804 l 1,58,-1
 442 1082 l 2,59,60
 426 1129 426 1129 448 1222 c 0,61,62
 479 1357 479 1357 607 1450 c 0,63,64
 697 1515 697 1515 790 1515 c 0,24,25
EndSplineSet
Validated: 33
EndChar

StartChar: quotesingle
Encoding: 39 39 10
Width: 383
GlyphClass: 2
Flags: W
LayerCount: 2
Fore
SplineSet
561 1745 m 2,0,1
 592 1812 592 1812 641 1812 c 0,2,3
 711 1812 711 1812 696 1747 c 0,4,5
 690 1723 690 1723 679 1699 c 2,6,-1
 558 1436 l 2,7,8
 525 1366 525 1366 473 1366 c 0,9,10
 406 1366 406 1366 422 1434 c 0,11,12
 427 1456 427 1456 446 1497 c 2,13,-1
 561 1745 l 2,0,1
EndSplineSet
Validated: 33
EndChar

StartChar: parenleft
Encoding: 40 40 11
Width: 480
GlyphClass: 2
Flags: W
LayerCount: 2
Fore
SplineSet
633 1618 m 0,0,1
 662 1666 662 1666 713 1666 c 0,2,3
 773 1666 773 1666 757 1594 c 0,4,5
 751 1569 751 1569 726 1526 c 0,6,7
 513 1155 513 1155 429 788 c 0,8,9
 325 339 325 339 371 -9 c 0,10,11
 377 -55 377 -55 370 -85 c 0,12,13
 355 -149 355 -149 281 -149 c 0,14,15
 243 -149 243 -149 235 -89 c 0,16,17
 187 301 187 301 301 791 c 0,18,19
 402 1231 402 1231 633 1618 c 0,0,1
EndSplineSet
Validated: 33
EndChar

StartChar: parenright
Encoding: 41 41 12
Width: 480
GlyphClass: 2
Flags: W
LayerCount: 2
Fore
SplineSet
595 1620 m 0,0,1
 647 1233 647 1233 546 793 c 0,2,3
 433 303 433 303 205 -87 c 0,4,5
 170 -147 170 -147 131 -147 c 0,6,7
 57 -147 57 -147 72 -83 c 0,8,9
 79 -53 79 -53 106 -7 c 0,10,11
 313 341 313 341 417 790 c 0,12,13
 507 1181 507 1181 460 1528 c 0,14,15
 454 1571 454 1571 459 1596 c 0,16,17
 476 1668 476 1668 537 1668 c 0,18,19
 588 1668 588 1668 595 1620 c 0,0,1
EndSplineSet
Validated: 33
EndChar

StartChar: asterisk
Encoding: 42 42 13
Width: 879
GlyphClass: 2
Flags: W
LayerCount: 2
Fore
SplineSet
753 661 m 1,0,1
 870 661 l 0,2,3
 941 661 941 661 925 593 c 0,4,5
 908 521 908 521 834 521 c 2,6,7
 723 521 l 1,8,-1
 780 438 l 2,9,10
 798 412 798 412 793 389 c 0,11,12
 777 319 777 319 698 319 c 0,13,14
 674 319 674 319 652 350 c 2,15,-1
 554 489 l 1,16,-1
 367 328 l 2,17,18
 344 309 344 309 319 309 c 0,19,20
 250 309 250 309 267 382 c 0,21,22
 273 410 273 410 297 432 c 2,23,-1
 396 521 l 1,24,-1
 281 521 l 2,25,26
 211 521 211 521 228 594 c 0,27,28
 244 664 244 664 319 664 c 2,29,-1
 430 664 l 1,30,-1
 363 762 l 2,31,32
 351 779 351 779 357 806 c 0,33,34
 375 886 375 886 448 886 c 0,35,36
 473 886 473 886 486 866 c 2,37,-1
 601 695 l 1,38,-1
 774 844 l 2,39,40
 818 882 818 882 851 882 c 0,41,42
 911 882 911 882 893 804 c 0,43,44
 887 776 887 776 840 736 c 2,45,-1
 753 661 l 1,0,1
EndSplineSet
Validated: 33
EndChar

StartChar: plus
Encoding: 43 43 14
Width: 881
GlyphClass: 2
Flags: W
LayerCount: 2
Fore
SplineSet
584 890 m 2,0,1
 602 970 602 970 671 970 c 0,2,3
 737 970 737 970 717 884 c 2,4,-1
 667 667 l 1,5,-1
 866 667 l 2,6,7
 944 667 944 667 927 594 c 0,8,9
 911 525 911 525 832 525 c 2,10,11
 632 525 l 1,12,-1
 581 306 l 2,13,14
 562 223 562 223 500 223 c 0,15,16
 430 223 430 223 449 304 c 2,17,-1
 500 525 l 1,18,19
 290 525 l 0,20,21
 212 525 212 525 229 599 c 0,22,23
 245 668 245 668 325 668 c 2,24,-1
 533 668 l 1,25,-1
 584 890 l 2,0,1
EndSplineSet
Validated: 33
EndChar

StartChar: comma
Encoding: 44 44 15
Width: 438
GlyphClass: 2
Flags: W
LayerCount: 2
Fore
SplineSet
191 27 m 2,0,1
 222 94 222 94 272 94 c 0,2,3
 342 94 342 94 327 29 c 0,4,5
 321 5 321 5 310 -19 c 2,6,-1
 189 -282 l 2,7,8
 156 -352 156 -352 104 -352 c 0,9,10
 37 -352 37 -352 53 -284 c 0,11,12
 58 -262 58 -262 77 -221 c 2,13,-1
 191 27 l 2,0,1
EndSplineSet
Validated: 33
EndChar

StartChar: hyphen
Encoding: 45 45 16
Width: 881
GlyphClass: 2
Flags: W
LayerCount: 2
Fore
SplineSet
318 671 m 2,0,1
 878 671 l 0,2,3
 945 671 945 671 927 594 c 0,4,5
 912 527 912 527 840 527 c 2,6,-1
 281 527 l 2,7,8
 212 527 212 527 230 602 c 0,9,10
 246 671 246 671 318 671 c 2,0,1
EndSplineSet
Validated: 33
EndChar

StartChar: period
Encoding: 46 46 17
Width: 377
GlyphClass: 2
Flags: W
LayerCount: 2
Fore
SplineSet
143 107 m 128,-1,1
 168 214 168 214 233 214 c 0,2,3
 309 214 309 214 283 100 c 0,4,5
 260 0 260 0 188 0 c 0,6,0
 118 0 118 0 143 107 c 128,-1,1
EndSplineSet
Validated: 33
EndChar

StartChar: slash
Encoding: 47 47 18
Width: 930
GlyphClass: 2
Flags: W
LayerCount: 2
Fore
SplineSet
134 67 m 0,0,1
 139 89 139 89 165 130 c 2,2,-1
 1010 1447 l 2,3,4
 1051 1510 1051 1510 1094 1510 c 0,5,6
 1161 1510 1161 1510 1145 1442 c 0,7,8
 1139 1416 1139 1416 1124 1391 c 2,9,-1
 271 62 l 2,10,11
 232 0 232 0 191 0 c 0,12,13
 119 0 119 0 134 67 c 0,0,1
EndSplineSet
Validated: 33
EndChar

StartChar: zero
Encoding: 48 48 19
Width: 886
GlyphClass: 2
Flags: W
LayerCount: 2
Fore
SplineSet
757 1366 m 0,0,1
 694 1366 694 1366 652 1306 c 0,2,3
 544 1152 544 1152 464 953 c 0,4,5
 427 860 427 860 405 764 c 0,6,7
 389 694 389 694 381 625 c 0,8,9
 356 399 356 399 385 241 c 0,10,11
 402 146 402 146 474 146 c 0,12,13
 544 146 544 146 606 232 c 0,14,15
 697 359 697 359 778 581 c 0,16,17
 813 676 813 676 834 765 c 128,-1,18
 855 854 855 854 861 937 c 0,19,20
 876 1148 876 1148 837 1308 c 0,21,22
 822 1366 822 1366 757 1366 c 0,0,1
795 1510 m 0,23,24
 922 1510 922 1510 965 1404 c 0,25,26
 1031 1241 1031 1241 1002 945 c 0,27,28
 994 856 994 856 973 765 c 0,29,30
 951 669 951 669 915 574 c 0,31,32
 807 280 807 280 671 114 c 0,33,34
 577 0 577 0 443 0 c 0,35,36
 312 0 312 0 270 118 c 0,37,38
 218 262 218 262 237 569 c 0,39,40
 243 658 243 658 264 751 c 0,41,42
 286 848 286 848 325 946 c 0,43,44
 445 1251 445 1251 555 1387 c 0,45,46
 655 1510 655 1510 795 1510 c 0,23,24
EndSplineSet
Validated: 33
EndChar

StartChar: one
Encoding: 49 49 20
Width: 646
GlyphClass: 2
Flags: W
LayerCount: 2
Fore
SplineSet
669 1478 m 2,0,1
 708 1510 708 1510 743 1510 c 0,2,3
 813 1510 813 1510 793 1427 c 2,4,-1
 485 90 l 2,5,6
 465 5 465 5 398 5 c 0,7,8
 329 5 329 5 349 91 c 2,9,10
 621 1270 l 1,11,-1
 419 1096 l 2,12,13
 388 1069 388 1069 363 1069 c 0,14,15
 292 1069 292 1069 308 1136 c 0,16,17
 316 1170 316 1170 349 1199 c 2,18,-1
 669 1478 l 2,0,1
EndSplineSet
Validated: 33
EndChar

StartChar: two
Encoding: 50 50 21
Width: 884
GlyphClass: 2
Flags: W
LayerCount: 2
Fore
SplineSet
426 1139 m 0,0,1
 353 1139 353 1139 370 1209 c 0,2,3
 375 1231 375 1231 400 1267 c 0,4,5
 487 1391 487 1391 576 1444 c 0,6,7
 686 1510 686 1510 791 1510 c 0,8,9
 968 1510 968 1510 1035 1365 c 0,10,11
 1084 1259 1084 1259 1056 1137 c 0,12,13
 1031 1030 1031 1030 945 923 c 2,14,-1
 313 140 l 1,15,-1
 754 140 l 2,16,17
 824 140 824 140 806 65 c 0,18,19
 791 0 791 0 715 0 c 2,20,-1
 175 0 l 2,21,22
 92 0 92 0 107 64 c 0,23,24
 113 92 113 92 130 113 c 2,25,-1
 831 980 l 2,26,27
 903 1069 903 1069 918 1137 c 0,28,29
 938 1223 938 1223 901 1287 c 0,30,31
 857 1365 857 1365 753 1365 c 0,32,33
 624 1365 624 1365 506 1201 c 0,34,35
 460 1139 460 1139 426 1139 c 0,0,1
EndSplineSet
Validated: 33
EndChar

StartChar: three
Encoding: 51 51 22
Width: 910
GlyphClass: 2
Flags: W
LayerCount: 2
Fore
SplineSet
531 1515 m 2,0,1
 822 1515 l 0,2,3
 948 1515 948 1515 1022 1398 c 0,4,5
 1090 1290 1090 1290 1057 1145 c 0,6,7
 1015 963 1015 963 840 834 c 1,8,9
 956 724 956 724 918 563 c 2,10,11
 868 343 l 0,12,13
 838 214 838 214 709 103 c 0,14,15
 595 5 595 5 448 5 c 2,16,17
 171 5 l 0,18,19
 92 5 92 5 109 79 c 0,20,21
 124 146 124 146 208 146 c 2,22,23
 454 146 l 0,24,25
 567 146 567 146 648 218 c 0,26,27
 724 285 724 285 749 393 c 2,28,-1
 779 523 l 2,29,30
 803 625 803 625 761 688 c 0,31,32
 711 765 711 765 634 765 c 2,33,-1
 493 765 l 2,34,35
 416 765 416 765 433 840 c 0,36,37
 448 906 448 906 526 906 c 2,38,-1
 652 906 l 2,39,40
 739 906 739 906 817 974 c 0,41,42
 900 1046 900 1046 921 1138 c 0,43,44
 943 1232 943 1232 903 1290 c 0,45,46
 849 1369 849 1369 773 1369 c 2,47,-1
 497 1369 l 2,48,49
 411 1369 411 1369 428 1444 c 0,50,51
 445 1515 445 1515 531 1515 c 2,0,1
EndSplineSet
Validated: 33
EndChar

StartChar: four
Encoding: 52 52 23
Width: 974
GlyphClass: 2
Flags: W
LayerCount: 2
Fore
SplineSet
709 1459 m 0,0,1
 737 1515 737 1515 790 1515 c 0,2,3
 854 1515 854 1515 839 1446 c 0,4,5
 835 1429 835 1429 823 1406 c 2,6,-1
 349 454 l 1,7,-1
 689 454 l 1,8,-1
 739 672 l 2,9,10
 758 756 758 756 826 756 c 0,11,12
 892 756 892 756 872 666 c 2,13,-1
 822 453 l 1,14,15
 966 453 l 0,16,17
 1034 453 1034 453 1015 374 c 0,18,19
 1000 310 1000 310 930 310 c 2,20,-1
 789 310 l 1,21,-1
 737 84 l 2,22,23
 718 3 718 3 650 3 c 0,24,25
 585 3 585 3 603 81 c 2,26,-1
 655 307 l 1,27,-1
 228 307 l 2,28,29
 162 307 162 307 177 374 c 0,30,31
 182 396 182 396 207 446 c 2,32,33
 709 1459 l 0,0,1
EndSplineSet
Validated: 33
EndChar

StartChar: five
Encoding: 53 53 24
Width: 941
GlyphClass: 2
Flags: W
LayerCount: 2
Fore
SplineSet
449 1434 m 2,0,1
 467 1510 467 1510 548 1510 c 2,2,3
 1095 1510 l 0,4,5
 1172 1510 1172 1510 1155.5 1438 c 128,-1,6
 1139 1366 1139 1366 1065 1366 c 2,7,-1
 570 1366 l 1,8,-1
 463 903 l 1,9,-1
 670 903 l 2,10,11
 849 903 849 903 925 759 c 0,12,13
 975 663 975 663 944 529 c 2,14,-1
 907 368 l 2,15,16
 870 208 870 208 746 107 c 0,17,18
 614 0 614 0 485 0 c 2,19,-1
 195 0 l 2,20,21
 123 0 123 0 139 70 c 0,22,23
 155 141 155 141 234 141 c 2,24,-1
 492 141 l 2,25,26
 609 141 609 141 692 227 c 0,27,28
 753 291 753 291 773 378 c 2,29,-1
 808 529 l 2,30,31
 829 619 829 619 789 685 c 0,32,33
 745 759 745 759 618 759 c 2,34,-1
 361 759 l 2,35,36
 293 759 293 759 313 844 c 2,37,-1
 449 1434 l 2,0,1
EndSplineSet
Validated: 33
EndChar

StartChar: six
Encoding: 54 54 25
Width: 936
GlyphClass: 2
Flags: W
LayerCount: 2
Fore
SplineSet
470 902 m 1,0,1
 675 902 l 0,2,3
 831 902 831 902 907 777 c 0,4,5
 973 668 973 668 944 545 c 2,6,7
 898 343 l 0,8,9
 868 214 868 214 724 93 c 0,10,11
 613 0 613 0 450 0 c 0,12,13
 319 0 319 0 242 106 c 0,14,15
 167 210 167 210 197 343 c 2,16,-1
 318 865 l 2,17,18
 371 1093 371 1093 581 1298 c 0,19,20
 709 1423 709 1423 890 1494 c 0,21,22
 931 1510 931 1510 957 1510 c 0,23,24
 1024 1510 1024 1510 1006 1432 c 0,25,26
 995 1386 995 1386 932 1364 c 0,27,28
 790 1315 790 1315 695 1234 c 0,29,30
 535 1097 535 1097 470 902 c 1,0,1
334 358 m 2,31,32
 314 272 314 272 374 195 c 0,33,34
 416 141 416 141 502 141 c 0,35,36
 567 141 567 141 671 212 c 0,37,38
 744 262 744 262 767 362 c 2,39,-1
 802 514 l 2,40,41
 825 613 825 613 779 686 c 0,42,43
 735 756 735 756 643 756 c 2,44,-1
 426 756 l 1,45,-1
 334 358 l 2,31,32
EndSplineSet
Validated: 33
EndChar

StartChar: seven
Encoding: 55 55 26
Width: 905
GlyphClass: 2
Flags: W
LayerCount: 2
Fore
SplineSet
1058 1510 m 0,0,1
 1136 1510 1136 1510 1120 1440 c 0,2,3
 1115 1418 1115 1418 1073 1323 c 2,4,5
 527 70 l 0,6,7
 497 0 497 0 446 0 c 0,8,9
 374 0 374 0 390 66 c 0,10,11
 393 80 393 80 399 94 c 2,12,-1
 954 1363 l 1,13,-1
 538 1363 l 1,14,15
 520 1288 l 0,16,17
 504 1217 504 1217 436 1217 c 0,18,19
 372 1217 372 1217 389 1291 c 2,20,21
 424 1443 l 0,22,23
 439 1510 439 1510 514 1510 c 2,24,25
 1058 1510 l 0,0,1
EndSplineSet
Validated: 33
EndChar

StartChar: eight
Encoding: 56 56 27
Width: 976
GlyphClass: 2
Flags: W
LayerCount: 2
Fore
SplineSet
661 760 m 0,0,1
 578 760 578 760 500 696 c 0,2,3
 415 626 415 626 394 536 c 2,4,-1
 352 354 l 2,5,6
 335 280 335 280 397 198 c 0,7,8
 434 149 434 149 521 149 c 0,9,10
 596 149 596 149 685 214 c 0,11,12
 764 272 764 272 789 378 c 2,13,-1
 824 527 l 2,14,15
 844 612 844 612 795 694 c 0,16,17
 757 760 757 760 661 760 c 0,0,1
641 1307 m 0,18,19
 556 1231 556 1231 536 1146 c 0,20,21
 518 1066 518 1066 548 992 c 0,22,23
 583 908 583 908 693 908 c 0,24,25
 800 908 800 908 874 978 c 0,26,27
 947 1050 947 1050 968 1139 c 0,28,29
 989 1231 989 1231 932 1303 c 0,30,31
 881 1366 881 1366 797 1366 c 0,32,33
 708 1366 708 1366 641 1307 c 0,18,19
470 835 m 1,34,35
 357 952 357 952 404 1160 c 0,36,37
 442 1326 442 1326 592 1428 c 0,38,39
 719 1515 719 1515 840 1515 c 0,40,41
 940 1515 940 1515 1002 1467 c 0,42,43
 1150 1351 1150 1351 1101 1139 c 0,44,45
 1055 941 1055 941 889 832 c 1,46,47
 1003 710 1003 710 963 533 c 2,48,-1
 923 362 l 2,49,50
 890 217 890 217 742 96 c 0,51,52
 630 4 630 4 494 4 c 0,53,54
 340 4 340 4 279 89 c 0,55,56
 187 218 187 218 219 356 c 2,57,-1
 261 541 l 2,58,59
 299 704 299 704 470 835 c 1,34,35
EndSplineSet
Validated: 33
EndChar

StartChar: nine
Encoding: 57 57 28
Width: 952
GlyphClass: 2
Flags: W
LayerCount: 2
Fore
SplineSet
275 74 m 0,0,1
 287 125 287 125 358 148 c 0,2,3
 457 180 457 180 539 240 c 0,4,5
 737 387 737 387 814 606 c 1,6,-1
 588 606 l 2,7,8
 470 606 470 606 395 695 c 0,9,10
 304 805 304 805 338 950 c 2,11,12
 386 1161 l 0,13,14
 425 1328 425 1328 604 1447 c 0,15,16
 699 1510 699 1510 824 1510 c 0,17,18
 957 1510 957 1510 1040 1396 c 0,19,20
 1115 1293 1115 1293 1077 1133 c 2,21,22
 971 673 l 0,23,24
 937 525 937 525 862 410 c 0,25,26
 740 224 740 224 616 137 c 0,27,28
 417 0 417 0 325 0 c 0,29,30
 258 0 258 0 275 74 c 0,0,1
938 1124 m 0,31,32
 961 1225 961 1225 919 1290 c 0,33,34
 872 1363 872 1363 779 1363 c 0,35,36
 698 1363 698 1363 618 1302 c 0,37,38
 537 1240 537 1240 513 1136 c 2,39,-1
 475 974 l 2,40,41
 452 873 452 873 512 805 c 0,42,43
 560 751 560 751 676 751 c 2,44,-1
 852 751 l 1,45,46
 938 1124 l 0,31,32
EndSplineSet
Validated: 33
EndChar

StartChar: colon
Encoding: 58 58 29
Width: 417
GlyphClass: 2
Flags: W
LayerCount: 2
Fore
SplineSet
200 275 m 0,0,1
 225 385 225 385 290 385 c 0,2,3
 366 385 366 385 341 273 c 0,4,5
 317 167 317 167 244 167 c 0,6,7
 175 167 175 167 200 275 c 0,0,1
339 879 m 0,8,9
 364 989 364 989 433 989 c 0,10,11
 509 989 509 989 483 877 c 0,12,13
 459 772 459 772 386 772 c 0,14,15
 314 772 314 772 339 879 c 0,8,9
EndSplineSet
Validated: 33
EndChar

StartChar: semicolon
Encoding: 59 59 30
Width: 479
GlyphClass: 2
Flags: W
LayerCount: 2
Fore
SplineSet
264 263 m 2,0,1
 295 330 295 330 345 330 c 0,2,3
 415 330 415 330 399 265 c 0,4,5
 393 241 393 241 383 217 c 2,6,-1
 262 -46 l 2,7,8
 229 -116 229 -116 177 -116 c 0,9,10
 110 -116 110 -116 125 -48 c 0,11,12
 130 -26 130 -26 149 15 c 2,13,-1
 264 263 l 2,0,1
392 827 m 0,14,15
 417 937 417 937 483 937 c 0,16,17
 559 937 559 937 533 825 c 0,18,19
 509 719 509 719 436 719 c 0,20,21
 367 719 367 719 392 827 c 0,14,15
EndSplineSet
Validated: 33
EndChar

StartChar: less
Encoding: 60 60 31
Width: 881
GlyphClass: 2
Flags: W
LayerCount: 2
Fore
SplineSet
837 442 m 2,0,1
 887 419 887 419 877 375 c 0,2,3
 859 298 859 298 799 298 c 0,4,5
 777 298 777 298 760 304 c 2,6,-1
 275 521 l 2,7,8
 217 547 217 547 229 597 c 0,9,10
 241 650 241 650 319 679 c 2,11,-1
 889 889 l 2,12,13
 913 898 913 898 934 898 c 0,14,15
 995 898 995 898 978 819 c 0,16,17
 968 774 968 774 898 749 c 2,18,-1
 491 596 l 1,19,-1
 837 442 l 2,0,1
EndSplineSet
Validated: 33
EndChar

StartChar: equal
Encoding: 61 61 32
Width: 879
GlyphClass: 2
Flags: W
LayerCount: 2
Fore
SplineSet
819 442 m 2,0,1
 889 442 889 442 872 370 c 0,2,3
 855 296 855 296 790 296 c 2,4,5
 225 296 l 0,6,7
 159 296 159 296 176 369 c 128,-1,8
 193 442 193 442 260 442 c 2,9,-1
 819 442 l 2,0,1
926 898 m 2,10,11
 996 898 996 898 979 825 c 0,12,13
 962 751 962 751 897 751 c 2,14,-1
 332 751 l 2,15,16
 265 751 265 751 282 824 c 0,17,18
 299 898 299 898 367 898 c 2,19,-1
 926 898 l 2,10,11
EndSplineSet
Validated: 33
EndChar

StartChar: greater
Encoding: 62 62 33
Width: 881
GlyphClass: 2
Flags: W
LayerCount: 2
Fore
SplineSet
249 441 m 2,0,-1
 665 595 l 1,1,-1
 329 748 l 2,2,3
 272 773 272 773 282 818 c 0,4,5
 300 897 300 897 361 897 c 0,6,7
 382 897 382 897 403 888 c 2,8,-1
 875 678 l 2,9,10
 940 649 940 649 928 596 c 0,11,12
 916 546 916 546 846 520 c 2,13,-1
 261 303 l 2,14,15
 242 297 242 297 220 297 c 0,16,17
 160 297 160 297 177 374 c 0,18,19
 188 418 188 418 249 441 c 2,0,-1
EndSplineSet
Validated: 33
EndChar

StartChar: question
Encoding: 63 63 34
Width: 880
GlyphClass: 2
Flags: W
LayerCount: 2
Fore
SplineSet
453 1423 m 0,0,1
 644 1510 644 1510 858 1510 c 0,2,3
 986 1510 986 1510 1045 1406 c 0,4,5
 1094 1320 1094 1320 1068 1206 c 0,6,7
 1039 1082 1039 1082 940 1000 c 2,8,-1
 732 826 l 2,9,10
 686 788 686 788 672 729 c 2,11,-1
 628 539 l 2,12,13
 609 456 609 456 542 456 c 128,-1,14
 475 456 475 456 493 534 c 2,15,-1
 540 738 l 2,16,17
 565 846 565 846 647 913 c 2,18,-1
 877 1109 l 2,19,20
 914 1141 914 1141 927 1194 c 0,21,22
 966 1364 966 1364 797 1364 c 0,23,24
 687 1364 687 1364 507 1303 c 0,25,26
 473 1291 473 1291 454 1291 c 2,27,28
 452 1291 l 0,29,30
 389 1291 389 1291 406 1364 c 0,31,32
 416 1406 416 1406 453 1423 c 0,0,1
396 111 m 0,33,34
 421 221 421 221 482 221 c 0,35,36
 553 221 553 221 527 110 c 0,37,38
 502 0 502 0 437 0 c 0,39,40
 370 0 370 0 396 111 c 0,33,34
EndSplineSet
Validated: 33
EndChar

StartChar: at
Encoding: 64 64 35
Width: 1537
GlyphClass: 2
Flags: W
LayerCount: 2
Fore
SplineSet
1177 1145 m 1,0,1
 1054 1145 l 0,2,3
 889 1145 889 1145 845 954 c 2,4,5
 761 588 l 0,6,7
 713 380 713 380 861 380 c 0,8,9
 1001 380 1001 380 1047 582 c 2,10,11
 1177 1145 l 1,0,1
614 -220 m 0,12,13
 445 -220 445 -220 320 -85 c 0,14,15
 158 90 158 90 238 440 c 2,16,17
 378 1044 l 0,18,19
 458 1392 458 1392 738 1591 c 0,20,21
 960 1749 960 1749 1188 1749 c 0,22,23
 1399 1749 1399 1749 1543 1587 c 0,24,25
 1722 1386 1722 1386 1641 1039 c 2,26,27
 1526 538 l 0,28,29
 1493 393 1493 393 1428 332 c 0,30,31
 1323 232 1323 232 1212 232 c 0,32,33
 1112 232 1112 232 1051 328 c 1,34,35
 940 232 940 232 819 232 c 0,36,37
 752 232 752 232 693 274 c 0,38,39
 576 358 576 358 619 547 c 2,40,-1
 718 975 l 2,41,42
 751 1120 751 1120 853.5 1206 c 128,-1,43
 956 1292 956 1292 1103 1292 c 2,44,-1
 1261 1292 l 2,45,46
 1345 1292 1345 1292 1324 1206 c 2,47,-1
 1177 569 l 2,48,49
 1133 380 1133 380 1244 380 c 0,50,51
 1352 380 1352 380 1385 522 c 2,52,-1
 1512 1071 l 2,53,54
 1566 1306 1566 1306 1440 1464 c 0,55,56
 1330 1602 1330 1602 1152 1602 c 0,57,58
 960 1602 960 1602 780 1466 c 0,59,60
 576 1312 576 1312 518 1061 c 2,61,-1
 372 426 l 2,62,63
 318 194 318 194 426 35 c 0,64,65
 500 -73 500 -73 670 -73 c 0,66,67
 750 -73 750 -73 732 -152 c 0,68,69
 716 -220 716 -220 614 -220 c 0,12,13
EndSplineSet
Validated: 33
EndChar

StartChar: A
Encoding: 65 65 36
Width: 1165
GlyphClass: 2
Flags: W
LayerCount: 2
Fore
SplineSet
858 1455 m 2,0,1
 887 1510 887 1510 936 1510 c 0,2,3
 982 1510 982 1510 987 1455 c 2,4,-1
 1092 111 l 2,5,6
 1094 84 1094 84 1090 67 c 0,7,8
 1076 8 1076 8 1008 0 c 1,9,10
 959 0 959 0 953 66 c 2,11,12
 932 382 l 1,13,-1
 416 382 l 1,14,-1
 240 58 l 2,15,16
 206 -3 206 -3 163 -3 c 0,17,18
 90 -3 90 -3 107 70 c 0,19,20
 109 80 109 80 145 145 c 2,21,-1
 858 1455 l 2,0,1
862 1206 m 1,22,-1
 491 523 l 1,23,-1
 919 523 l 1,24,-1
 862 1206 l 1,22,-1
EndSplineSet
Validated: 33
EndChar

StartChar: B
Encoding: 66 66 37
Width: 1102
GlyphClass: 2
Flags: W
LayerCount: 2
Fore
SplineSet
1091 460 m 0,0,1
 1040 240 1040 240 882.5 120 c 128,-1,2
 725 0 725 0 610 0 c 2,3,-1
 202 0 l 2,4,5
 137 0 137 0 158 91 c 2,6,-1
 463 1416 l 2,7,8
 485 1510 485 1510 572 1510 c 2,9,-1
 862 1510 l 2,10,11
 1039 1510 1039 1510 1102 1434 c 0,12,13
 1213 1301 1213 1301 1173 1132 c 0,14,15
 1131 948 1131 948 975 838 c 1,16,17
 1049 784 1049 784 1084 683 c 128,-1,18
 1119 582 1119 582 1091 460 c 0,0,1
452 748 m 1,19,-1
 312 139 l 1,20,-1
 602 139 l 2,21,22
 728 139 728 139 826 233 c 128,-1,23
 924 327 924 327 951 441 c 256,24,25
 977 555 977 555 928 652 c 0,26,27
 879 748 879 748 745 748 c 2,28,-1
 452 748 l 1,19,-1
594 1361 m 1,29,-1
 488 904 l 1,30,-1
 772 904 l 2,31,32
 879 904 879 904 947 966.5 c 128,-1,33
 1015 1029 1015 1029 1036 1122 c 0,34,35
 1058 1216 1058 1216 1018 1288.5 c 128,-1,36
 978 1361 978 1361 874 1361 c 2,37,-1
 594 1361 l 1,29,-1
EndSplineSet
Validated: 33
EndChar

StartChar: C
Encoding: 67 67 38
Width: 928
GlyphClass: 2
Flags: W
LayerCount: 2
Fore
SplineSet
830 1515 m 2,0,1
 1115 1515 l 0,2,3
 1184 1515 1184 1515 1166 1440 c 0,4,5
 1148 1364 1148 1364 1075 1364 c 2,6,-1
 795 1364 l 2,7,8
 717 1364 717 1364 626 1291 c 0,9,10
 557 1235 557 1235 536 1141 c 2,11,-1
 359 377 l 2,12,13
 337 283 337 283 381 215 c 0,14,15
 426 145 426 145 492 145 c 2,16,-1
 804 145 l 2,17,18
 871 145 871 145 854 72 c 0,19,20
 838 3 838 3 771 3 c 2,21,-1
 453 3 l 2,22,23
 325 3 325 3 244 136 c 0,24,25
 189 227 189 227 222 369 c 2,26,-1
 402 1152 l 2,27,28
 437 1302 437 1302 572 1413 c 0,29,30
 696 1515 696 1515 830 1515 c 2,0,1
EndSplineSet
Validated: 33
EndChar

StartChar: D
Encoding: 68 68 39
Width: 1114
GlyphClass: 2
Flags: W
LayerCount: 2
Fore
SplineSet
306 144 m 1,0,1
 629 144 l 0,2,3
 754 144 754 144 832 213.5 c 128,-1,4
 910 283 910 283 933 384 c 2,5,-1
 1106 1135 l 2,6,7
 1127 1224 1127 1224 1083 1295 c 128,-1,8
 1039 1366 1039 1366 939 1366 c 2,9,-1
 589 1366 l 1,10,11
 588 1366 588 1366 306 144 c 1,0,1
466 1428 m 2,12,13
 485 1510 485 1510 562 1510 c 2,14,-1
 998 1510 l 2,15,16
 1126 1510 1126 1510 1201.5 1402 c 128,-1,17
 1277 1294 1277 1294 1245 1157 c 2,18,-1
 1059 350 l 2,19,20
 1027 213 1027 213 902 106.5 c 128,-1,21
 777 0 777 0 663 0 c 2,22,-1
 199 0 l 2,23,24
 137 0 137 0 157 89 c 2,25,-1
 466 1428 l 2,12,13
EndSplineSet
Validated: 33
EndChar

StartChar: E
Encoding: 69 69 40
Width: 927
GlyphClass: 2
Flags: W
LayerCount: 2
Fore
SplineSet
305 149 m 1,0,-1
 801 149 l 2,1,2
 870 149 870 149 853 77 c 256,3,4
 836 5 836 5 770 5 c 2,5,-1
 199 5 l 2,6,7
 138 5 138 5 155 80 c 2,8,-1
 468 1437 l 2,9,10
 486 1515 486 1515 569 1515 c 2,11,-1
 1111 1515 l 2,12,13
 1186 1515 1186 1515 1170 1442 c 0,14,15
 1153 1370 1153 1370 1078 1370 c 2,16,-1
 587 1370 l 1,17,-1
 479 904 l 1,18,-1
 838 904 l 2,19,20
 906 904 906 904 889 832 c 0,21,22
 873 764 873 764 808 764 c 2,23,-1
 447 764 l 1,24,-1
 305 149 l 1,0,-1
EndSplineSet
Validated: 33
EndChar

StartChar: F
Encoding: 70 70 41
Width: 927
GlyphClass: 2
Flags: W
LayerCount: 2
Fore
SplineSet
450 763 m 1,0,-1
 294 86 l 2,1,2
 275 4 275 4 205 4 c 0,3,4
 137 4 137 4 157 87 c 2,5,6
 470 1445 l 0,7,8
 486 1515 486 1515 559 1515 c 2,9,10
 1113 1515 l 0,11,12
 1186 1515 1186 1515 1169.5 1443 c 128,-1,13
 1153 1371 1153 1371 1081 1371 c 2,14,-1
 592 1371 l 1,15,-1
 485 909 l 1,16,-1
 974 909 l 2,17,18
 1047 909 1047 909 1030 836 c 128,-1,19
 1013 763 1013 763 939 763 c 2,20,-1
 450 763 l 1,0,-1
EndSplineSet
Validated: 33
EndChar

StartChar: G
Encoding: 71 71 42
Width: 1098
GlyphClass: 2
Flags: W
LayerCount: 2
Fore
SplineSet
879 149 m 1,0,-1
 1020 763 l 1,1,-1
 874 763 l 2,2,3
 808 763 808 763 825 834 c 0,4,5
 842 906 842 906 905 906 c 2,6,-1
 1127 906 l 2,7,8
 1187 906 1187 906 1164 811 c 2,9,-1
 998 92 l 2,10,11
 978 5 978 5 901 5 c 2,12,-1
 449 5 l 2,13,14
 348 5 348 5 265.5 103.5 c 128,-1,15
 183 202 183 202 233 416 c 2,16,-1
 405 1161 l 2,17,18
 438 1302 438 1302 568.5 1408.5 c 128,-1,19
 699 1515 699 1515 837 1515 c 2,20,-1
 1248 1515 l 2,21,22
 1330 1515 1330 1515 1313.5 1443 c 128,-1,23
 1297 1371 1297 1371 1216 1371 c 2,24,-1
 819 1371 l 2,25,26
 717 1371 717 1371 635 1299 c 128,-1,27
 553 1227 553 1227 529 1124 c 2,28,-1
 362 400 l 2,29,30
 336 289 336 289 380.5 219 c 128,-1,31
 425 149 425 149 499 149 c 2,32,-1
 879 149 l 1,0,-1
EndSplineSet
Validated: 33
EndChar

StartChar: H
Encoding: 72 72 43
Width: 1119
GlyphClass: 2
Flags: W
LayerCount: 2
Fore
SplineSet
1026 760 m 1,0,-1
 449 760 l 1,1,-1
 291 77 l 2,2,3
 273 0 273 0 204.5 0 c 128,-1,4
 136 0 136 0 154 76 c 2,5,-1
 465 1425 l 2,6,7
 485 1510 485 1510 553.5 1510 c 128,-1,8
 622 1510 622 1510 602 1425 c 2,9,-1
 482 904 l 1,10,-1
 1059 904 l 1,11,-1
 1181 1431 l 2,12,13
 1198 1506 1198 1506 1264 1506 c 128,-1,14
 1330 1506 1330 1506 1313 1432 c 2,15,-1
 1001 80 l 2,16,17
 983 0 983 0 917 0 c 128,-1,18
 851 0 851 0 869 78 c 2,19,-1
 1026 760 l 1,0,-1
EndSplineSet
Validated: 33
EndChar

StartChar: I
Encoding: 73 73 44
Width: 414
GlyphClass: 2
Flags: W
LayerCount: 2
Fore
SplineSet
207 0 m 128,-1,1
 136 0 136 0 158 94 c 2,2,-1
 464 1420 l 2,3,4
 485 1510 485 1510 555.5 1510 c 128,-1,5
 626 1510 626 1510 605 1417 c 2,6,-1
 300 96 l 2,7,0
 278 0 278 0 207 0 c 128,-1,1
EndSplineSet
Validated: 33
EndChar

StartChar: J
Encoding: 74 74 45
Width: 782
GlyphClass: 2
Flags: W
LayerCount: 2
Fore
SplineSet
844 1432 m 2,0,1
 862 1510 862 1510 929 1510 c 0,2,3
 995 1510 995 1510 977 1433 c 2,4,-1
 731 366 l 2,5,6
 697 217 697 217 571.5 108.5 c 128,-1,7
 446 0 446 0 303 0 c 2,8,-1
 160 0 l 2,9,10
 91 0 91 0 108 74 c 128,-1,11
 125 148 125 148 206 148 c 2,12,-1
 344 148 l 2,13,14
 431 148 431 148 505 216.5 c 128,-1,15
 579 285 579 285 599 370 c 2,16,-1
 844 1432 l 2,0,1
EndSplineSet
Validated: 33
EndChar

StartChar: K
Encoding: 75 75 46
Width: 1069
GlyphClass: 2
Flags: W
LayerCount: 2
Fore
SplineSet
201 3 m 0,0,1
 137 3 137 3 159 96 c 2,2,-1
 470 1444 l 2,3,4
 485 1510 485 1510 549 1510 c 0,5,6
 619 1510 619 1510 602 1435 c 2,7,-1
 454 797 l 1,8,-1
 1188 1477 l 2,9,10
 1229 1515 1229 1515 1257 1515 c 128,-1,11
 1285 1515 1285 1515 1300 1490 c 0,12,13
 1314 1466 1314 1466 1307 1438 c 0,14,15
 1301 1412 1301 1412 1259 1372 c 2,16,-1
 765 911 l 1,17,-1
 989 124 l 2,18,19
 999 90 999 90 995 74 c 0,20,21
 988 43 988 43 958 20 c 0,22,23
 932 0 932 0 905 0 c 0,24,25
 871 0 871 0 857 45 c 2,26,-1
 643 798 l 1,27,-1
 406 578 l 1,28,-1
 295 99 l 2,29,30
 273 3 273 3 201 3 c 0,0,1
EndSplineSet
Validated: 33
EndChar

StartChar: L
Encoding: 76 76 47
Width: 931
GlyphClass: 2
Flags: W
LayerCount: 2
Fore
SplineSet
602 1433 m 2,0,-1
 305 145 l 1,1,-1
 789 145 l 2,2,3
 874 145 874 145 857.5 72.5 c 128,-1,4
 841 0 841 0 753 0 c 2,5,-1
 203 0 l 2,6,7
 137 0 137 0 157 89 c 2,8,-1
 467 1433 l 2,9,10
 485 1510 485 1510 552.5 1510 c 128,-1,11
 620 1510 620 1510 602 1433 c 2,0,-1
EndSplineSet
Validated: 33
EndChar

StartChar: M
Encoding: 77 77 48
Width: 1262
GlyphClass: 2
Flags: W
LayerCount: 2
Fore
SplineSet
1336 1472 m 2,0,1
 1367 1510 1367 1510 1404 1510 c 0,2,3
 1475 1510 1475 1510 1456 1430 c 2,4,-1
 1149 99 l 2,5,6
 1126 0 1126 0 1057 0 c 128,-1,7
 988 0 988 0 1011 99 c 2,8,-1
 1259 1172 l 1,9,-1
 852 664 l 2,10,11
 802 601 802 601 766.5 601 c 128,-1,12
 731 601 731 601 712 662 c 2,13,-1
 544 1170 l 1,14,-1
 296 94 l 2,15,16
 274 0 274 0 203 0 c 0,17,18
 137 0 137 0 158 92 c 2,19,-1
 467 1431 l 2,20,21
 485 1510 485 1510 556 1510 c 0,22,23
 592 1510 592 1510 605 1475 c 2,24,-1
 814 824 l 1,25,-1
 1336 1472 l 2,0,1
EndSplineSet
Validated: 33
EndChar

StartChar: N
Encoding: 78 78 49
Width: 1111
GlyphClass: 2
Flags: W
LayerCount: 2
Fore
SplineSet
929 357 m 1,0,-1
 1179 1439 l 2,1,2
 1197 1515 1197 1515 1261 1515 c 128,-1,3
 1325 1515 1325 1515 1308 1442 c 2,4,-1
 996 89 l 2,5,6
 977 6 977 6 915 6 c 0,7,8
 872 6 872 6 857 60 c 2,9,-1
 538 1159 l 1,10,-1
 291 89 l 2,11,12
 273 9 273 9 202 9 c 0,13,14
 139 9 139 9 158 91 c 2,15,-1
 466 1426 l 2,16,17
 487 1515 487 1515 553 1515 c 0,18,19
 597 1515 597 1515 610 1469 c 2,20,-1
 929 357 l 1,0,-1
EndSplineSet
Validated: 33
EndChar

StartChar: O
Encoding: 79 79 50
Width: 1112
GlyphClass: 2
Flags: W
LayerCount: 2
Fore
SplineSet
371 423 m 2,0,1
 346 315 346 315 418 225 c 0,2,3
 481 148 481 148 582 148 c 0,4,5
 699 148 699 148 789 219 c 0,6,7
 915 319 915 319 946 452 c 2,8,-1
 1086 1060 l 2,9,10
 1120 1206 1120 1206 1042 1291 c 0,11,12
 972 1367 972 1367 862 1367 c 0,13,14
 770 1367 770 1367 664 1290 c 0,15,16
 552 1209 552 1209 519 1064 c 2,17,-1
 371 423 l 2,0,1
388 1088 m 2,18,19
 426 1254 426 1254 578 1384 c 0,20,21
 731 1515 731 1515 908 1515 c 0,22,23
 1076 1515 1076 1515 1168 1385 c 0,24,25
 1265 1248 1265 1248 1223 1067 c 2,26,-1
 1082 456 l 2,27,28
 1037 260 1037 260 878 127 c 0,29,30
 727 0 727 0 551 0 c 0,31,32
 385 0 385 0 291 127 c 0,33,34
 195 257 195 257 235 428 c 2,35,-1
 388 1088 l 2,18,19
EndSplineSet
Validated: 33
EndChar

StartChar: P
Encoding: 80 80 51
Width: 1066
GlyphClass: 2
Flags: W
LayerCount: 2
Fore
SplineSet
590 1366 m 1,0,1
 448 755 l 1,2,-1
 757 755 l 2,3,4
 851 755 851 755 954 844 c 0,5,6
 1056 932 1056 932 1086.5 1062 c 128,-1,7
 1117 1192 1117 1192 1054.5 1279 c 128,-1,8
 992 1366 992 1366 859 1366 c 2,9,-1
 590 1366 l 1,0,1
294 88 m 2,10,11
 275 5 275 5 206.5 5 c 128,-1,12
 138 5 138 5 157 90 c 2,13,-1
 467 1431 l 2,14,15
 485 1510 485 1510 561 1510 c 2,16,-1
 921 1510 l 2,17,18
 1095 1510 1095 1510 1185 1360 c 0,19,20
 1260 1235 1260 1235 1226 1086 c 0,21,22
 1184 904 1184 904 1088 800 c 0,23,24
 909 607 909 607 723 607 c 2,25,-1
 414 607 l 1,26,-1
 294 88 l 2,10,11
EndSplineSet
Validated: 33
EndChar

StartChar: Q
Encoding: 81 81 52
Width: 1133
GlyphClass: 2
Flags: W
LayerCount: 2
Fore
SplineSet
936 401 m 1,0,1
 1091 1071 l 0,2,3
 1120 1195 1120 1195 1051 1284 c 0,4,5
 988 1366 988 1366 873 1366 c 0,6,7
 775 1366 775 1366 684 1300 c 0,8,9
 553 1206 553 1206 517 1046 c 2,10,-1
 378 448 l 2,11,12
 351 331 351 331 420 234 c 0,13,14
 480 149 480 149 602 149 c 0,15,16
 728 149 728 149 845 264 c 1,17,18
 785 330 785 330 794 370 c 0,19,20
 812 450 812 450 879 450 c 0,21,22
 918 450 918 450 936 401 c 1,0,1
1020 292 m 1,23,-1
 1121 144 l 2,24,25
 1148 104 1148 104 1141 74 c 0,26,27
 1124 0 1124 0 1053 0 c 0,28,29
 1024 0 1024 0 998 40 c 2,30,-1
 917 159 l 1,31,32
 880 114 880 114 798 66 c 0,33,34
 686 0 686 0 570 0 c 0,35,36
 379 0 379 0 291 141 c 0,37,38
 202 283 202 283 243 461 c 2,39,-1
 382 1062 l 2,40,41
 415 1206 415 1206 530 1332 c 0,42,43
 692 1510 692 1510 913 1510 c 0,44,45
 1101 1510 1101 1510 1183 1372 c 0,46,47
 1266 1232 1266 1232 1235 1095 c 2,48,-1
 1090 467 l 2,49,50
 1063 355 1063 355 1020 292 c 1,23,-1
EndSplineSet
Validated: 33
EndChar

StartChar: R
Encoding: 82 82 53
Width: 1069
GlyphClass: 2
Flags: W
LayerCount: 2
Fore
SplineSet
447 751 m 1,0,1
 751 751 l 0,2,3
 848 751 848 751 967 850 c 0,4,5
 1060 927 1060 927 1092 1067 c 0,6,7
 1116 1173 1116 1173 1056 1264 c 0,8,9
 992 1361 992 1361 891 1361 c 2,10,-1
 587 1361 l 1,11,-1
 447 751 l 1,0,1
556 1504 m 2,12,-1
 924 1504 l 2,13,14
 1094 1504 1094 1504 1195 1340 c 0,15,16
 1262 1232 1262 1232 1230 1093 c 0,17,18
 1199 959 1199 959 1126 841 c 0,19,20
 1045 712 1045 712 868 640 c 1,21,-1
 993 127 l 2,22,23
 1000 96 1000 96 995 76 c 0,24,25
 977 0 977 0 908 0 c 0,26,27
 872 0 872 0 859 57 c 2,28,-1
 725 604 l 1,29,-1
 410 604 l 1,30,-1
 289 79 l 2,31,32
 271 0 271 0 203 0 c 0,33,34
 137 0 137 0 155 80 c 2,35,-1
 466 1427 l 2,36,37
 483 1504 483 1504 556 1504 c 2,12,-1
EndSplineSet
Validated: 33
EndChar

StartChar: S
Encoding: 83 83 54
Width: 1023
GlyphClass: 2
Flags: W
LayerCount: 2
Fore
SplineSet
352 1131 m 0,0,1
 388 1287 388 1287 514 1398.5 c 128,-1,2
 640 1510 640 1510 783 1510 c 0,3,4
 980 1510 980 1510 1126 1445 c 0,5,6
 1187 1418 1187 1418 1174 1362 c 0,7,8
 1158 1293 1158 1293 1094 1293 c 0,9,10
 1067 1293 1067 1293 1014 1317 c 0,11,12
 906 1367 906 1367 770 1367 c 0,13,14
 647 1367 647 1367 562 1273 c 0,15,16
 510 1216 510 1216 488 1123 c 0,17,18
 459 996 459 996 584 917 c 2,19,-1
 881 732 l 2,20,21
 1073 610 1073 610 1020 378 c 0,22,23
 980 204 980 204 840 97 c 0,24,25
 713 0 713 0 567 0 c 0,26,27
 346 0 346 0 176 143 c 0,28,29
 132 180 132 180 143 225 c 0,30,31
 159 294 159 294 228 294 c 0,32,33
 253 294 253 294 287 262 c 0,34,35
 408 149 408 149 614 149 c 0,36,37
 674 149 674 149 729 176 c 0,38,39
 850 236 850 236 883 383 c 0,40,41
 915 522 915 522 793 598 c 2,42,-1
 473 797 l 2,43,44
 300 905 300 905 352 1131 c 0,0,1
EndSplineSet
Validated: 33
EndChar

StartChar: T
Encoding: 84 84 55
Width: 1019
GlyphClass: 2
Flags: W
LayerCount: 2
Fore
SplineSet
425 1446 m 0,0,1
 441 1515 441 1515 523 1515 c 2,2,-1
 1212 1515 l 2,3,4
 1279 1515 1279 1515 1262 1443 c 0,5,6
 1245 1370 1245 1370 1180 1370 c 2,7,-1
 895 1370 l 1,8,-1
 597 79 l 2,9,10
 579 0 579 0 510 0 c 256,11,12
 442 0 442 0 460 77 c 2,13,-1
 759 1370 l 1,14,-1
 487 1370 l 2,15,16
 407 1370 407 1370 425 1446 c 0,0,1
EndSplineSet
Validated: 33
EndChar

StartChar: U
Encoding: 85 85 56
Width: 1115
GlyphClass: 2
Flags: W
LayerCount: 2
Fore
SplineSet
468 1437 m 2,0,1
 486 1515 486 1515 551 1515 c 0,2,3
 622 1515 622 1515 604 1437 c 2,4,-1
 380 468 l 2,5,6
 343 307 343 307 424 222 c 0,7,8
 495 148 495 148 589 148 c 0,9,10
 705 148 705 148 822 248 c 0,11,12
 917 329 917 329 951 473 c 2,13,-1
 1173 1437 l 2,14,15
 1191 1515 1191 1515 1261 1515 c 0,16,17
 1329 1515 1329 1515 1309 1427 c 2,18,-1
 1090 479 l 2,19,20
 1041 266 1041 266 890 141 c 0,21,22
 727 5 727 5 554 5 c 0,23,24
 401 5 401 5 306 113 c 0,25,26
 193 242 193 242 239 445 c 2,27,-1
 468 1437 l 2,0,1
EndSplineSet
Validated: 33
EndChar

StartChar: V
Encoding: 86 86 57
Width: 1166
GlyphClass: 2
Flags: W
LayerCount: 2
Fore
SplineSet
651 300 m 1,0,-1
 1273 1444 l 2,1,2
 1309 1510 1309 1510 1356 1510 c 0,3,4
 1425 1510 1425 1510 1408 1440 c 0,5,6
 1404 1421 1404 1421 1389 1394 c 2,7,-1
 673 68 l 2,8,9
 637 0 637 0 584 0 c 0,10,11
 539 0 539 0 533 66 c 2,12,-1
 422 1408 l 2,13,14
 421 1426 421 1426 424 1441 c 0,15,16
 439 1506 439 1506 512 1506 c 0,17,18
 555 1506 555 1506 560 1436 c 2,19,-1
 651 300 l 1,0,-1
EndSplineSet
Validated: 33
EndChar

StartChar: W
Encoding: 87 87 58
Width: 1445
GlyphClass: 2
Flags: W
LayerCount: 2
Fore
SplineSet
1556 1445 m 2,0,1
 1584 1506 1584 1506 1636 1506 c 0,2,3
 1703 1506 1703 1506 1688 1444 c 0,4,5
 1682 1419 1682 1419 1671 1392 c 2,6,-1
 1091 73 l 2,7,8
 1060 0 1060 0 1009 0 c 0,9,10
 955 0 955 0 950 67 c 2,11,-1
 895 752 l 1,12,-1
 524 63 l 2,13,14
 490 0 490 0 443 0 c 0,15,16
 386 0 386 0 387 61 c 2,17,-1
 418 1405 l 2,18,19
 419 1420 419 1420 424 1442 c 0,20,21
 440 1510 440 1510 511 1510 c 0,22,23
 561 1510 561 1510 559 1445 c 2,24,-1
 533 350 l 1,25,-1
 882 991 l 2,26,27
 919 1058 919 1058 971 1058 c 0,28,29
 1016 1058 1016 1058 1021 985 c 2,30,-1
 1073 346 l 1,31,-1
 1556 1445 l 2,0,1
EndSplineSet
Validated: 33
EndChar

StartChar: X
Encoding: 88 88 59
Width: 1169
GlyphClass: 2
Flags: W
LayerCount: 2
Fore
SplineSet
678 755 m 1,0,1
 430 1392 l 0,2,3
 421 1417 421 1417 426 1441 c 0,4,5
 441 1507 441 1507 511 1507 c 0,6,7
 545 1507 545 1507 563 1463 c 2,8,-1
 790 889 l 1,9,-1
 1290 1473 l 2,10,11
 1323 1510 1323 1510 1360 1510 c 0,12,13
 1427 1510 1427 1510 1412 1443 c 0,14,15
 1406 1416 1406 1416 1372 1377 c 2,16,-1
 841 755 l 1,17,-1
 1088 115 l 2,18,19
 1098 92 1098 92 1093 74 c 0,20,21
 1076 0 1076 0 1008 0 c 0,22,23
 969 0 969 0 953 43 c 2,24,-1
 729 625 l 1,25,-1
 231 38 l 2,26,27
 198 0 198 0 166 0 c 0,28,29
 91 0 91 0 107 70 c 0,30,31
 112 93 112 93 141 127 c 2,32,-1
 678 755 l 1,0,1
EndSplineSet
Validated: 33
EndChar

StartChar: Y
Encoding: 89 89 60
Width: 1165
GlyphClass: 2
Flags: W
LayerCount: 2
Fore
SplineSet
670 85 m 2,0,1
 650 0 650 0 586 0 c 0,2,3
 518 0 518 0 538 87 c 2,4,-1
 694 761 l 1,5,-1
 427 1392 l 2,6,7
 417 1415 417 1415 423 1438 c 0,8,9
 440 1511 440 1511 513 1511 c 0,10,11
 546 1511 546 1511 562 1466 c 2,12,-1
 792 906 l 1,13,-1
 1286 1475 l 2,14,15
 1318 1511 1318 1511 1353 1511 c 0,16,17
 1424 1511 1424 1511 1408 1442 c 0,18,19
 1402 1415 1402 1415 1378 1388 c 2,20,-1
 826 757 l 1,21,-1
 670 85 l 2,0,1
EndSplineSet
Validated: 33
EndChar

StartChar: Z
Encoding: 90 90 61
Width: 1024
GlyphClass: 2
Flags: W
LayerCount: 2
Fore
SplineSet
303 142 m 1,0,-1
 894 142 l 2,1,2
 967 142 967 142 949 67 c 0,3,4
 934 0 934 0 860 0 c 2,5,-1
 162 0 l 2,6,7
 91 0 91 0 108 72 c 0,8,9
 114 99 114 99 145 140 c 2,10,-1
 1066 1365 l 1,11,-1
 486 1365 l 2,12,13
 408 1365 408 1365 426 1444 c 0,14,15
 441 1510 441 1510 522 1510 c 2,16,-1
 1192 1510 l 2,17,18
 1279 1510 1279 1510 1264 1444 c 0,19,20
 1257 1414 1257 1414 1236 1385 c 2,21,-1
 303 142 l 1,0,-1
EndSplineSet
Validated: 33
EndChar

StartChar: bracketleft
Encoding: 91 91 62
Width: 500
GlyphClass: 2
Flags: W
LayerCount: 2
Fore
SplineSet
502 1584 m 0,0,1
 520 1661 520 1661 589 1661 c 2,2,3
 722 1661 l 0,4,5
 794 1661 794 1661 777 1589 c 0,6,7
 760 1515 760 1515 690 1515 c 2,8,-1
 622 1515 l 1,9,-1
 270 -12 l 1,10,-1
 336 -12 l 2,11,12
 407 -12 407 -12 391 -80 c 0,13,14
 374 -153 374 -153 299 -153 c 2,15,-1
 166 -153 l 2,16,17
 101 -153 101 -153 118 -80 c 2,18,19
 502 1584 l 0,0,1
EndSplineSet
Validated: 33
EndChar

StartChar: backslash
Encoding: 92 92 63
Width: 875
GlyphClass: 2
Flags: W
LayerCount: 2
Fore
SplineSet
800 67 m 0,0,1
 785 0 785 0 712 0 c 0,2,3
 671 0 671 0 661 62 c 2,4,-1
 421 1391 l 2,5,6
 417 1416 417 1416 424 1442 c 0,7,8
 440 1510 440 1510 507 1510 c 0,9,10
 550 1510 550 1510 561 1447 c 2,11,-1
 798 130 l 2,12,13
 805 89 805 89 800 67 c 0,0,1
EndSplineSet
Validated: 1
EndChar

StartChar: bracketright
Encoding: 93 93 64
Width: 500
GlyphClass: 2
Flags: W
LayerCount: 2
Fore
SplineSet
730 1584 m 2,0,1
 346 -80 l 0,2,3
 329 -153 329 -153 264 -153 c 2,4,-1
 131 -153 l 2,5,6
 56 -153 56 -153 73 -80 c 0,7,8
 89 -12 89 -12 159 -12 c 2,9,-1
 226 -12 l 1,10,-1
 578 1515 l 1,11,-1
 511 1515 l 2,12,13
 441 1515 441 1515 458 1589 c 0,14,15
 475 1661 475 1661 546 1661 c 2,16,-1
 679 1661 l 2,17,18
 748 1661 748 1661 730 1584 c 2,0,1
EndSplineSet
Validated: 33
EndChar

StartChar: asciicircum
Encoding: 94 94 65
Width: 738
GlyphClass: 2
Flags: W
LayerCount: 2
Fore
SplineSet
856 1471 m 2,0,1
 748 1629 l 1,2,-1
 566 1476 l 2,3,4
 517 1435 517 1435 490 1435 c 0,5,6
 422 1435 422 1435 437 1500 c 0,7,8
 444 1531 444 1531 484 1566 c 2,9,-1
 715 1770 l 2,10,11
 757 1807 757 1807 789 1807 c 0,12,13
 815 1807 815 1807 841 1770 c 2,14,-1
 977 1574 l 2,15,16
 1002 1538 1002 1538 994 1502 c 0,17,18
 979 1435 979 1435 908 1435 c 0,19,20
 879 1435 879 1435 856 1471 c 2,0,1
EndSplineSet
Validated: 33
EndChar

StartChar: underscore
Encoding: 95 95 66
Width: 881
GlyphClass: 2
Flags: W
LayerCount: 2
Fore
SplineSet
158 0 m 2,0,1
 723 0 l 0,2,3
 790 0 790 0 773 -77 c 0,4,5
 758 -144 758 -144 687 -144 c 2,6,-1
 127 -144 l 2,7,8
 58 -144 58 -144 75 -68 c 0,9,10
 91 0 91 0 158 0 c 2,0,1
EndSplineSet
Validated: 33
EndChar

StartChar: grave
Encoding: 96 96 67
Width: 596
GlyphClass: 2
Flags: W
LayerCount: 2
Fore
SplineSet
610 1727 m 2,0,1
 822 1516 l 0,2,3
 849 1490 849 1490 841 1453 c 0,4,5
 824 1378 824 1378 761 1378 c 0,6,7
 737 1378 737 1378 714 1398 c 2,8,9
 499 1613 l 0,10,11
 470 1641 470 1641 477 1673 c 0,12,13
 495 1752 495 1752 566 1752 c 0,14,15
 586 1752 586 1752 610 1727 c 2,0,1
EndSplineSet
Validated: 33
EndChar

StartChar: a
Encoding: 97 97 68
Width: 865
GlyphClass: 2
Flags: W
AnchorPoint: "Anchor-0" 515 1009 basechar 0
LayerCount: 2
Fore
SplineSet
461 434 m 2,0,1
 390 434 390 434 344 389 c 128,-1,2
 298 344 298 344 285 289 c 0,3,4
 271 229 271 229 302.5 190 c 128,-1,5
 334 151 334 151 383 151 c 2,6,-1
 645 151 l 1,7,-1
 710 434 l 1,8,-1
 461 434 l 2,0,1
420 862 m 2,9,10
 356 862 356 862 373 936 c 0,11,12
 390 1008 390 1008 456 1008 c 2,13,-1
 721 1008 l 2,14,15
 833 1008 833 1008 883.5 916.5 c 128,-1,16
 934 825 934 825 911 728 c 2,17,-1
 764 89 l 2,18,19
 755 48 755 48 728.5 24 c 128,-1,20
 702 0 702 0 667 0 c 2,21,-1
 340 0 l 2,22,23
 242 0 242 0 184.5 88 c 128,-1,24
 127 176 127 176 153 287 c 0,25,26
 181 410 181 410 273.5 494.5 c 128,-1,27
 366 579 366 579 474 579 c 2,28,-1
 744 579 l 1,29,-1
 783 748 l 2,30,31
 791 783 791 783 761.5 822.5 c 128,-1,32
 732 862 732 862 684 862 c 2,33,-1
 420 862 l 2,9,10
EndSplineSet
Validated: 33
EndChar

StartChar: b
Encoding: 98 98 69
Width: 904
GlyphClass: 2
Flags: W
LayerCount: 2
Fore
SplineSet
541 148 m 2,0,1
 688 148 688 148 725 306 c 2,2,3
 817 706 l 0,4,5
 834 778 834 778 804.5 820 c 128,-1,6
 775 862 775 862 712 862 c 2,7,-1
 454 862 l 1,8,-1
 289 148 l 1,9,-1
 541 148 l 2,0,1
211 4 m 2,10,11
 130 4 130 4 146 72 c 2,12,-1
 463 1441 l 2,13,14
 480 1515 480 1515 541 1515 c 0,15,16
 607 1515 607 1515 588 1432 c 2,17,-1
 489 1005 l 1,18,-1
 770 1005 l 2,19,20
 881 1005 881 1005 937 897 c 0,21,22
 972 831 972 831 952 741 c 2,23,-1
 842 264 l 2,24,25
 816 153 816 153 723 78.5 c 128,-1,26
 630 4 630 4 519 4 c 2,27,-1
 211 4 l 2,10,11
EndSplineSet
Validated: 33
EndChar

StartChar: c
Encoding: 99 99 70
Width: 725
GlyphClass: 2
Flags: W
LayerCount: 2
Fore
SplineSet
798 1009 m 0,0,1
 863 1009 863 1009 846 939 c 0,2,3
 829 864 829 864 764 864 c 2,4,5
 594 864 l 0,6,7
 442 864 442 864 406 708 c 2,8,9
 316 319 l 0,10,11
 277 151 277 151 421 151 c 2,12,-1
 595 151 l 2,13,14
 664 151 664 151 647 74 c 0,15,16
 631 4 631 4 565 4 c 2,17,18
 366 4 l 0,19,20
 262 4 262 4 206 88 c 0,21,22
 151 167 151 167 177 281 c 2,23,24
 278 716 l 0,25,26
 308 846 308 846 397 922 c 0,27,28
 497 1009 497 1009 616 1009 c 2,29,30
 798 1009 l 0,0,1
EndSplineSet
Validated: 33
EndChar

StartChar: d
Encoding: 100 100 71
Width: 906
GlyphClass: 2
Flags: W
LayerCount: 2
Fore
SplineSet
586 863 m 0,0,1
 438 863 438 863 397 684 c 2,2,3
 312 318 l 0,4,5
 274 151 274 151 431 151 c 2,6,7
 670 151 l 1,8,9
 834 863 l 1,10,11
 586 863 l 0,0,1
965 1429 m 2,12,13
 985 1515 985 1515 1049.5 1515 c 128,-1,14
 1114 1515 1114 1515 1095 1433 c 2,15,-1
 786 94 l 2,16,17
 764 0 764 0 680 0 c 2,18,-1
 382 0 l 2,19,20
 270 0 270 0 218 77 c 0,21,22
 152 170 152 170 178 282 c 2,23,-1
 282 735 l 2,24,25
 303 827 303 827 384 907 c 0,26,27
 483 1008 483 1008 619 1008 c 2,28,-1
 868 1008 l 1,29,-1
 965 1429 l 2,12,13
EndSplineSet
Validated: 33
EndChar

StartChar: e
Encoding: 101 101 72
Width: 891
GlyphClass: 2
Flags: W
LayerCount: 2
Fore
SplineSet
379 577 m 1,0,-1
 772 577 l 1,1,2
 805 720 805 720 776 782 c 0,3,4
 740 861 740 861 646 861 c 0,5,6
 555 861 555 861 469 780 c 0,7,8
 414 729 414 729 379 577 c 1,0,-1
266 663 m 0,9,10
 301 813 301 813 442 918 c 0,11,12
 560 1009 560 1009 677 1009 c 0,13,14
 817 1009 817 1009 888 890 c 0,15,16
 948 792 948 792 924 686 c 2,17,-1
 882 504 l 2,18,19
 866 435 866 435 806 435 c 2,20,-1
 345 435 l 1,21,-1
 317 314 l 2,22,23
 278 146 278 146 412 146 c 2,24,-1
 726 146 l 2,25,26
 802 146 802 146 785 72 c 0,27,28
 768 0 768 0 691 0 c 2,29,-1
 374 0 l 2,30,31
 270 0 270 0 212 92 c 0,32,33
 154 179 154 179 182 300 c 2,34,35
 266 663 l 0,9,10
EndSplineSet
Validated: 33
EndChar

StartChar: f
Encoding: 102 102 73
Width: 789
GlyphClass: 2
Flags: W
LayerCount: 2
Fore
SplineSet
931 1518 m 2,0,1
 997 1518 997 1518 980 1445 c 0,2,3
 963 1370 963 1370 892 1370 c 2,4,-1
 855 1370 l 2,5,6
 797 1370 797 1370 742 1322 c 0,7,8
 681 1268 681 1268 660 1179 c 2,9,-1
 621 1009 l 1,10,-1
 808 1009 l 2,11,12
 880 1009 880 1009 863 935 c 0,13,14
 847 865 847 865 774 865 c 2,15,-1
 587 865 l 1,16,-1
 404 76 l 2,17,18
 387 4 387 4 319 4 c 0,19,20
 259 4 259 4 277 82 c 2,21,-1
 458 865 l 1,22,-1
 388 865 l 2,23,24
 329 865 329 865 346 938 c 0,25,26
 362 1009 362 1009 425 1009 c 2,27,-1
 491 1009 l 1,28,-1
 530 1179 l 2,29,30
 562 1319 562 1319 655 1408 c 0,31,32
 770 1518 770 1518 867 1518 c 2,33,-1
 931 1518 l 2,0,1
EndSplineSet
Validated: 33
EndChar

StartChar: g
Encoding: 103 103 74
Width: 905
GlyphClass: 2
Flags: W
LayerCount: 2
Fore
SplineSet
597 911 m 2,0,1
 537 911 537 911 483 867 c 0,2,3
 428 822 428 822 410 743 c 2,4,-1
 314 326 l 2,5,6
 293 236 293 236 320 189 c 0,7,8
 345 145 345 145 414 145 c 2,9,-1
 668 145 l 1,10,-1
 844 911 l 1,11,-1
 597 911 l 2,0,1
621 1057 m 2,12,13
 940 1057 l 0,14,15
 1007 1057 1007 1057 988 975 c 2,16,17
 721 -181 l 0,18,19
 695 -295 695 -295 600 -376 c 0,20,21
 509 -456 509 -456 408 -456 c 2,22,23
 142 -456 l 0,24,25
 73 -456 73 -456 89 -385 c 0,26,27
 106 -311 106 -311 176 -311 c 2,28,29
 393 -311 l 0,30,31
 560 -311 560 -311 592 -169 c 2,32,-1
 631 0 l 1,33,34
 355 0 l 0,35,36
 249 0 249 0 203 91 c 0,37,38
 155 181 155 181 183 306 c 2,39,40
 289 764 l 0,41,42
 317 887 317 887 412 969 c 0,43,44
 510 1057 510 1057 621 1057 c 2,12,13
EndSplineSet
Validated: 33
EndChar

StartChar: h
Encoding: 104 104 75
Width: 906
GlyphClass: 2
Flags: W
LayerCount: 2
Fore
SplineSet
459 1426 m 2,0,1
 480 1515 480 1515 546 1515 c 0,2,3
 609 1515 609 1515 587 1420 c 2,4,-1
 492 1007 l 1,5,-1
 756 1007 l 2,6,7
 859 1007 859 1007 924 919 c 0,8,9
 977 849 977 849 949 723 c 2,10,-1
 800 80 l 2,11,12
 783 6 783 6 725 6 c 0,13,14
 656 6 656 6 674 81 c 2,15,-1
 817 701 l 2,16,17
 854 863 854 863 703 863 c 2,18,-1
 459 863 l 1,19,-1
 279 82 l 2,20,21
 261 6 261 6 194 6 c 0,22,23
 132 6 132 6 151 92 c 2,24,-1
 459 1426 l 2,0,1
EndSplineSet
Validated: 33
EndChar

StartChar: i
Encoding: 105 105 76
Width: 402
GlyphClass: 2
Flags: W
LayerCount: 2
Fore
SplineSet
487 980 m 2,0,-1
 281 88 l 2,1,2
 262 5 262 5 198 5 c 0,3,4
 131 5 131 5 150 86 c 2,5,-1
 356 979 l 2,6,7
 375 1061 375 1061 441 1061 c 0,8,9
 506 1061 506 1061 487 980 c 2,0,-1
466 1445 m 2,10,11
 482 1515 482 1515 544 1515 c 0,12,13
 610 1515 610 1515 592 1440 c 2,14,-1
 577 1375 l 2,15,16
 559 1297 559 1297 492 1297 c 0,17,18
 432 1297 432 1297 449 1370 c 2,19,-1
 466 1445 l 2,10,11
EndSplineSet
Validated: 33
EndChar

StartChar: j
Encoding: 106 106 77
Width: 385
GlyphClass: 2
Flags: W
LayerCount: 2
Fore
SplineSet
354 979 m 2,0,1
 371 1054 371 1054 435.5 1054 c 128,-1,2
 500 1054 500 1054 483 980 c 2,3,-1
 217 -171 l 2,4,5
 192 -280 192 -280 99 -363 c 0,6,7
 -2 -456 -2 -456 -96 -456 c 2,8,-1
 -170 -456 l 2,9,10
 -235 -456 -235 -456 -218 -382 c 0,11,12
 -202 -311 -202 -311 -141 -311 c 2,13,-1
 -66 -311 l 2,14,15
 -23 -311 -23 -311 31 -259 c 0,16,17
 78 -214 78 -214 91 -160 c 2,18,-1
 354 979 l 2,0,1
459 1434 m 2,19,20
 478 1515 478 1515 548 1515 c 0,21,22
 607 1515 607 1515 587 1429 c 2,23,-1
 572 1367 l 2,24,25
 555 1295 555 1295 491 1295 c 128,-1,26
 427 1295 427 1295 442 1362 c 2,27,-1
 459 1434 l 2,19,20
EndSplineSet
Validated: 33
EndChar

StartChar: k
Encoding: 107 107 78
Width: 879
GlyphClass: 2
Flags: W
LayerCount: 2
Fore
SplineSet
460 1429 m 2,0,1
 479 1510 479 1510 542 1510 c 0,2,3
 607 1510 607 1510 588 1429 c 2,4,-1
 413 672 l 1,5,-1
 907 1034 l 2,6,7
 939 1054 939 1054 965 1054 c 0,8,9
 1026 1054 1026 1054 1009 984 c 0,10,11
 1001 950 1001 950 966 924 c 2,12,-1
 668 705 l 1,13,-1
 796 112 l 2,14,15
 801 90 801 90 797 71 c 0,16,17
 781 0 781 0 714 0 c 0,18,19
 682 0 682 0 672 40 c 2,20,-1
 548 618 l 1,21,-1
 375 488 l 1,22,-1
 280 79 l 2,23,24
 262 3 262 3 197 3 c 0,25,26
 130 3 130 3 148 78 c 2,27,-1
 460 1429 l 2,0,1
EndSplineSet
Validated: 33
EndChar

StartChar: l
Encoding: 108 108 79
Width: 487
GlyphClass: 2
Flags: W
LayerCount: 2
Fore
SplineSet
460 1432 m 0,0,1
 478 1511 478 1511 550 1511 c 0,2,3
 609 1511 609 1511 590 1429 c 2,4,5
 320 259 l 0,6,7
 294 148 294 148 353 148 c 0,8,9
 424 148 424 148 406 73 c 0,10,11
 389 0 389 0 323 0 c 0,12,13
 244 0 244 0 201 71 c 0,14,15
 161 135 161 135 184 235 c 2,16,17
 460 1432 l 0,0,1
EndSplineSet
Validated: 33
EndChar

StartChar: m
Encoding: 109 109 80
Width: 1153
GlyphClass: 2
Flags: W
LayerCount: 2
Fore
SplineSet
330 942 m 2,0,1
 338 975 338 975 366 998 c 0,2,3
 384 1012 384 1012 421 1012 c 2,4,5
 988 1012 l 0,6,7
 1100 1012 1100 1012 1156 938 c 0,8,9
 1226 851 1226 851 1200 737 c 2,10,11
 1050 88 l 0,12,13
 1031 4 1031 4 969 4 c 0,14,15
 900 4 900 4 920 90 c 2,16,17
 1065 717 l 0,18,19
 1080 782 1080 782 1052 820 c 0,20,21
 1020 864 1020 864 958 864 c 2,22,-1
 837 864 l 1,23,-1
 658 89 l 2,24,25
 639 7 639 7 576 7 c 0,26,27
 505 7 505 7 522 82 c 2,28,-1
 703 864 l 1,29,-1
 440 864 l 1,30,-1
 258 77 l 2,31,32
 241 5 241 5 177.5 5.5 c 128,-1,33
 114 6 114 6 129 73 c 2,34,-1
 330 942 l 2,0,1
EndSplineSet
Validated: 33
EndChar

StartChar: n
Encoding: 110 110 81
Width: 887
GlyphClass: 2
Flags: W
LayerCount: 2
Fore
SplineSet
329 939 m 0,0,1
 345 1010 345 1010 411 1010 c 2,2,3
 742 1010 l 0,4,5
 847 1010 847 1010 910 918 c 0,6,7
 960 849 960 849 934 736 c 2,8,9
 787 98 l 0,10,11
 766 7 766 7 704 7 c 0,12,13
 636 7 636 7 658 99 c 2,14,15
 801 718 l 0,16,17
 817 787 817 787 790 820 c 0,18,19
 759 861 759 861 712 861 c 2,20,21
 437 861 l 1,22,-1
 258 87 l 2,23,24
 240 8 240 8 178 8 c 0,25,26
 115 8 115 8 133 87 c 2,27,28
 132 87 132 87 329 939 c 0,0,1
EndSplineSet
Validated: 33
EndChar

StartChar: o
Encoding: 111 111 82
Width: 885
GlyphClass: 2
Flags: W
LayerCount: 2
Fore
SplineSet
496 813 m 0,0,1
 415 758 415 758 388 643 c 2,2,-1
 322 357 l 2,3,4
 298 252 298 252 377 187 c 0,5,6
 423 150 423 150 477.5 150 c 128,-1,7
 532 150 532 150 598 191 c 0,8,9
 696 252 696 252 727 386 c 2,10,-1
 781 623 l 2,11,12
 808 741 808 741 759 805 c 0,13,14
 712 866 712 866 643.5 866 c 128,-1,15
 575 866 575 866 496 813 c 0,0,1
661 1010 m 0,16,17
 805 1010 805 1010 873 910 c 0,18,19
 949 805 949 805 921 686 c 2,20,-1
 845 356 l 2,21,22
 808 196 808 196 677 95 c 0,23,24
 567 8 567 8 439 8 c 0,25,26
 303 8 303 8 244 99 c 0,27,28
 163 216 163 216 196 360 c 2,29,-1
 267 671 l 2,30,31
 302 824 302 824 452 931 c 0,32,33
 557 1010 557 1010 661 1010 c 0,16,17
EndSplineSet
Validated: 33
EndChar

StartChar: p
Encoding: 112 112 83
Width: 913
GlyphClass: 2
Flags: W
LayerCount: 2
Fore
SplineSet
568 144 m 2,0,1
 624 144 624 144 678 205 c 0,2,3
 713 245 713 245 727 306 c 2,4,-1
 829 744 l 2,5,6
 846 816 846 816 819 861 c 0,7,8
 792 908 792 908 735 908 c 2,9,-1
 470 908 l 1,10,-1
 294 144 l 1,11,-1
 568 144 l 2,0,1
354 969 m 0,12,13
 374 1054 374 1054 449 1054 c 2,14,15
 781 1054 l 0,16,17
 881 1054 881 1054 938 955 c 0,18,19
 989 869 989 869 962 749 c 2,20,21
 864 327 l 0,22,23
 831 185 831 185 749 103 c 0,24,25
 648 0 648 0 540 0 c 2,26,-1
 261 0 l 1,27,-1
 176 -365 l 2,28,29
 155 -456 155 -456 86 -456 c 0,30,31
 25 -456 25 -456 46 -361 c 2,32,33
 47 -361 47 -361 354 969 c 0,12,13
EndSplineSet
Validated: 33
EndChar

StartChar: q
Encoding: 113 113 84
Width: 913
GlyphClass: 2
Flags: W
LayerCount: 2
Fore
SplineSet
399 140 m 2,0,1
 674 140 l 1,2,-1
 850 904 l 1,3,-1
 585 904 l 2,4,5
 528 904 528 904 479 857 c 0,6,7
 433 812 433 812 416 740 c 2,8,-1
 315 302 l 2,9,10
 301 241 301 241 317 201 c 0,11,12
 343 140 343 140 399 140 c 2,0,1
994 965 m 2,13,-1
 687 -365 l 2,14,15
 665 -460 665 -460 604 -460 c 0,16,17
 535 -460 535 -460 556 -369 c 2,18,-1
 640 -4 l 1,19,-1
 360 -4 l 2,20,21
 252 -4 252 -4 199 99 c 0,22,23
 154 181 154 181 187 323 c 2,24,-1
 285 745 l 2,25,26
 313 867 313 867 404 951 c 0,27,28
 506 1048 506 1048 605 1048 c 2,29,-1
 938 1048 l 2,30,31
 1013 1048 1013 1048 994 965 c 2,13,-1
EndSplineSet
Validated: 33
EndChar

StartChar: r
Encoding: 114 114 85
Width: 734
GlyphClass: 2
Flags: W
LayerCount: 2
Fore
SplineSet
327 930 m 0,0,1
 345 1008 345 1008 421 1008 c 2,2,3
 797 1008 l 0,4,5
 872 1008 872 1008 856 941 c 2,6,7
 823 798 l 0,8,9
 804 717 804 717 746 718 c 0,10,11
 675 718 675 718 692 791 c 2,12,13
 708 861 l 1,14,-1
 443 861 l 1,15,-1
 262 77 l 2,16,17
 245 3 245 3 176 3 c 0,18,19
 113 3 113 3 131 81 c 2,20,21
 327 930 l 0,0,1
EndSplineSet
Validated: 33
EndChar

StartChar: s
Encoding: 115 115 86
Width: 836
GlyphClass: 2
Flags: W
LayerCount: 2
Fore
SplineSet
847 935 m 0,0,1
 883 910 883 910 873 871 c 0,2,3
 855 795 855 795 797 795 c 0,4,5
 781 795 781 795 751 809 c 0,6,7
 633 864 633 864 537 864 c 0,8,9
 416 864 416 864 389 748 c 0,10,11
 374 681 374 681 431 648 c 2,12,-1
 712 485 l 2,13,14
 837 414 837 414 801 257 c 0,15,16
 772 132 772 132 649 46 c 0,17,18
 588 4 588 4 509 4 c 0,19,20
 348 4 348 4 161 80 c 0,21,22
 109 101 109 101 121 150 c 0,23,24
 137 219 137 219 194 219 c 0,25,26
 227 219 227 219 259 204 c 0,27,28
 376 150 376 150 522 150 c 0,29,30
 573 150 573 150 604 169 c 0,31,32
 657 201 657 201 672 267 c 0,33,34
 687 331 687 331 616 372 c 2,35,-1
 347 532 l 2,36,37
 225 604 225 604 264 768 c 0,38,39
 286 863 286 863 364 934 c 0,40,41
 448 1010 448 1010 551 1010 c 0,42,43
 740 1010 740 1010 847 935 c 0,0,1
EndSplineSet
Validated: 33
EndChar

StartChar: t
Encoding: 116 116 87
Width: 618
GlyphClass: 2
Flags: W
LayerCount: 2
Fore
SplineSet
512 1435 m 2,0,1
 530 1511 530 1511 596 1511 c 0,2,3
 657 1511 657 1511 639 1431 c 2,4,5
 552 1054 l 1,6,7
 747 1054 l 0,8,9
 814 1054 814 1054 796 976 c 0,10,11
 781 912 781 912 713 912 c 2,12,-1
 519 912 l 1,13,-1
 326 77 l 2,14,15
 308 0 308 0 244 0 c 128,-1,16
 180 0 180 0 200 84 c 2,17,-1
 391 912 l 1,18,-1
 326 912 l 2,19,20
 263 912 263 912 279 982 c 0,21,22
 296 1054 296 1054 358 1054 c 2,23,-1
 424 1054 l 1,24,-1
 512 1435 l 2,0,1
EndSplineSet
Validated: 33
EndChar

StartChar: u
Encoding: 117 117 88
Width: 888
GlyphClass: 2
Flags: W
LayerCount: 2
Fore
SplineSet
337 971 m 0,0,1
 357 1058 357 1058 421 1058 c 0,2,3
 484 1058 484 1058 463 969 c 2,4,5
 310 305 l 0,6,7
 294 236 294 236 322 193 c 0,8,9
 352 147 352 147 403 147 c 2,10,-1
 671 147 l 1,11,-1
 862 975 l 2,12,13
 880 1054 880 1054 947 1054 c 0,14,15
 1009 1054 1009 1054 990 973 c 2,16,-1
 784 82 l 2,17,18
 765 0 765 0 699 0 c 2,19,-1
 361 0 l 2,20,21
 257 0 257 0 202 94 c 0,22,23
 153 175 153 175 182 302 c 2,24,25
 183 302 183 302 337 971 c 0,0,1
EndSplineSet
Validated: 33
EndChar

StartChar: v
Encoding: 118 118 89
Width: 831
GlyphClass: 2
Flags: W
LayerCount: 2
Fore
SplineSet
842 1001 m 0,0,1
 869 1054 869 1054 918 1054 c 0,2,3
 979 1054 979 1054 965 992 c 0,4,5
 961 973 961 973 950 952 c 2,6,7
 491 68 l 0,8,9
 456 0 456 0 412 0 c 0,10,11
 366 0 366 0 362 60 c 2,12,13
 312 944 l 0,14,15
 310 971 310 971 314 987 c 0,16,17
 329 1054 329 1054 404 1054 c 0,18,19
 438 1054 438 1054 441 989 c 2,20,21
 479 306 l 1,22,23
 842 1001 l 0,0,1
EndSplineSet
Validated: 33
EndChar

StartChar: w
Encoding: 119 119 90
Width: 1086
GlyphClass: 2
Flags: W
LayerCount: 2
Fore
SplineSet
1097 986 m 2,0,1
 1130 1058 1130 1058 1176 1058 c 0,2,3
 1236 1058 1236 1058 1221 992 c 0,4,5
 1217 974 1217 974 1208 954 c 2,6,7
 818 71 l 0,8,9
 787 0 787 0 738 0 c 0,10,11
 690 0 690 0 683 66 c 2,12,13
 646 475 l 1,14,-1
 422 65 l 2,15,16
 387 0 387 0 346 0 c 0,17,18
 295 0 295 0 296 62 c 2,19,20
 308 925 l 0,21,22
 308 960 308 960 314 985 c 0,23,24
 330 1054 330 1054 398 1054 c 0,25,26
 439 1054 439 1054 438 998 c 2,27,28
 430 324 l 1,29,30
 639 697 l 0,31,32
 670 752 670 752 712 752 c 0,33,34
 757 752 757 752 762 691 c 2,35,36
 794 328 l 1,37,-1
 1097 986 l 2,0,1
EndSplineSet
Validated: 33
EndChar

StartChar: x
Encoding: 120 120 91
Width: 849
GlyphClass: 2
Flags: W
LayerCount: 2
Fore
SplineSet
469 527 m 1,0,1
 318 940 l 0,2,3
 309 964 309 964 314 985 c 0,4,5
 331 1057 331 1057 400 1057 c 0,6,7
 430 1057 430 1057 443 1021 c 2,8,-1
 574 659 l 1,9,-1
 873 1021 l 2,10,11
 901 1054 901 1054 936 1054 c 0,12,13
 996 1054 996 1054 981 991 c 0,14,15
 973 955 973 955 954 931 c 2,16,17
 620 528 l 1,18,19
 764 134 l 0,20,21
 777 95 777 95 771 72 c 0,22,23
 754 0 754 0 693 0 c 0,24,25
 656 0 656 0 644 35 c 2,26,27
 516 399 l 1,28,29
 219 39 l 0,30,31
 187 0 187 0 154 0 c 0,32,33
 86 0 86 0 102 68 c 0,34,35
 108 95 108 95 131 123 c 2,36,37
 469 527 l 1,0,1
EndSplineSet
Validated: 33
EndChar

StartChar: y
Encoding: 121 121 92
Width: 849
GlyphClass: 2
Flags: W
LayerCount: 2
Fore
SplineSet
952 915 m 2,0,-1
 263 -387 l 2,1,2
 227 -456 227 -456 168 -456 c 2,3,4
 53 -456 l 0,5,6
 -19 -456 -19 -456 -2 -385 c 0,7,8
 15 -311 15 -311 90 -311 c 2,9,-1
 165 -311 l 1,10,11
 361 61 l 1,12,-1
 311 920 l 2,13,14
 308 957 308 957 314 985 c 0,15,16
 330 1054 330 1054 395 1054 c 0,17,18
 441 1054 441 1054 445 985 c 2,19,-1
 485 296 l 1,20,-1
 857 993 l 2,21,22
 890 1054 890 1054 932 1054 c 0,23,24
 998 1054 998 1054 982 985 c 0,25,26
 977 963 977 963 952 915 c 2,0,-1
EndSplineSet
Validated: 33
EndChar

StartChar: z
Encoding: 122 122 93
Width: 848
GlyphClass: 2
Flags: W
LayerCount: 2
Fore
SplineSet
310 154 m 1,0,-1
 717 154 l 2,1,2
 786 154 786 154 766 69 c 0,3,4
 750 0 750 0 681 0 c 2,5,-1
 168 0 l 2,6,7
 87 0 87 0 104 75 c 0,8,9
 110 101 110 101 137 132 c 2,10,-1
 766 863 l 1,11,-1
 353 863 l 2,12,13
 287 863 287 863 303 934 c 0,14,15
 321 1011 321 1011 388 1011 c 2,16,-1
 896 1011 l 2,17,18
 987 1011 987 1011 971 941 c 0,19,20
 966 917 966 917 946 895 c 2,21,-1
 310 154 l 1,0,-1
EndSplineSet
Validated: 33
EndChar

StartChar: braceleft
Encoding: 123 123 94
Width: 594
GlyphClass: 2
Flags: W
LayerCount: 2
Fore
SplineSet
815.5 1675 m 128,-1,1
 889 1675 889 1675 873 1606 c 0,2,3
 857 1538 857 1538 790 1529 c 0,4,5
 715 1518 715 1518 698 1445 c 2,6,-1
 575 914 l 2,7,8
 558 842 558 842 487 767 c 1,9,10
 526 716 526 716 505 626 c 2,11,12
 383 98 l 0,13,14
 364 14 364 14 437 4 c 0,15,16
 503 -5 503 -5 488 -71 c 0,17,18
 473 -138 473 -138 395 -138 c 0,19,20
 306 -138 306 -138 265 -68 c 0,21,22
 227 -3 227 -3 251 100 c 2,23,24
 371 619 l 0,25,26
 386 684 386 684 313 695 c 0,27,28
 254 704 254 704 268 768 c 0,29,30
 285 840 285 840 349 840 c 0,31,32
 422 840 422 840 438 912 c 2,33,-1
 567 1469 l 2,34,35
 586 1550 586 1550 665 1614 c 0,36,0
 742 1675 742 1675 815.5 1675 c 128,-1,1
EndSplineSet
Validated: 33
EndChar

StartChar: bar
Encoding: 124 124 95
Width: 414
GlyphClass: 2
Flags: W
LayerCount: 2
Fore
SplineSet
149 -228 m 0,0,1
 84 -228 84 -228 106 -130 c 2,2,-1
 518 1654 l 2,3,4
 539 1746 539 1746 611 1746 c 0,5,6
 681 1746 681 1746 659 1653 c 2,7,-1
 247 -133 l 2,8,9
 225 -228 225 -228 149 -228 c 0,0,1
EndSplineSet
Validated: 33
EndChar

StartChar: braceright
Encoding: 125 125 96
Width: 594
GlyphClass: 2
Flags: W
LayerCount: 2
Fore
SplineSet
553 1675 m 0,0,1
 627 1675 627 1675 676 1614 c 0,2,3
 726 1550 726 1550 707 1469 c 2,4,-1
 579 912 l 2,5,6
 562 840 562 840 635 840 c 0,7,8
 698 840 698 840 681 768 c 0,9,10
 666 704 666 704 603 695 c 0,11,12
 524 684 524 684 509 619 c 2,13,-1
 389 100 l 2,14,15
 365 -3 365 -3 299 -68 c 0,16,17
 227 -138 227 -138 137 -138 c 0,18,19
 59 -138 59 -138 75 -71 c 0,20,21
 90 -5 90 -5 160 4 c 0,22,23
 239 14 239 14 258 98 c 2,24,-1
 380 626 l 2,25,26
 401 716 401 716 462 767 c 1,27,28
 424 842 424 842 442 914 c 2,29,-1
 564 1445 l 2,30,31
 581 1519 581 1519 511 1529 c 0,32,33
 448 1538 448 1538 464 1606 c 0,34,35
 480 1675 480 1675 553 1675 c 0,0,1
EndSplineSet
Validated: 33
EndChar

StartChar: asciitilde
Encoding: 126 126 97
Width: 883
GlyphClass: 2
Flags: W
LayerCount: 2
Fore
SplineSet
842 826 m 0,0,1
 883 865 883 865 928 865 c 0,2,3
 992 865 992 865 975 790 c 0,4,5
 969 765 969 765 926 730 c 0,6,7
 828 649 828 649 729 649 c 0,8,9
 643 649 643 649 597 710 c 0,10,11
 530 798 530 798 482 798 c 0,12,13
 453 798 453 798 402.5 761 c 128,-1,14
 352 724 352 724 324 724 c 0,15,16
 258 724 258 724 277 806 c 0,17,18
 282 828 282 828 321 858 c 0,19,20
 428 942 428 942 517 942 c 0,21,22
 609 942 609 942 678 856 c 0,23,24
 729 793 729 793 762 793 c 0,25,26
 807 793 807 793 842 826 c 0,0,1
EndSplineSet
Validated: 33
EndChar

StartChar: exclamdown
Encoding: 161 161 99
Width: 412
GlyphClass: 2
Flags: W
LayerCount: 2
Fore
SplineSet
461.5 1408.5 m 128,-1,1
 487 1519 487 1519 557 1519 c 128,-1,2
 627 1519 627 1519 602 1413 c 0,3,4
 575 1298 575 1298 502 1298 c 0,5,0
 436 1298 436 1298 461.5 1408.5 c 128,-1,1
451.5 1063 m 128,-1,7
 521 1063 521 1063 499 968 c 2,8,-1
 299 100 l 2,9,10
 278 7 278 7 208 7 c 128,-1,11
 138 7 138 7 159 99 c 2,12,-1
 360 968 l 2,13,6
 382 1063 382 1063 451.5 1063 c 128,-1,7
EndSplineSet
Validated: 33
EndChar

StartChar: cent
Encoding: 162 162 100
Width: 906
GlyphClass: 2
Flags: W
LayerCount: 2
Fore
SplineSet
984 1059 m 2,0,1
 1060 1059 1060 1059 1044 989 c 0,2,3
 1027 914 1027 914 951 914 c 2,4,-1
 824 914 l 1,5,-1
 647 148 l 1,6,-1
 769 148 l 2,7,8
 850 148 850 148 832 71 c 0,9,10
 816 0 816 0 739 0 c 2,11,-1
 613 0 l 1,12,-1
 580 -142 l 2,13,14
 561 -225 561 -225 494 -225 c 0,15,16
 424 -225 424 -225 443 -144 c 2,17,-1
 476 0 l 1,18,-1
 387 0 l 2,19,20
 275 0 275 0 216 92 c 0,21,22
 160 179 160 179 188 303 c 2,23,-1
 290 745 l 2,24,25
 322 884 322 884 415 964 c 0,26,27
 525 1059 525 1059 651 1059 c 2,28,-1
 721 1059 l 1,29,-1
 754 1201 l 2,30,31
 773 1283 773 1283 841 1283 c 0,32,33
 909 1283 909 1283 891 1202 c 2,34,-1
 858 1059 l 1,35,-1
 984 1059 l 2,0,1
511 148 m 1,36,-1
 687 914 l 1,37,-1
 631 914 l 2,38,39
 465 914 465 914 426 746 c 2,40,-1
 330 329 l 2,41,42
 288 148 288 148 444 148 c 2,43,-1
 511 148 l 1,36,-1
EndSplineSet
Validated: 33
EndChar

StartChar: sterling
Encoding: 163 163 101
Width: 1074
GlyphClass: 2
Flags: W
LayerCount: 2
Fore
SplineSet
471 1104 m 2,0,1
 516 1301 516 1301 661 1414 c 0,2,3
 778 1505 778 1505 921 1505 c 0,4,5
 1065 1505 1065 1505 1143 1384 c 0,6,7
 1211 1278 1211 1278 1178 1140 c 0,8,9
 1159 1059 1159 1059 1086 1059 c 0,10,11
 1030 1059 1030 1059 1043 1148 c 0,12,13
 1053 1223 1053 1223 1016 1290 c 0,14,15
 978 1361 978 1361 874 1361 c 0,16,17
 782 1361 782 1361 703 1288 c 0,18,19
 627 1218 627 1218 594 1074 c 2,20,-1
 536 821 l 1,21,-1
 722 821 l 2,22,23
 822 821 822 821 806 750 c 0,24,25
 789 675 789 675 689 675 c 2,26,-1
 505 675 l 1,27,-1
 422 318 l 2,28,29
 387 167 387 167 336 136 c 1,30,-1
 720 136 l 2,31,32
 803 136 803 136 845 177 c 0,33,34
 905 234 905 234 917 284 c 0,35,36
 935 362 935 362 1001 362 c 0,37,38
 1066 362 1066 362 1049 286 c 0,39,40
 1025 181 1025 181 937 93 c 0,41,42
 845 0 845 0 715 0 c 2,43,-1
 67 0 l 2,44,45
 0 0 0 0 14 62 c 0,46,47
 32 140 32 140 115 140 c 0,48,49
 175 140 175 140 228 193 c 0,50,51
 270 236 270 236 291 325 c 2,52,-1
 372 675 l 1,53,-1
 236 675 l 2,54,55
 156 675 156 675 172 745 c 0,56,57
 190 821 190 821 269 821 c 2,58,-1
 405 821 l 1,59,-1
 471 1104 l 2,0,1
EndSplineSet
Validated: 33
EndChar

StartChar: currency
Encoding: 164 164 102
Width: 1008
GlyphClass: 2
Flags: W
LayerCount: 2
Fore
SplineSet
819 519 m 0,0,1
 920 606 920 606 948.5 729 c 128,-1,2
 977 852 977 852 918 938 c 1,3,-1
 916 939 l 1,4,5
 856 1024 856 1024 742 1024 c 128,-1,6
 628 1024 628 1024 526 937 c 0,7,8
 428 850 428 850 400 729 c 0,9,10
 372 606 372 606 432 520 c 0,11,12
 493 432 493 432 606 432 c 128,-1,13
 719 432 719 432 819 519 c 0,0,1
274 729 m 0,14,15
 310 886 310 886 406 981 c 1,16,-1
 338 1077 l 2,17,18
 324 1097 324 1097 330.5 1125 c 128,-1,19
 337 1153 337 1153 360.5 1173 c 128,-1,20
 384 1193 384 1193 410 1193 c 128,-1,21
 436 1193 436 1193 450 1173 c 2,22,-1
 517 1077 l 1,23,24
 638 1160 638 1160 773 1160 c 128,-1,25
 908 1160 908 1160 992 1079 c 1,26,-1
 1101 1173 l 2,27,28
 1124 1193 1124 1193 1150 1193 c 128,-1,29
 1176 1193 1176 1193 1190 1173 c 128,-1,30
 1204 1153 1204 1153 1197.5 1125 c 128,-1,31
 1191 1097 1191 1097 1168 1077 c 2,32,-1
 1059 983 l 1,33,34
 1110 873 1110 873 1076 728 c 0,35,36
 1043 584 1043 584 939 473 c 1,37,-1
 1006 377 l 2,38,39
 1020 357 1020 357 1013.5 329 c 128,-1,40
 1007 301 1007 301 983 281 c 128,-1,41
 959 261 959 261 934 261 c 128,-1,42
 909 261 909 261 895 282 c 2,43,-1
 828 378 l 1,44,45
 710 297 710 297 575 297 c 0,46,47
 438 297 438 297 358 380 c 1,48,-1
 245 282 l 2,49,50
 222 262 222 262 196 262 c 128,-1,51
 170 262 170 262 154 281 c 0,52,53
 140 299 140 299 147 329 c 0,54,55
 153 357 153 357 177 377 c 2,56,-1
 290 475 l 1,57,58
 239 577 239 577 274 729 c 0,14,15
EndSplineSet
Validated: 33
EndChar

StartChar: section
Encoding: 167 167 103
Width: 987
GlyphClass: 2
Flags: W
LayerCount: 2
Fore
SplineSet
860 832 m 2,0,1
 673 932 l 0,2,3
 624 957 624 957 578 957 c 0,4,5
 465 957 465 957 438 842 c 0,6,7
 415 743 415 743 461 717 c 2,8,-1
 685 588 l 2,9,10
 729 564 729 564 762 564 c 0,11,12
 873 564 873 564 904 703 c 0,13,14
 926 797 926 797 860 832 c 2,0,1
1190 1523 m 0,15,16
 1236 1504 1236 1504 1223 1449 c 0,17,18
 1214 1408 1214 1408 1189 1388 c 0,19,20
 1163 1367 1163 1367 1139 1367 c 0,21,22
 1121 1367 1121 1367 918 1424 c 0,23,24
 830 1449 830 1449 717 1449 c 0,25,26
 580 1449 580 1449 546 1304 c 0,27,28
 526 1216 526 1216 689 1124 c 2,29,-1
 966 969 l 2,30,31
 1103 893 1103 893 1058 700 c 0,32,33
 1017 522 1017 522 877 453 c 1,34,35
 979 358 979 358 948 225 c 0,36,37
 912 68 912 68 778 -28 c 0,38,39
 693 -89 693 -89 545 -89 c 0,40,41
 358 -89 358 -89 172 -10 c 0,42,43
 99 21 99 21 112 74 c 0,44,45
 131 157 131 157 203 157 c 0,46,47
 243 157 243 157 372.5 114 c 128,-1,48
 502 71 502 71 603 71 c 0,49,50
 758 71 758 71 794 227 c 0,51,52
 812 305 812 305 676 382 c 2,53,-1
 380 546 l 2,54,55
 239 624 239 624 286 829 c 0,56,57
 324 993 324 993 461 1065 c 1,58,59
 364 1182 364 1182 393 1306 c 0,60,61
 414 1397 414 1397 496 1494 c 0,62,63
 600 1616 600 1616 765 1616 c 0,64,65
 966 1616 966 1616 1190 1523 c 0,15,16
EndSplineSet
Validated: 33
EndChar

StartChar: copyright
Encoding: 169 169 104
Width: 1268
GlyphClass: 2
Flags: W
LayerCount: 2
Fore
SplineSet
944 1282 m 2,0,-1
 991 1282 l 2,1,2
 1060 1282 1060 1282 1044 1215 c 0,3,4
 1026 1139 1026 1139 952 1139 c 2,5,-1
 910 1139 l 2,6,7
 819 1139 819 1139 781 1107 c 0,8,9
 737 1070 737 1070 728 1030 c 2,10,-1
 699 907 l 2,11,12
 685 847 685 847 710 808 c 0,13,14
 732 773 732 773 804 773 c 2,15,-1
 879 773 l 2,16,17
 946 773 946 773 930 705 c 0,18,19
 915 641 915 641 847 641 c 2,20,-1
 768 641 l 2,21,22
 666 641 666 641 602 729 c 0,23,24
 551 799 551 799 577 913 c 2,25,-1
 602 1023 l 2,26,27
 626 1128 626 1128 737 1218 c 0,28,29
 815 1282 815 1282 944 1282 c 2,0,-1
531 414 m 0,30,31
 365 502 365 502 316 665 c 0,32,33
 275 799 275 799 312 956 c 0,34,35
 349 1117 349 1117 451 1247 c 0,36,37
 538 1357 538 1357 704 1462 c 0,38,39
 828 1541 828 1541 993 1541 c 0,40,41
 1083 1541 1083 1541 1178 1503 c 0,42,43
 1336 1440 1336 1440 1394 1251 c 0,44,45
 1435 1117 1435 1117 1399 961 c 0,46,47
 1363 804 1363 804 1258 668 c 0,48,49
 1141 517 1141 517 1008 454 c 0,50,51
 842 376 842 376 718 376 c 0,52,53
 602 376 602 376 531 414 c 0,30,31
590 537 m 0,54,55
 653 502 653 502 754 502 c 0,56,57
 860 502 860 502 976 564 c 0,58,59
 1086 623 1086 623 1171 732 c 0,60,61
 1253 837 1253 837 1281.5 960 c 128,-1,62
 1310 1083 1310 1083 1278 1187 c 0,63,64
 1237 1322 1237 1322 1119 1380 c 0,65,66
 1050 1414 1050 1414 961 1414 c 0,67,68
 846 1414 846 1414 734 1352 c 0,69,70
 620 1289 620 1289 539 1182 c 0,71,72
 456 1073 456 1073 428 954 c 0,73,74
 400 832 400 832 436 715 c 0,75,76
 471 603 471 603 590 537 c 0,54,55
EndSplineSet
Validated: 33
EndChar

StartChar: guillemotleft
Encoding: 171 171 105
Width: 1022
GlyphClass: 2
Flags: W
LayerCount: 2
Fore
SplineSet
976 281 m 2,0,1
 990 254 990 254 984 225 c 0,2,3
 967 153 967 153 904 153 c 0,4,5
 870 153 870 153 854 185 c 2,6,-1
 659 553 l 2,7,8
 647 575 647 575 654 604 c 0,9,10
 661 634 661 634 691 665 c 2,11,-1
 1045 1024 l 2,12,13
 1078 1057 1078 1057 1112 1057 c 0,14,15
 1173 1057 1173 1057 1155 978 c 0,16,17
 1149 952 1149 952 1111 914 c 2,18,-1
 809 607 l 1,19,-1
 976 281 l 2,0,1
553 280 m 2,20,21
 567 253 567 253 560 224 c 0,22,23
 543 152 543 152 480 152 c 0,24,25
 446 152 446 152 430 184 c 2,26,-1
 235 552 l 2,27,28
 223 574 223 574 230 603 c 0,29,30
 237 633 237 633 268 664 c 2,31,-1
 622 1023 l 2,32,33
 655 1056 655 1056 688 1056 c 0,34,35
 749 1056 749 1056 731 977 c 0,36,37
 725 951 725 951 688 913 c 2,38,-1
 385 606 l 1,39,-1
 553 280 l 2,20,21
EndSplineSet
Validated: 33
EndChar

StartChar: registered
Encoding: 174 174 106
Width: 1268
GlyphClass: 2
Flags: W
LayerCount: 2
Fore
SplineSet
531 414 m 0,0,1
 365 502 365 502 316 665 c 0,2,3
 275 799 275 799 312 956 c 0,4,5
 349 1117 349 1117 451 1247 c 0,6,7
 538 1357 538 1357 704 1462 c 0,8,9
 828 1541 828 1541 993 1541 c 0,10,11
 1083 1541 1083 1541 1178 1503 c 0,12,13
 1336 1440 1336 1440 1394 1251 c 0,14,15
 1435 1117 1435 1117 1399 961 c 0,16,17
 1363 804 1363 804 1258 668 c 0,18,19
 1141 517 1141 517 1008 454 c 0,20,21
 842 376 842 376 718 376 c 0,22,23
 602 376 602 376 531 414 c 0,0,1
590 537 m 0,24,25
 653 502 653 502 754 502 c 0,26,27
 860 502 860 502 976 564 c 0,28,29
 1086 623 1086 623 1171 732 c 0,30,31
 1253 837 1253 837 1282 961 c 128,-1,32
 1311 1085 1311 1085 1279 1189 c 0,33,34
 1238 1324 1238 1324 1119 1380 c 0,35,36
 1047 1414 1047 1414 961 1414 c 0,37,38
 846 1414 846 1414 734 1352 c 0,39,40
 620 1289 620 1289 539 1182 c 0,41,42
 456 1073 456 1073 428 954 c 0,43,44
 400 832 400 832 436 715 c 0,45,46
 471 603 471 603 590 537 c 0,24,25
790 983 m 1,47,-1
 887 983 l 2,48,49
 945 983 945 983 975 1017 c 128,-1,50
 1005 1051 1005 1051 1014 1088 c 0,51,52
 1024 1131 1024 1131 1005 1159 c 0,53,54
 985 1189 985 1189 935 1189 c 2,55,-1
 838 1189 l 1,56,-1
 790 983 l 1,47,-1
808 1295 m 2,57,-1
 973 1295 l 2,58,59
 1049 1295 1049 1295 1096 1222 c 0,60,61
 1126 1174 1126 1174 1107 1094 c 0,62,63
 1097 1049 1097 1049 1064 997 c 0,64,65
 1021 928 1021 928 958 896 c 1,66,-1
 1019 683 l 2,67,68
 1020 677 1020 677 1015 653 c 0,69,70
 1007 619 1007 619 966 619 c 0,71,72
 923 619 923 619 916 644 c 2,73,-1
 853 879 l 1,74,-1
 765 879 l 1,75,-1
 716 667 l 2,76,77
 705 619 705 619 655 619 c 128,-1,78
 605 619 605 619 616 668 c 2,79,-1
 750 1246 l 2,80,81
 762 1295 762 1295 808 1295 c 2,57,-1
EndSplineSet
Validated: 33
EndChar

StartChar: degree
Encoding: 176 176 107
Width: 740
GlyphClass: 2
Flags: W
LayerCount: 2
Fore
SplineSet
780 1309 m 0,0,1
 754 1363 754 1363 680 1363 c 0,2,3
 620 1363 620 1363 561 1305 c 0,4,5
 520 1265 520 1265 506 1204 c 0,6,7
 491 1139 491 1139 525 1099 c 0,8,9
 561 1057 561 1057 612 1057 c 0,10,11
 664 1057 664 1057 733 1110 c 0,12,13
 777 1144 777 1144 792 1209 c 0,14,15
 804 1259 804 1259 780 1309 c 0,0,1
908 1406 m 0,16,17
 956 1327 956 1327 925 1196 c 0,18,19
 898 1079 898 1079 796 995 c 0,20,21
 692 909 692 909 577 909 c 0,22,23
 485 909 485 909 421 972 c 0,24,25
 335 1057 335 1057 368 1198 c 0,26,27
 403 1349 403 1349 519 1438 c 0,28,29
 613 1510 613 1510 710 1510 c 0,30,31
 845 1510 845 1510 908 1406 c 0,16,17
EndSplineSet
Validated: 33
EndChar

StartChar: plusminus
Encoding: 177 177 108
Width: 881
GlyphClass: 2
Flags: W
LayerCount: 2
Fore
SplineSet
251 385 m 2,0,1
 812 385 l 0,2,3
 879 385 879 385 861 308 c 0,4,5
 846 241 846 241 774 241 c 2,6,-1
 215 241 l 2,7,8
 146 241 146 241 164 316 c 0,9,10
 179 385 179 385 251 385 c 2,0,1
649 1173 m 2,11,12
 667 1253 667 1253 736 1253 c 0,13,14
 802 1253 802 1253 783 1167 c 2,15,-1
 733 950 l 1,16,-1
 932 950 l 2,17,18
 1010 950 1010 950 993 877 c 0,19,20
 977 808 977 808 897 808 c 2,21,-1
 697 808 l 1,22,-1
 646 589 l 2,23,24
 627 506 627 506 565 506 c 0,25,26
 495 506 495 506 514 587 c 2,27,-1
 565 808 l 1,28,-1
 356 808 l 2,29,30
 278 808 278 808 295 882 c 0,31,32
 311 951 311 951 391 951 c 2,33,-1
 598 951 l 1,34,-1
 649 1173 l 2,11,12
EndSplineSet
Validated: 33
EndChar

StartChar: uni00B2
Encoding: 178 178 109
Width: 607
GlyphClass: 2
Flags: W
LayerCount: 2
Fore
SplineSet
673 1300 m 0,0,1
 688 1366 688 1366 618 1366 c 0,2,3
 567 1366 567 1366 524 1295 c 0,4,5
 488 1236 488 1236 452 1236 c 0,6,7
 377 1236 377 1236 392 1305 c 0,8,9
 402 1349 402 1349 437 1388 c 0,10,11
 491 1448 491 1448 535 1476 c 0,12,13
 583 1507 583 1507 660 1507 c 0,14,15
 754 1507 754 1507 802 1422 c 0,16,17
 828 1375 828 1375 812 1305 c 0,18,19
 792 1217 792 1217 702 1126 c 2,20,-1
 524 953 l 1,21,-1
 645 953 l 2,22,23
 732 953 732 953 717 885 c 0,24,25
 699 807 699 807 622 807 c 2,26,-1
 351 807 l 2,27,28
 278 807 278 807 293 876 c 0,29,30
 299 903 299 903 350 953 c 2,31,-1
 637 1237 l 2,32,33
 665 1266 665 1266 673 1300 c 0,0,1
EndSplineSet
Validated: 33
EndChar

StartChar: uni00B3
Encoding: 179 179 110
Width: 620
GlyphClass: 2
Flags: W
LayerCount: 2
Fore
SplineSet
747 1196 m 1,0,1
 789 1122 789 1122 771 1044 c 0,2,3
 713 794 713 794 483 794 c 2,4,-1
 343 794 l 2,5,6
 274 794 274 794 290 864 c 0,7,8
 308 940 308 940 378 940 c 2,9,-1
 512 940 l 2,10,11
 611 940 611 940 631 1029 c 128,-1,12
 651 1118 651 1118 558 1118 c 2,13,-1
 424 1118 l 2,14,15
 350 1118 350 1118 368 1194 c 0,16,17
 385 1266 385 1266 462 1266 c 2,18,-1
 612 1266 l 2,19,20
 670 1266 670 1266 682 1319 c 0,21,22
 694 1369 694 1369 640 1369 c 2,23,-1
 486 1369 l 2,24,25
 407 1369 407 1369 424 1443.5 c 128,-1,26
 441 1518 441 1518 528 1518 c 2,27,-1
 685 1518 l 2,28,29
 760 1518 760 1518 805 1456 c 0,30,31
 839 1409 839 1409 820 1329 c 0,32,33
 800 1239 800 1239 747 1196 c 1,0,1
EndSplineSet
Validated: 33
EndChar

StartChar: paragraph
Encoding: 182 182 113
Width: 1127
GlyphClass: 2
Flags: W
LayerCount: 2
Fore
SplineSet
1252 1368 m 1,0,-1
 955 82 l 2,1,2
 936 0 936 0 867.5 0 c 128,-1,3
 799 0 799 0 818 82 c 2,4,-1
 938 602 l 1,5,-1
 798 602 l 1,6,-1
 679 84 l 2,7,8
 660 0 660 0 588.5 0 c 128,-1,9
 517 0 517 0 535 80 c 2,10,-1
 656 602 l 1,11,12
 492 602 492 602 394 722 c 0,13,14
 288 853 288 853 334 1054 c 0,15,16
 376 1234 376 1234 504 1360 c 0,17,18
 657 1510 657 1510 870 1510 c 2,19,-1
 1318 1510 l 2,20,21
 1385 1510 1385 1510 1369 1438 c 0,22,23
 1353 1368 1353 1368 1288 1368 c 2,24,-1
 1252 1368 l 1,0,-1
974 1365 m 1,25,-1
 833 751 l 1,26,-1
 972 751 l 1,27,-1
 1114 1365 l 1,28,-1
 974 1365 l 1,25,-1
832 1365 m 1,29,30
 685 1365 685 1365 590 1270 c 0,31,32
 506 1186 506 1186 476 1058 c 0,33,34
 447 934 447 934 496 848 c 0,35,36
 551 751 551 751 690 751 c 1,37,-1
 832 1365 l 1,29,30
EndSplineSet
Validated: 33
EndChar

StartChar: periodcentered
Encoding: 183 183 114
Width: 414
GlyphClass: 2
Flags: W
LayerCount: 2
Fore
SplineSet
275.5 602 m 128,-1,1
 300 709 300 709 365 709 c 0,2,3
 441 709 441 709 415 595 c 0,4,5
 392 495 392 495 321 495 c 0,6,0
 251 495 251 495 275.5 602 c 128,-1,1
EndSplineSet
Validated: 33
EndChar

StartChar: uni00B9
Encoding: 185 185 115
Width: 553
GlyphClass: 2
Flags: W
LayerCount: 2
Fore
SplineSet
622 1478 m 2,0,1
 658 1510 658 1510 695 1510 c 0,2,3
 765 1510 765 1510 746 1427 c 2,4,-1
 621 884 l 2,5,6
 601 799 601 799 534 799 c 0,7,8
 465 799 465 799 485 885 c 2,9,10
 574 1270 l 1,11,-1
 488 1194 l 2,12,13
 458 1167 458 1167 431 1167 c 0,14,15
 360 1167 360 1167 376 1234 c 0,16,17
 384 1267 384 1267 417 1297 c 2,18,-1
 622 1478 l 2,0,1
EndSplineSet
Validated: 33
EndChar

StartChar: guillemotright
Encoding: 187 187 116
Width: 1022
GlyphClass: 2
Flags: W
LayerCount: 2
Fore
SplineSet
175 274 m 2,0,1
 493 600 l 1,2,-1
 332 907 l 2,3,4
 312 945 312 945 318 971 c 0,5,6
 336 1050 336 1050 398 1050 c 0,7,8
 431 1050 431 1050 449 1017 c 2,9,-1
 637 658 l 2,10,11
 653 627 653 627 646 597 c 0,12,13
 639 568 639 568 618 546 c 2,14,-1
 253 178 l 2,15,16
 222 146 222 146 188 146 c 0,17,18
 125 146 125 146 141 218 c 0,19,20
 148 247 148 247 175 274 c 2,0,1
598 273 m 2,21,22
 916 599 l 1,23,-1
 755 906 l 2,24,25
 735 944 735 944 741 970 c 0,26,27
 759 1049 759 1049 821 1049 c 0,28,29
 854 1049 854 1049 871 1016 c 2,30,-1
 1060 657 l 2,31,32
 1076 626 1076 626 1069 596 c 0,33,34
 1062 567 1062 567 1041 545 c 2,35,-1
 676 177 l 2,36,37
 645 145 645 145 611 145 c 0,38,39
 548 145 548 145 564 217 c 0,40,41
 571 246 571 246 598 273 c 2,21,22
EndSplineSet
Validated: 33
EndChar

StartChar: onequarter
Encoding: 188 188 117
Width: 1219
GlyphClass: 2
Flags: W
LayerCount: 2
Fore
SplineSet
622 1478 m 2,0,1
 658 1510 658 1510 695 1510 c 0,2,3
 765 1510 765 1510 746 1427 c 2,4,-1
 621 884 l 2,5,6
 601 799 601 799 534 799 c 0,7,8
 465 799 465 799 485 885 c 2,9,10
 574 1270 l 1,11,-1
 488 1194 l 2,12,13
 458 1167 458 1167 431 1167 c 0,14,15
 360 1167 360 1167 376 1234 c 0,16,17
 384 1267 384 1267 417 1297 c 2,18,-1
 622 1478 l 2,0,1
242 67 m 0,19,20
 247 89 247 89 274 130 c 2,21,-1
 1119 1447 l 2,22,23
 1160 1510 1160 1510 1202 1510 c 0,24,25
 1269 1510 1269 1510 1253 1442 c 0,26,27
 1247 1414 1247 1414 1232 1391 c 2,28,-1
 380 62 l 2,29,30
 341 0 341 0 299 0 c 0,31,32
 227 0 227 0 242 67 c 0,19,20
864 663 m 2,33,34
 889 719 889 719 946 719 c 0,35,36
 1010 719 1010 719 994 650 c 0,37,38
 992 640 992 640 979 610 c 2,39,-1
 885 400 l 1,40,-1
 1008 400 l 1,41,-1
 1039 531 l 2,42,43
 1058 615 1058 615 1126 615 c 0,44,45
 1192 615 1192 615 1171 525 c 2,46,-1
 1142 400 l 1,47,-1
 1198 400 l 2,48,49
 1266 400 1266 400 1248 321 c 0,50,51
 1233 258 1233 258 1162 258 c 2,52,-1
 1109 258 l 1,53,-1
 1069 83 l 2,54,55
 1050 0 1050 0 981 0 c 0,56,57
 916 0 916 0 934 80 c 2,58,-1
 974 253 l 1,59,-1
 763 253 l 2,60,61
 727 253 727 253 712 318 c 0,62,63
 712 320 712 320 712 323 c 0,64,65
 721 344 721 344 742 390 c 2,66,-1
 864 663 l 2,33,34
EndSplineSet
Validated: 33
EndChar

StartChar: onehalf
Encoding: 189 189 118
Width: 1171
GlyphClass: 2
Flags: W
LayerCount: 2
Fore
SplineSet
1055 492 m 0,0,1
 1070 558 1070 558 1000 558 c 0,2,3
 949 558 949 558 906 487 c 0,4,5
 870 428 870 428 833 428 c 0,6,7
 758 428 758 428 774 497 c 0,8,9
 784 541 784 541 819 580 c 0,10,11
 873 640 873 640 917 668 c 0,12,13
 965 699 965 699 1042 699 c 0,14,15
 1136 699 1136 699 1183 614 c 0,16,17
 1209 567 1209 567 1193 497 c 0,18,19
 1173 409 1173 409 1083 318 c 2,20,-1
 906 145 l 1,21,-1
 1027 145 l 2,22,23
 1114 145 1114 145 1098 77 c 0,24,25
 1080 0 1080 0 1004 0 c 2,26,-1
 733 0 l 2,27,28
 660 0 660 0 675 68 c 0,29,30
 681 95 681 95 732 145 c 2,31,-1
 1019 429 l 2,32,33
 1047 458 1047 458 1055 492 c 0,0,1
622 1478 m 2,34,35
 658 1510 658 1510 695 1510 c 0,36,37
 765 1510 765 1510 746 1427 c 2,38,-1
 621 884 l 2,39,40
 601 799 601 799 534 799 c 0,41,42
 465 799 465 799 485 885 c 2,43,-1
 574 1270 l 1,44,-1
 488 1194 l 2,45,46
 458 1167 458 1167 431 1167 c 0,47,48
 360 1167 360 1167 376 1234 c 0,49,50
 384 1267 384 1267 417 1297 c 2,51,-1
 622 1478 l 2,34,35
242 67 m 0,52,53
 247 89 247 89 274 130 c 2,54,-1
 1119 1447 l 2,55,56
 1160 1510 1160 1510 1202 1510 c 0,57,58
 1269 1510 1269 1510 1253 1442 c 0,59,60
 1247 1414 1247 1414 1232 1391 c 2,61,-1
 380 62 l 2,62,63
 341 0 341 0 299 0 c 0,64,65
 227 0 227 0 242 67 c 0,52,53
EndSplineSet
Validated: 33
EndChar

StartChar: threequarters
Encoding: 190 190 119
Width: 1248
GlyphClass: 2
Flags: W
LayerCount: 2
Fore
SplineSet
747 1196 m 1,0,1
 789 1122 789 1122 771 1044 c 0,2,3
 713 794 713 794 483 794 c 2,4,-1
 343 794 l 2,5,6
 274 794 274 794 290 864 c 0,7,8
 308 940 308 940 378 940 c 2,9,-1
 512 940 l 2,10,11
 611 940 611 940 631 1029 c 128,-1,12
 651 1118 651 1118 558 1118 c 2,13,-1
 424 1118 l 2,14,15
 350 1118 350 1118 368 1194 c 0,16,17
 385 1266 385 1266 462 1266 c 2,18,-1
 612 1266 l 2,19,20
 670 1266 670 1266 682 1319 c 0,21,22
 694 1369 694 1369 640 1369 c 2,23,-1
 486 1369 l 2,24,25
 407 1369 407 1369 424 1443.5 c 128,-1,26
 441 1518 441 1518 528 1518 c 2,27,-1
 685 1518 l 2,28,29
 760 1518 760 1518 805 1456 c 0,30,31
 839 1409 839 1409 820 1329 c 0,32,33
 800 1239 800 1239 747 1196 c 1,0,1
894 663 m 2,34,35
 918 719 918 719 975 719 c 0,36,37
 1040 719 1040 719 1024 650 c 0,38,39
 1022 641 1022 641 1008 610 c 2,40,-1
 914 400 l 1,41,-1
 1038 400 l 1,42,-1
 1068 531 l 2,43,44
 1087 615 1087 615 1156 615 c 0,45,46
 1222 615 1222 615 1201 525 c 2,47,-1
 1172 400 l 1,48,-1
 1228 400 l 2,49,50
 1296 400 1296 400 1277 321 c 0,51,52
 1262 258 1262 258 1192 258 c 2,53,-1
 1139 258 l 1,54,-1
 1099 83 l 2,55,56
 1080 0 1080 0 1011 0 c 0,57,58
 946 0 946 0 964 80 c 2,59,-1
 1004 253 l 1,60,-1
 793 253 l 2,61,62
 757 253 757 253 742 318 c 0,63,64
 742 320 742 320 742 323 c 0,65,66
 748 339 748 339 772 390 c 2,67,-1
 894 663 l 2,34,35
266 67 m 0,68,69
 271 89 271 89 298 130 c 2,70,-1
 1143 1447 l 2,71,72
 1184 1510 1184 1510 1226 1510 c 0,73,74
 1294 1510 1294 1510 1279 1442 c 0,75,76
 1273 1414 1273 1414 1257 1391 c 2,77,-1
 404 62 l 2,78,79
 366 0 366 0 324 0 c 0,80,81
 252 0 252 0 266 67 c 0,68,69
EndSplineSet
Validated: 33
EndChar

StartChar: questiondown
Encoding: 191 191 120
Width: 880
GlyphClass: 2
Flags: W
LayerCount: 2
Fore
SplineSet
776 87 m 0,0,1
 585 0 585 0 371 0 c 0,2,3
 243 0 243 0 184 104 c 0,4,5
 135 190 135 190 161 304 c 0,6,7
 190 428 190 428 289 510 c 2,8,-1
 497 684 l 2,9,10
 543 722 543 722 557 781 c 2,11,-1
 601 971 l 2,12,13
 620 1054 620 1054 687 1054 c 128,-1,14
 754 1054 754 1054 736 976 c 2,15,-1
 689 772 l 2,16,17
 664 664 664 664 582 597 c 2,18,-1
 352 401 l 2,19,20
 315 369 315 369 303 316 c 0,21,22
 264 146 264 146 433 146 c 0,23,24
 543 146 543 146 722 207 c 0,25,26
 756 219 756 219 775 219 c 2,27,28
 777 219 l 0,29,30
 840 219 840 219 823 146 c 0,31,32
 813 104 813 104 776 87 c 0,0,1
833 1399 m 0,33,34
 808 1289 808 1289 747 1289 c 0,35,36
 676 1289 676 1289 702 1400 c 0,37,38
 727 1510 727 1510 792 1510 c 0,39,40
 859 1510 859 1510 833 1399 c 0,33,34
EndSplineSet
Validated: 33
EndChar

StartChar: AE
Encoding: 198 198 127
Width: 1450
GlyphClass: 2
Flags: W
LayerCount: 2
Fore
SplineSet
1116 1366 m 1,0,1
 946 1366 l 1,2,-1
 491 530 l 1,3,-1
 923 530 l 1,4,5
 1116 1366 l 1,0,1
857 1461 m 0,6,7
 886 1514 886 1514 933 1514 c 2,8,9
 1634 1514 l 0,10,11
 1707 1514 1707 1514 1690 1439 c 0,12,13
 1675 1372 1675 1372 1602 1372 c 2,14,15
 1249 1372 l 1,16,17
 1143 910 l 1,18,-1
 1428 910 l 2,19,20
 1494 910 1494 910 1477 834 c 0,21,22
 1461 765 1461 765 1394 765 c 2,23,-1
 1109 765 l 1,24,25
 967 148 l 1,26,-1
 1317 148 l 2,27,28
 1393 148 1393 148 1377 76 c 0,29,30
 1359 0 1359 0 1281 0 c 2,31,32
 859 0 l 0,33,34
 800 0 800 0 818 75 c 2,35,-1
 888 378 l 1,36,37
 413 378 l 1,38,-1
 242 68 l 2,39,40
 205 0 205 0 157 0 c 0,41,42
 135 0 135 0 117 16 c 0,43,44
 99 33 99 33 108 73 c 0,45,46
 113 94 113 94 139 144 c 2,47,48
 857 1461 l 0,6,7
EndSplineSet
Validated: 33
EndChar

StartChar: Eth
Encoding: 208 208 137
Width: 1192
GlyphClass: 2
Flags: W
LayerCount: 2
Fore
SplineSet
381 141 m 1,0,1
 726 141 l 0,2,3
 831 141 831 141 921 225 c 0,4,5
 985 285 985 285 1009 387 c 2,6,-1
 1182 1135 l 2,7,8
 1203 1225 1203 1225 1168 1282 c 0,9,10
 1117 1366 1117 1366 1015 1366 c 2,11,-1
 664 1366 l 1,12,-1
 540 829 l 1,13,-1
 682 829 l 2,14,15
 750 829 750 829 733 755 c 0,16,17
 715 679 715 679 637 679 c 2,18,19
 506 679 l 1,20,21
 505 679 505 679 381 141 c 1,0,1
541 1428 m 2,22,23
 560 1510 560 1510 638 1510 c 2,24,-1
 1042 1510 l 2,25,26
 1195 1510 1195 1510 1273 1403 c 0,27,28
 1354 1293 1354 1293 1319 1139 c 2,29,30
 1142 375 l 0,31,32
 1108 226 1108 226 986 112 c 0,33,34
 866 0 866 0 738 0 c 2,35,36
 274 0 l 0,37,38
 211 0 211 0 232 89 c 2,39,40
 368 679 l 1,41,42
 227 679 l 0,43,44
 156 679 156 679 173.5 754 c 128,-1,45
 191 829 191 829 264 829 c 2,46,-1
 402 829 l 1,47,-1
 541 1428 l 2,22,23
EndSplineSet
Validated: 33
EndChar

StartChar: multiply
Encoding: 215 215 144
Width: 886
GlyphClass: 2
Flags: W
LayerCount: 2
Fore
SplineSet
891 942 m 2,0,1
 924 970 924 970 947 970 c 0,2,3
 1018 970 1018 970 1000 891 c 0,4,5
 993 861 993 861 956 832 c 2,6,-1
 673 594 l 1,7,-1
 840 362 l 2,8,9
 869 324 869 324 861 287 c 0,10,11
 845 218 845 218 775 218 c 0,12,13
 752 218 752 218 718 263 c 2,14,-1
 555 491 l 1,15,-1
 285 256 l 2,16,17
 240 217 240 217 215 217 c 0,18,19
 142 217 142 217 158 285 c 0,20,21
 166 319 166 319 208 356 c 2,22,-1
 483 594 l 1,23,-1
 319 829 l 2,24,25
 292 868 292 868 297 893 c 0,26,27
 315 971 315 971 388 971 c 0,28,29
 417 971 417 971 442 933 c 2,30,-1
 603 697 l 1,31,-1
 891 942 l 2,0,1
EndSplineSet
Validated: 33
EndChar

StartChar: Oslash
Encoding: 216 216 145
Width: 1126
GlyphClass: 2
Flags: W
LayerCount: 2
Fore
SplineSet
393 1088 m 2,0,1
 431 1254 431 1254 583 1384 c 0,2,3
 736 1515 736 1515 912 1515 c 0,4,5
 1081 1515 1081 1515 1173 1385 c 0,6,7
 1201 1345 1201 1345 1218 1302 c 1,8,-1
 1303 1384 l 2,9,10
 1351 1431 1351 1431 1391 1431 c 0,11,12
 1457 1431 1457 1431 1442 1367 c 0,13,14
 1433 1330 1433 1330 1413 1310 c 2,15,-1
 1239 1144 l 1,16,17
 1237 1107 1237 1107 1227 1067 c 2,18,-1
 1086 456 l 2,19,20
 1041 260 1041 260 883 127 c 0,21,22
 732 0 732 0 556 0 c 0,23,24
 388 0 388 0 296 127 c 0,25,26
 269 164 269 164 253 204 c 1,27,-1
 175 130 l 2,28,29
 118 75 118 75 85 75 c 0,30,31
 17 75 17 75 33 144 c 0,32,33
 41 179 41 179 71 207 c 2,34,-1
 230 358 l 1,35,36
 232 392 232 392 240 428 c 2,37,-1
 393 1088 l 2,0,1
1074 987 m 1,38,-1
 375 320 l 1,39,40
 387 270 387 270 423 225 c 0,41,42
 485 148 485 148 587 148 c 0,43,44
 704 148 704 148 794 219 c 0,45,46
 920 319 920 319 951 452 c 2,47,-1
 1074 987 l 1,38,-1
398 519 m 1,48,-1
 1097 1187 l 1,49,50
 1087 1247 1087 1247 1047 1291 c 0,51,52
 978 1367 978 1367 867 1367 c 0,53,54
 775 1367 775 1367 669 1290 c 0,55,56
 557 1209 557 1209 524 1064 c 2,57,-1
 398 519 l 1,48,-1
EndSplineSet
Validated: 33
EndChar

StartChar: Thorn
Encoding: 222 222 151
Width: 952
GlyphClass: 2
Flags: W
LayerCount: 2
Fore
SplineSet
630 384 m 2,0,1
 790 384 790 384 829 554 c 2,2,-1
 928 983 l 2,3,4
 946 1060 946 1060 914 1105.5 c 128,-1,5
 882 1151 882 1151 814 1151 c 2,6,-1
 533 1151 l 1,7,-1
 356 384 l 1,8,-1
 630 384 l 2,0,1
328 240 m 1,9,-1
 294 95 l 2,10,11
 272 0 272 0 205 0 c 0,12,13
 136 0 136 0 158 95 c 2,14,-1
 467 1432 l 2,15,16
 484 1506 484 1506 548 1506 c 0,17,18
 617 1506 617 1506 600 1432 c 2,19,-1
 568 1294 l 1,20,-1
 875 1294 l 2,21,22
 993 1294 993 1294 1053 1180 c 0,23,24
 1090 1110 1090 1110 1069 1016 c 2,25,-1
 953 514 l 2,26,27
 926 396 926 396 827.5 318 c 128,-1,28
 729 240 729 240 609 240 c 2,29,-1
 328 240 l 1,9,-1
EndSplineSet
Validated: 33
EndChar

StartChar: germandbls
Encoding: 223 223 152
Width: 1055
GlyphClass: 2
Flags: W
LayerCount: 2
Fore
SplineSet
1170 1113 m 2,0,1
 1142 990 1142 990 1031 908 c 1,2,3
 1101 825 1101 825 1069 683 c 2,4,-1
 978 289 l 2,5,6
 951 172 951 172 848 82 c 0,7,8
 763 6 763 6 670 6 c 0,9,10
 592 6 592 6 609 79 c 0,11,12
 622 135 622 135 706 151 c 0,13,14
 825 173 825 173 864 340 c 2,15,-1
 936 655 l 2,16,17
 953 728 953 728 935 773 c 0,18,19
 909 835 909 835 851 835 c 0,20,21
 784 835 784 835 803 917 c 0,22,23
 819 986 819 986 896 986 c 0,24,25
 944 986 944 986 989 1034 c 0,26,27
 1032 1080 1032 1080 1045 1135 c 2,28,-1
 1064 1216 l 2,29,30
 1078 1278 1078 1278 1053 1318 c 0,31,32
 1022 1368 1022 1368 974 1368 c 2,33,-1
 728 1368 l 2,34,35
 653 1368 653 1368 600 1317 c 0,36,37
 552 1270 552 1270 539 1208 c 2,38,-1
 284 105 l 2,39,40
 261 4 261 4 196 4 c 128,-1,41
 131 4 131 4 153 102 c 2,42,-1
 412 1222 l 2,43,44
 441 1346 441 1346 551 1439 c 0,45,46
 642 1518 642 1518 764 1518 c 2,47,-1
 996 1518 l 2,48,49
 1124 1518 1124 1518 1170 1421 c 0,50,51
 1218 1323 1218 1323 1200 1244 c 2,52,-1
 1170 1113 l 2,0,1
EndSplineSet
Validated: 33
EndChar

StartChar: ae
Encoding: 230 230 159
Width: 1147
GlyphClass: 2
Flags: W
LayerCount: 2
Fore
SplineSet
587 454 m 1,0,1
 448 454 l 0,2,3
 396 454 396 454 342 401 c 0,4,5
 301 360 301 360 286 293 c 0,6,7
 270 225 270 225 300 186 c 0,8,9
 334 144 334 144 382 144 c 2,10,-1
 515 144 l 1,11,-1
 587 454 l 1,0,1
751 600 m 1,12,-1
 1013 600 l 1,13,-1
 1048 753 l 2,14,15
 1062 814 1062 814 1043 855 c 0,16,17
 1016 909 1016 909 952 909 c 0,18,19
 901 909 901 909 855 869 c 0,20,21
 803 824 803 824 788 763 c 2,22,-1
 751 600 l 1,12,-1
466 1054 m 2,23,-1
 593 1054 l 2,24,25
 708 1054 708 1054 766 949 c 1,26,27
 867 1054 867 1054 991 1054 c 0,28,29
 1099 1054 1099 1054 1161 953 c 0,30,31
 1209 876 1209 876 1178 743 c 2,32,-1
 1131 538 l 2,33,34
 1112 454 1112 454 1055 454 c 2,35,-1
 714 454 l 1,36,-1
 683 319 l 2,37,38
 664 236 664 236 699 188 c 0,39,40
 730 145 730 145 783 145 c 2,41,-1
 959 145 l 2,42,43
 1040 145 1040 145 1023 72 c 0,44,45
 1006 0 1006 0 927 0 c 2,46,-1
 734 0 l 2,47,48
 653 0 653 0 617 47 c 1,49,50
 593 0 593 0 545 0 c 2,51,-1
 330 0 l 2,52,53
 245 0 245 0 185 86 c 0,54,55
 126 170 126 170 154 290 c 0,56,57
 187 432 187 432 278 509 c 0,58,59
 380 595 380 595 456 595 c 2,60,-1
 619 595 l 1,61,-1
 655 750 l 2,62,63
 668 807 668 807 644 854 c 0,64,65
 615 909 615 909 561 909 c 2,66,-1
 433 909 l 2,67,68
 364 909 364 909 381 981.5 c 128,-1,69
 398 1054 398 1054 466 1054 c 2,23,-1
EndSplineSet
Validated: 33
EndChar

StartChar: eth
Encoding: 240 240 169
Width: 889
GlyphClass: 2
Flags: W
LayerCount: 2
Fore
SplineSet
722 358 m 2,0,1
 814 756 l 1,2,-1
 613 756 l 2,3,4
 529 756 529 756 458 686 c 0,5,6
 383 613 383 613 360 514 c 2,7,-1
 325 362 l 2,8,9
 302 264 302 264 343 212 c 0,10,11
 398 141 398 141 471 141 c 0,12,13
 556 141 556 141 612 195 c 0,14,15
 704 282 704 282 722 358 c 2,0,1
825 1414 m 1,16,-1
 917 1500 l 2,17,18
 944 1525 944 1525 967 1525 c 0,19,20
 994 1525 994 1525 1008 1496 c 0,21,22
 1020 1472 1020 1472 1014 1450 c 0,23,24
 1008 1423 1008 1423 977 1394 c 2,25,-1
 899 1322 l 1,26,27
 1019 1096 1019 1096 966 865 c 2,28,-1
 845 343 l 2,29,30
 814 210 814 210 695 106 c 0,31,32
 577 0 577 0 456 0 c 0,33,34
 307 0 307 0 246 93 c 0,35,36
 162 214 162 214 192 343 c 2,37,-1
 238 545 l 2,38,39
 266 668 266 668 380 777 c 0,40,41
 505 902 505 902 649 902 c 2,42,-1
 844 902 l 1,43,44
 870 1085 870 1085 788 1217 c 1,45,-1
 696 1130 l 2,46,47
 671 1105 671 1105 645 1105 c 0,48,49
 619 1105 619 1105 606 1130 c 0,50,51
 593 1154 593 1154 598 1178 c 0,52,53
 604 1205 604 1205 635 1234 c 2,54,-1
 712 1307 l 1,55,56
 672 1339 672 1339 618 1364 c 0,57,58
 569 1386 569 1386 580 1432 c 0,59,60
 598 1510 598 1510 659.5 1510 c 128,-1,61
 721 1510 721 1510 825 1414 c 1,16,-1
EndSplineSet
Validated: 33
EndChar

StartChar: divide
Encoding: 247 247 176
Width: 884
GlyphClass: 2
Flags: W
LayerCount: 2
Fore
SplineSet
588 934 m 0,0,1
 613 1042 613 1042 678 1042 c 0,2,3
 753 1042 753 1042 728 929 c 0,4,5
 705 829 705 829 634.5 829 c 128,-1,6
 564 829 564 829 588 934 c 0,0,1
431 252 m 128,-1,8
 456 359 456 359 521 359 c 0,9,10
 597 359 597 359 571 245 c 0,11,12
 548 145 548 145 476 145 c 0,13,7
 406 145 406 145 431 252 c 128,-1,8
333 664 m 2,14,15
 864 664 l 0,16,17
 947 664 947 664 930 594 c 0,18,19
 913 520 913 520 835 520 c 2,20,-1
 295 520 l 2,21,22
 211 520 211 520 228 595 c 0,23,24
 245 664 245 664 333 664 c 2,14,15
EndSplineSet
Validated: 33
EndChar

StartChar: oslash
Encoding: 248 248 177
Width: 968
GlyphClass: 2
Flags: W
LayerCount: 2
Fore
SplineSet
828 628 m 1,0,-1
 379 238 l 1,1,2
 394 210 394 210 422 187 c 0,3,4
 466 150 466 150 523 150 c 0,5,6
 578 150 578 150 643 191 c 0,7,8
 741 252 741 252 772 385 c 2,9,-1
 828 628 l 1,0,-1
706 1010 m 0,10,11
 851 1010 851 1010 917 905 c 0,12,13
 927 890 927 890 936 875 c 1,14,-1
 1050 979 l 2,15,16
 1082 1008 1082 1008 1109 1008 c 0,17,18
 1172 1008 1172 1008 1157 942 c 0,19,20
 1149 907 1149 907 1118 879 c 2,21,-1
 972 750 l 1,22,23
 973 717 973 717 965 682 c 2,24,-1
 889 353 l 2,25,26
 852 194 852 194 722 95 c 0,27,28
 612 8 612 8 484 8 c 0,29,30
 350 8 350 8 290 104 c 0,31,32
 277 123 277 123 267 143 c 1,33,-1
 144 31 l 2,34,35
 113 4 113 4 86 4 c 0,36,37
 27 4 27 4 42 70 c 0,38,39
 51 109 51 109 83 137 c 2,40,-1
 232 270 l 1,41,42
 230 316 230 316 242 364 c 2,43,-1
 313 673 l 2,44,45
 348 825 348 825 497 932 c 0,46,47
 602 1010 602 1010 706 1010 c 0,10,11
541 813 m 0,48,49
 460 758 460 758 433 642 c 2,50,-1
 375 390 l 1,51,-1
 821 777 l 1,52,53
 814 792 814 792 804 805 c 0,54,55
 757 866 757 866 688 866 c 0,56,57
 620 866 620 866 541 813 c 0,48,49
EndSplineSet
Validated: 33
EndChar

StartChar: thorn
Encoding: 254 254 183
Width: 904
GlyphClass: 2
Flags: W
LayerCount: 2
Fore
SplineSet
536 128 m 2,0,1
 683 128 683 128 721 291 c 2,2,-1
 816 701 l 2,3,4
 833 775 833 775 804 818.5 c 128,-1,5
 775 862 775 862 712 862 c 2,6,-1
 454 862 l 1,7,-1
 285 128 l 1,8,-1
 536 128 l 2,0,1
256 -16 m 1,9,-1
 175 -365 l 2,10,11
 154 -456 154 -456 90 -456 c 0,12,13
 24 -456 24 -456 46 -361 c 2,14,-1
 444 1363 l 2,15,16
 461 1437 461 1437 523 1437 c 0,17,18
 589 1437 589 1437 569 1353 c 2,19,-1
 489 1005 l 1,20,-1
 770 1005 l 2,21,22
 881 1005 881 1005 937 895 c 0,23,24
 972 827 972 827 951 736 c 2,25,-1
 838 250 l 2,26,27
 812 137 812 137 718 60 c 0,28,29
 625 -16 625 -16 514 -16 c 2,30,-1
 256 -16 l 1,9,-1
EndSplineSet
Validated: 33
EndChar

StartChar: dcroat
Encoding: 273 273 200
Width: 968
GlyphClass: 2
Flags: W
LayerCount: 2
Fore
SplineSet
575 859 m 2,0,1
 517 859 517 859 463 808 c 0,2,3
 417 764 417 764 404 708 c 2,4,-1
 310 300 l 2,5,6
 296 239 296 239 322 191 c 0,7,8
 347 144 347 144 405 144 c 2,9,-1
 667 144 l 1,10,-1
 833 859 l 1,11,-1
 575 859 l 2,0,1
1052 1809 m 2,12,13
 1072 1894 1072 1894 1139 1894 c 0,14,15
 1199 1894 1199 1894 1181 1812 c 2,16,-1
 1106 1488 l 1,17,18
 1294 1488 l 0,19,20
 1362 1488 1362 1488 1344 1411 c 0,21,22
 1328 1341 1328 1341 1267 1341 c 2,23,24
 1075 1341 l 1,25,26
 783 75 l 0,27,28
 766 0 766 0 696 0 c 2,29,30
 362 0 l 0,31,32
 263 0 263 0 207 84 c 0,33,34
 150 165 150 165 176 275 c 2,35,-1
 284 742 l 2,36,37
 302 819 302 819 386 906 c 0,38,39
 479 1004 479 1004 618 1004 c 2,40,-1
 866 1004 l 1,41,-1
 944 1341 l 1,42,-1
 761 1341 l 2,43,44
 686 1341 686 1341 703 1413 c 0,45,46
 720 1486 720 1486 795 1486 c 2,47,-1
 977 1486 l 1,48,-1
 1052 1809 l 2,12,13
EndSplineSet
Validated: 33
EndChar

StartChar: gcommaaccent
Encoding: 291 291 214
Width: 905
GlyphClass: 2
Flags: W
LayerCount: 2
Fore
SplineSet
585 858 m 2,0,1
 525 858 525 858 472 817 c 0,2,3
 418 775 418 775 401 702 c 2,4,-1
 311 313 l 2,5,6
 292 229 292 229 319 186 c 0,7,8
 345 145 345 145 414 145 c 2,9,-1
 668 145 l 1,10,-1
 832 858 l 1,11,-1
 585 858 l 2,0,1
608 1004 m 2,12,13
 928 1004 l 0,14,15
 995 1004 995 1004 976 925 c 2,16,17
 719 -191 l 0,18,19
 694 -301 694 -301 600 -379 c 0,20,21
 509 -456 509 -456 408 -456 c 2,22,23
 142 -456 l 0,24,25
 73 -456 73 -456 89 -385 c 0,26,27
 106 -311 106 -311 176 -311 c 2,28,29
 393 -311 l 0,30,31
 560 -311 560 -311 592 -169 c 2,32,-1
 631 0 l 1,33,34
 355 0 l 0,35,36
 249 0 249 0 202 86 c 0,37,38
 153 171 153 171 180 291 c 2,39,40
 280 726 l 0,41,42
 307 843 307 843 400 920 c 0,43,44
 497 1004 497 1004 608 1004 c 2,12,13
836 1541 m 2,45,46
 867 1614 867 1614 913 1614 c 0,47,48
 977 1614 977 1614 961 1543 c 0,49,50
 955 1517 955 1517 944 1490 c 2,51,-1
 822 1202 l 2,52,53
 790 1125 790 1125 741 1126 c 0,54,55
 679 1126 679 1126 696 1200 c 0,56,57
 702 1225 702 1225 721 1269 c 2,58,-1
 836 1541 l 2,45,46
EndSplineSet
Validated: 33
EndChar

StartChar: Hbar
Encoding: 294 294 215
Width: 1205
GlyphClass: 2
Flags: W
LayerCount: 2
Fore
SplineSet
1067 760 m 1,0,-1
 489 760 l 1,1,-1
 332 77 l 2,2,3
 314 0 314 0 246 0 c 0,4,5
 177 0 177 0 195 76 c 2,6,-1
 493 1368 l 1,7,-1
 357 1368 l 2,8,9
 288 1368 288 1368 306 1444 c 0,10,11
 321 1511 321 1511 389 1511 c 2,12,-1
 526 1511 l 1,13,-1
 594 1804 l 2,14,15
 614 1889 614 1889 682 1889 c 128,-1,16
 750 1889 750 1889 730 1804 c 2,17,-1
 663 1511 l 1,18,-1
 1240 1511 l 1,19,-1
 1309 1810 l 2,20,21
 1326 1885 1326 1885 1392.5 1885 c 128,-1,22
 1459 1885 1459 1885 1442 1811 c 2,23,-1
 1372 1511 l 1,24,-1
 1505 1511 l 2,25,26
 1582 1511 1582 1511 1564 1434 c 0,27,28
 1549 1368 1549 1368 1469 1368 c 2,29,-1
 1339 1368 l 1,30,-1
 1042 80 l 2,31,32
 1024 0 1024 0 958 0 c 128,-1,33
 892 0 892 0 910 78 c 2,34,-1
 1067 760 l 1,0,-1
1207 1368 m 1,35,-1
 630 1368 l 1,36,-1
 523 904 l 1,37,-1
 1100 904 l 1,38,-1
 1207 1368 l 1,35,-1
EndSplineSet
Validated: 33
EndChar

StartChar: hbar
Encoding: 295 295 216
Width: 963
GlyphClass: 2
Flags: W
LayerCount: 2
Fore
SplineSet
585 1803 m 2,0,1
 607 1899 607 1899 673 1899 c 0,2,3
 736 1899 736 1899 715 1808 c 2,4,-1
 643 1492 l 1,5,-1
 769 1492 l 2,6,7
 831 1492 831 1492 813 1415 c 0,8,9
 798 1348 798 1348 732 1348 c 2,10,-1
 609 1348 l 1,11,-1
 531 1007 l 1,12,-1
 795 1007 l 2,13,14
 898 1007 898 1007 963 919 c 0,15,16
 1016 849 1016 849 987 723 c 2,17,-1
 839 80 l 2,18,19
 822 6 822 6 763 6 c 0,20,21
 694 6 694 6 712 81 c 2,22,-1
 855 701 l 2,23,24
 892 863 892 863 742 863 c 2,25,-1
 497 863 l 1,26,-1
 317 82 l 2,27,28
 308 42 308 42 287 24 c 128,-1,29
 266 6 266 6 232 6 c 0,30,31
 170 6 170 6 189 90 c 2,32,-1
 479 1348 l 1,33,-1
 349 1348 l 2,34,35
 286 1348 286 1348 303 1423 c 0,36,37
 319 1492 319 1492 384 1492 c 2,38,-1
 513 1492 l 1,39,-1
 585 1803 l 2,0,1
EndSplineSet
Validated: 33
EndChar

StartChar: Itilde
Encoding: 296 296 217
Width: 610
GlyphClass: 2
Flags: W
LayerCount: 2
Fore
SplineSet
305 0 m 128,-1,1
 234 0 234 0 256 94 c 2,2,-1
 562 1420 l 2,3,4
 583 1510 583 1510 653.5 1510 c 128,-1,5
 724 1510 724 1510 703 1417 c 2,6,-1
 398 96 l 2,7,0
 376 0 376 0 305 0 c 128,-1,1
933 1814 m 0,8,9
 974 1853 974 1853 1019 1853 c 0,10,11
 1083 1853 1083 1853 1066 1778 c 0,12,13
 1060 1753 1060 1753 1018 1718 c 0,14,15
 920 1637 920 1637 821 1637 c 0,16,17
 735 1637 735 1637 689 1698 c 0,18,19
 622 1786 622 1786 573 1786 c 0,20,21
 544 1786 544 1786 494 1749 c 128,-1,22
 444 1712 444 1712 416 1712 c 0,23,24
 350 1712 350 1712 369 1794 c 0,25,26
 374 1816 374 1816 412 1846 c 0,27,28
 519 1930 519 1930 608 1930 c 0,29,30
 700 1930 700 1930 770 1844 c 0,31,32
 821 1781 821 1781 854 1781 c 0,33,34
 898 1781 898 1781 933 1814 c 0,8,9
EndSplineSet
Validated: 33
EndChar

StartChar: itilde
Encoding: 297 297 218
Width: 558
GlyphClass: 2
Flags: W
LayerCount: 2
Fore
SplineSet
575 986 m 2,0,-1
 367 84 l 2,1,2
 348 0 348 0 282 0 c 0,3,4
 217 0 217 0 236 82 c 2,5,-1
 443 980 l 2,6,7
 461 1057 461 1057 527 1057 c 0,8,9
 591 1057 591 1057 575 986 c 2,0,-1
790 1362 m 0,10,11
 828 1401 828 1401 871 1401 c 0,12,13
 930 1401 930 1401 913 1326 c 0,14,15
 907 1301 907 1301 867 1266 c 0,16,17
 775 1185 775 1185 683 1185 c 0,18,19
 604 1185 604 1185 562 1246 c 0,20,21
 501 1334 501 1334 456 1334 c 0,22,23
 429 1334 429 1334 382 1297 c 128,-1,24
 335 1260 335 1260 309 1260 c 0,25,26
 248 1260 248 1260 267 1342 c 0,27,28
 272 1364 272 1364 308 1394 c 0,29,30
 408 1478 408 1478 491 1478 c 0,31,32
 576 1478 576 1478 639 1392 c 0,33,34
 685 1329 685 1329 716 1329 c 0,35,36
 757 1329 757 1329 790 1362 c 0,10,11
EndSplineSet
Validated: 33
EndChar

StartChar: dotlessi
Encoding: 305 305 224
Width: 402
GlyphClass: 2
Flags: W
LayerCount: 2
Fore
SplineSet
488 986 m 2,0,1
 280 84 l 0,2,3
 261 0 261 0 197 0 c 0,4,5
 130 0 130 0 149 82 c 2,6,7
 356 980 l 0,8,9
 374 1057 374 1057 440 1057 c 0,10,11
 504 1057 504 1057 488 986 c 2,0,1
EndSplineSet
Validated: 33
EndChar

StartChar: Lslash
Encoding: 321 321 233
Width: 962
GlyphClass: 2
Flags: W
LayerCount: 2
Fore
SplineSet
639 1434 m 2,0,-1
 516 902 l 1,1,-1
 718 1042 l 2,2,3
 751 1062 751 1062 773 1062 c 0,4,5
 805 1062 805 1062 815 1025 c 0,6,7
 822 997 822 997 818 978 c 0,8,9
 811 949 811 949 776 925 c 2,10,-1
 474 716 l 1,11,-1
 343 149 l 1,12,-1
 825 149 l 2,13,14
 906 149 906 149 889 79 c 0,15,16
 871 0 871 0 792 0 c 2,17,-1
 239 0 l 2,18,19
 172 0 172 0 192 89 c 2,20,-1
 312 607 l 1,21,-1
 129 482 l 2,22,23
 87 453 87 453 60 453 c 0,24,25
 34 453 34 453 22 478 c 0,26,27
 8 506 8 506 13 528 c 0,28,29
 22 567 22 567 77 605 c 2,30,-1
 355 794 l 1,31,-1
 502 1432 l 2,32,33
 521 1514 521 1514 590 1514 c 0,34,35
 657 1514 657 1514 639 1434 c 2,0,-1
EndSplineSet
Validated: 33
EndChar

StartChar: lslash
Encoding: 322 322 234
Width: 517
GlyphClass: 2
Flags: W
LayerCount: 2
Fore
SplineSet
471 1424 m 2,0,1
 491 1511 491 1511 562 1511 c 0,2,3
 622 1511 622 1511 602 1426 c 2,4,5
 515 1048 l 1,6,7
 624 1118 l 0,8,9
 650 1136 650 1136 671 1136 c 0,10,11
 699 1136 699 1136 712 1100 c 0,12,13
 719 1079 719 1079 714 1058 c 0,14,15
 706 1024 706 1024 663 995 c 2,16,-1
 473 868 l 1,17,-1
 333 259 l 2,18,19
 307 146 307 146 365 146 c 0,20,21
 436 146 436 146 419 75 c 0,22,23
 402 0 402 0 334 0 c 0,24,25
 256 0 256 0 212 70 c 0,26,27
 173 131 173 131 194 225 c 2,28,-1
 320 770 l 1,29,-1
 202 694 l 2,30,31
 184 681 184 681 165 681 c 0,32,33
 133 681 133 681 125 724 c 0,34,35
 121 746 121 746 125 765 c 0,36,37
 133 798 133 798 171 823 c 2,38,-1
 362 950 l 1,39,-1
 471 1424 l 2,0,1
EndSplineSet
Validated: 33
EndChar

StartChar: OE
Encoding: 338 338 245
Width: 1338
GlyphClass: 2
Flags: W
LayerCount: 2
Fore
SplineSet
692 148 m 1,0,-1
 973 1367 l 1,1,-1
 844 1367 l 2,2,3
 752 1367 752 1367 646 1290 c 0,4,5
 534 1209 534 1209 501 1064 c 2,6,7
 353 423 l 0,8,9
 328 315 328 315 400 225 c 0,10,11
 463 148 463 148 564 148 c 2,12,-1
 692 148 l 1,0,-1
534 5 m 2,13,14
 369 5 369 5 273 127 c 0,15,16
 176 250 176 250 217 428 c 2,17,-1
 369 1088 l 2,18,19
 407 1254 407 1254 560 1384 c 0,20,21
 713 1515 713 1515 889 1515 c 2,22,-1
 1522 1515 l 2,23,24
 1597 1515 1597 1515 1580 1442 c 0,25,26
 1563 1370 1563 1370 1488 1370 c 2,27,-1
 1108 1370 l 1,28,-1
 1000 904 l 1,29,-1
 1249 904 l 2,30,31
 1317 904 1317 904 1300 832 c 0,32,33
 1284 764 1284 764 1218 764 c 2,34,-1
 968 764 l 1,35,-1
 826 149 l 1,36,-1
 1211 149 l 2,37,38
 1280 149 1280 149 1263 77 c 256,39,40
 1246 5 1246 5 1181 5 c 2,41,-1
 534 5 l 2,13,14
EndSplineSet
Validated: 33
EndChar

StartChar: oe
Encoding: 339 339 246
Width: 1409
GlyphClass: 2
Flags: W
LayerCount: 2
Fore
SplineSet
791 684 m 2,0,1
 813 778 813 778 768 845 c 0,2,3
 726 908 726 908 638 908 c 0,4,5
 577 908 577 908 505 854 c 0,6,7
 422 792 422 792 395 671 c 2,8,-1
 324 364 l 2,9,10
 298 251 298 251 376 182 c 0,11,12
 421 142 421 142 476 142 c 0,13,14
 532 142 532 142 596 186 c 0,15,16
 691 250 691 250 721 380 c 2,17,-1
 791 684 l 2,0,1
903 604 m 1,18,-1
 1296 604 l 1,19,20
 1328 744 1328 744 1313 806 c 0,21,22
 1287 908 1287 908 1165 908 c 0,23,24
 1090 908 1090 908 1005 828 c 0,25,26
 941 769 941 769 903 604 c 1,18,-1
868 461 m 1,27,-1
 835 316 l 2,28,29
 796 146 796 146 945 146 c 2,30,-1
 1244 146 l 2,31,32
 1320 146 1320 146 1303 72 c 0,33,34
 1286 0 1286 0 1211 0 c 2,35,-1
 892 0 l 2,36,37
 785 0 785 0 730 97 c 0,38,39
 722 111 722 111 715 126 c 1,40,41
 697 108 697 108 677 92 c 0,42,43
 562 0 562 0 437 0 c 0,44,45
 301 0 301 0 243 96 c 0,46,47
 163 219 163 219 198 371 c 2,48,-1
 274 698 l 2,49,50
 311 860 311 860 462 972 c 0,51,52
 568 1054 568 1054 671 1054 c 0,53,54
 812 1054 812 1054 883 950 c 0,55,56
 909 914 909 914 909 908 c 1,57,58
 927 927 927 927 973 966 c 0,59,60
 1079 1058 1079 1058 1206 1058 c 0,61,62
 1350 1058 1350 1058 1417 937 c 0,63,64
 1476 835 1476 835 1451 724 c 2,65,-1
 1407 534 l 2,66,67
 1390 461 1390 461 1330 461 c 2,68,-1
 868 461 l 1,27,-1
EndSplineSet
Validated: 33
EndChar

StartChar: uni018F
Encoding: 399 399 280
Width: 1098
GlyphClass: 2
Flags: W
LayerCount: 2
Fore
SplineSet
1006 715 m 1,0,-1
 435 715 l 1,1,-1
 367 423 l 2,2,3
 343 317 343 317 417 225 c 0,4,5
 479 148 479 148 581 148 c 0,6,7
 698 148 698 148 788 219 c 0,8,9
 914 319 914 319 945 452 c 2,10,-1
 1006 715 l 1,0,-1
663 1290 m 0,11,12
 593 1243 593 1243 567 1243 c 0,13,14
 536 1243 536 1243 530 1257 c 0,15,16
 518 1286 518 1286 520 1296 c 0,17,18
 532 1346 532 1346 577 1384 c 0,19,20
 734 1515 734 1515 907 1515 c 0,21,22
 1072 1515 1072 1515 1167 1385 c 0,23,24
 1265 1252 1265 1252 1222 1067 c 2,25,-1
 1081 456 l 2,26,27
 1036 260 1036 260 877 127 c 0,28,29
 726 0 726 0 550 0 c 0,30,31
 383 0 383 0 290 127 c 0,32,33
 195 257 195 257 235 428 c 2,34,-1
 313 764 l 2,35,36
 336 863 336 863 410 863 c 2,37,-1
 1040 863 l 1,38,-1
 1085 1060 l 2,39,40
 1119 1207 1119 1207 1041 1291 c 0,41,42
 970 1367 970 1367 861 1367 c 0,43,44
 778 1367 778 1367 663 1290 c 0,11,12
EndSplineSet
Validated: 33
EndChar

StartChar: uni019F
Encoding: 415 415 281
Width: 1112
GlyphClass: 2
Flags: W
LayerCount: 2
Fore
SplineSet
388 1088 m 2,0,1
 426 1254 426 1254 578 1384 c 0,2,3
 731 1515 731 1515 908 1515 c 0,4,5
 1076 1515 1076 1515 1168 1385 c 0,6,7
 1265 1248 1265 1248 1223 1067 c 2,8,-1
 1082 456 l 2,9,10
 1037 260 1037 260 878 127 c 0,11,12
 727 0 727 0 551 0 c 0,13,14
 385 0 385 0 291 127 c 0,15,16
 195 257 195 257 235 428 c 2,17,-1
 388 1088 l 2,0,1
371 423 m 2,18,19
 346 315 346 315 418 225 c 0,20,21
 481 148 481 148 582 148 c 0,22,23
 699 148 699 148 789 219 c 0,24,25
 915 319 915 319 946 452 c 2,26,-1
 999 684 l 1,27,-1
 431 684 l 1,28,-1
 371 423 l 2,18,19
1033 828 m 1,29,-1
 1086 1060 l 2,30,31
 1120 1206 1120 1206 1042 1291 c 0,32,33
 972 1367 972 1367 862 1367 c 0,34,35
 770 1367 770 1367 664 1290 c 0,36,37
 552 1209 552 1209 519 1064 c 2,38,-1
 464 828 l 1,39,-1
 1033 828 l 1,29,-1
EndSplineSet
Validated: 33
EndChar

StartChar: uni01A2
Encoding: 418 418 284
Width: 1397
GlyphClass: 2
Flags: W
LayerCount: 2
Fore
SplineSet
823 3 m 2,0,-1
 453 3 l 2,1,2
 325 3 325 3 244 136 c 0,3,4
 189 227 189 227 222 369 c 2,5,-1
 402 1152 l 2,6,7
 435 1296 435 1296 572 1413 c 0,8,9
 691 1515 691 1515 830 1515 c 2,10,-1
 1338 1515 l 2,11,12
 1451 1515 1451 1515 1519 1418 c 0,13,14
 1571 1345 1571 1345 1544 1226 c 2,15,-1
 1283 98 l 2,16,17
 1260 0 1260 0 1196 0 c 0,18,19
 1125 0 1125 0 1148 100 c 2,20,-1
 1405 1214 l 2,21,22
 1422 1287 1422 1287 1394 1322 c 0,23,24
 1360 1364 1360 1364 1308 1364 c 2,25,-1
 1204 1364 l 1,26,-1
 909 87 l 2,27,28
 899 42 899 42 876 22 c 0,29,30
 856 3 856 3 823 3 c 2,0,-1
1073 1364 m 1,31,-1
 795 1364 l 2,32,33
 717 1364 717 1364 626 1291 c 0,34,35
 557 1235 557 1235 536 1141 c 2,36,-1
 359 377 l 2,37,38
 337 283 337 283 381 215 c 0,39,40
 426 145 426 145 492 145 c 2,41,-1
 791 145 l 1,42,-1
 1073 1364 l 1,31,-1
EndSplineSet
Validated: 33
EndChar

StartChar: uni01A3
Encoding: 419 419 285
Width: 1173
GlyphClass: 2
Flags: W
LayerCount: 2
Fore
SplineSet
758 864 m 1,0,-1
 594 864 l 2,1,2
 442 864 442 864 406 708 c 2,3,-1
 316 319 l 2,4,5
 277 151 277 151 421 151 c 2,6,-1
 593 151 l 1,7,-1
 758 864 l 1,0,-1
962 1009 m 2,8,9
 1065 1009 1065 1009 1130 915 c 0,10,11
 1180 846 1180 846 1154 733 c 2,12,-1
 1007 95 l 2,13,14
 986 4 986 4 924 4 c 0,15,16
 856 4 856 4 878 96 c 2,17,-1
 1021 715 l 2,18,19
 1037 784 1037 784 1010 817 c 0,20,21
 977 864 977 864 933 864 c 2,22,-1
 883 864 l 1,23,-1
 703 84 l 2,24,25
 693 42 693 42 674 24 c 0,26,27
 652 4 652 4 612 4 c 2,28,-1
 366 4 l 2,29,30
 262 4 262 4 206 88 c 0,31,32
 151 167 151 167 177 281 c 2,33,-1
 278 716 l 2,34,35
 308 846 308 846 397 922 c 0,36,37
 497 1009 497 1009 616 1009 c 2,38,-1
 962 1009 l 2,8,9
EndSplineSet
Validated: 33
EndChar

StartChar: uni01B5
Encoding: 437 437 288
Width: 1024
GlyphClass: 2
Flags: W
LayerCount: 2
Fore
SplineSet
303 142 m 1,0,-1
 894 142 l 2,1,2
 967 142 967 142 949 67 c 0,3,4
 934 0 934 0 860 0 c 2,5,-1
 162 0 l 2,6,7
 91 0 91 0 108 72 c 0,8,9
 114 99 114 99 145 140 c 2,10,-1
 580 719 l 1,11,-1
 326 719 l 2,12,13
 257 719 257 719 274 794 c 0,14,15
 290 863 290 863 362 863 c 2,16,-1
 688 863 l 1,17,-1
 1066 1365 l 1,18,-1
 486 1365 l 2,19,20
 408 1365 408 1365 426 1444 c 0,21,22
 441 1510 441 1510 522 1510 c 2,23,-1
 1192 1510 l 2,24,25
 1279 1510 1279 1510 1264 1444 c 0,26,27
 1257 1414 1257 1414 1236 1385 c 2,28,-1
 845 863 l 1,29,-1
 1066 863 l 2,30,31
 1133 863 1133 863 1115 786 c 0,32,33
 1100 719 1100 719 1028 719 c 2,34,-1
 736 719 l 1,35,-1
 303 142 l 1,0,-1
EndSplineSet
Validated: 33
EndChar

StartChar: uni01B6
Encoding: 438 438 289
Width: 848
GlyphClass: 2
Flags: W
LayerCount: 2
Fore
SplineSet
310 154 m 1,0,-1
 717 154 l 2,1,2
 786 154 786 154 766 69 c 0,3,4
 750 0 750 0 681 0 c 2,5,-1
 168 0 l 2,6,7
 87 0 87 0 104 75 c 0,8,9
 110 101 110 101 137 132 c 2,10,-1
 391 427 l 1,11,-1
 251 427 l 2,12,13
 185 427 185 427 203 502 c 0,14,15
 219 571 219 571 287 571 c 2,16,-1
 509 571 l 1,17,-1
 766 863 l 1,18,-1
 353 863 l 2,19,20
 287 863 287 863 303 934 c 0,21,22
 321 1011 321 1011 388 1011 c 2,23,-1
 897 1011 l 2,24,25
 988 1011 988 1011 971 941 c 0,26,27
 966 917 966 917 946 895 c 2,28,-1
 668 571 l 1,29,-1
 822 571 l 2,30,31
 886 571 886 571 868 494 c 0,32,33
 853 427 853 427 784 427 c 2,34,-1
 550 427 l 1,35,-1
 310 154 l 1,0,-1
EndSplineSet
Validated: 33
EndChar

StartChar: uni01CF
Encoding: 463 463 292
Width: 558
GlyphClass: 2
Flags: W
LayerCount: 2
Fore
SplineSet
279 0 m 128,-1,1
 208 0 208 0 230 94 c 2,2,-1
 536 1420 l 2,3,4
 557 1510 557 1510 627.5 1510 c 128,-1,5
 698 1510 698 1510 677 1417 c 2,6,-1
 372 96 l 2,7,0
 350 0 350 0 279 0 c 128,-1,1
897 1985 m 2,8,9
 927 2012 927 2012 954 2012 c 0,10,11
 984 2012 984 2012 999 1990 c 0,12,13
 1013 1970 1013 1970 1005 1938 c 0,14,15
 997 1904 997 1904 949 1863 c 2,16,-1
 729 1674 l 2,17,18
 685 1637 685 1637 659 1637 c 0,19,20
 627 1637 627 1637 602 1674 c 2,21,-1
 456 1885 l 2,22,23
 441 1907 441 1907 447 1935 c 0,24,25
 455 1971 455 1971 482 1992 c 0,26,27
 505 2011 505 2011 533 2011 c 128,-1,28
 561 2011 561 2011 578 1986 c 2,29,-1
 700 1816 l 1,30,-1
 897 1985 l 2,8,9
EndSplineSet
Validated: 33
EndChar

StartChar: uni01D0
Encoding: 464 464 293
Width: 599
GlyphClass: 2
Flags: W
LayerCount: 2
Fore
SplineSet
591 986 m 2,0,-1
 383 84 l 2,1,2
 364 0 364 0 299 0 c 0,3,4
 234 0 234 0 252 82 c 2,5,-1
 459 980 l 2,6,7
 477 1057 477 1057 543 1057 c 0,8,9
 607 1057 607 1057 591 986 c 2,0,-1
801 1533 m 2,10,11
 830 1560 830 1560 853 1560 c 0,12,13
 881 1560 881 1560 895 1538 c 0,14,15
 908 1518 908 1518 900 1486 c 0,16,17
 892 1452 892 1452 847 1411 c 2,18,-1
 639 1222 l 2,19,20
 598 1185 598 1185 573 1185 c 0,21,22
 544 1185 544 1185 521 1222 c 2,23,-1
 389 1433 l 2,24,25
 375 1455 375 1455 381 1483 c 0,26,27
 389 1519 389 1519 415 1540 c 0,28,29
 437 1559 437 1559 463 1559 c 128,-1,30
 489 1559 489 1559 504 1534 c 2,31,-1
 615 1364 l 1,32,-1
 801 1533 l 2,10,11
EndSplineSet
Validated: 33
EndChar

StartChar: uni01F0
Encoding: 496 496 306
Width: 603
GlyphClass: 2
Flags: W
LayerCount: 2
Fore
SplineSet
420 979 m 2,0,1
 437 1054 437 1054 502 1054 c 128,-1,2
 567 1054 567 1054 550 980 c 2,3,-1
 284 -171 l 2,4,5
 259 -280 259 -280 166 -363 c 0,6,7
 65 -456 65 -456 -30 -456 c 2,8,-1
 -104 -456 l 2,9,10
 -169 -456 -169 -456 -151 -382 c 0,11,12
 -135 -311 -135 -311 -72 -311 c 2,13,-1
 0 -311 l 2,14,15
 43 -311 43 -311 98 -259 c 0,16,17
 145 -214 145 -214 157 -160 c 2,18,-1
 420 979 l 2,0,1
755 1510 m 2,19,20
 785 1539 785 1539 810 1539 c 0,21,22
 834 1539 834 1539 849 1517 c 0,23,24
 862 1499 862 1499 855 1465 c 0,25,26
 847 1432 847 1432 801 1390 c 2,27,-1
 593 1201 l 2,28,29
 553 1164 553 1164 530 1164 c 0,30,31
 502 1164 502 1164 478 1201 c 2,32,-1
 345 1412 l 2,33,34
 330 1435 330 1435 337 1462 c 0,35,36
 347 1504 347 1504 370 1519 c 0,37,38
 399 1538 399 1538 421 1538 c 0,39,40
 442 1538 442 1538 458 1511 c 2,41,-1
 571 1343 l 1,42,-1
 755 1510 l 2,19,20
EndSplineSet
Validated: 33
EndChar

StartChar: uni0228
Encoding: 552 552 311
Width: 2200
GlyphClass: 2
Flags: W
LayerCount: 2
Fore
SplineSet
2146 716 m 1,0,-1
 2249 1164 l 2,1,2
 2267 1240 2267 1240 2331 1240 c 128,-1,3
 2395 1240 2395 1240 2378 1167 c 2,4,-1
 2223 495 l 2,5,6
 2204 412 2204 412 2143 412 c 0,7,8
 2127 412 2127 412 2111 427 c 0,9,10
 2093 442 2093 442 2085 466 c 2,11,-1
 1916 913 l 1,12,-1
 1819 493 l 2,13,14
 1801 413 1801 413 1730 413 c 0,15,16
 1667 413 1667 413 1686 495 c 2,17,-1
 1837 1149 l 2,18,19
 1858 1238 1858 1238 1924 1238 c 0,20,21
 1965 1238 1965 1238 1982 1192 c 2,22,-1
 2146 716 l 1,0,-1
201 3 m 0,23,24
 137 3 137 3 159 96 c 2,25,-1
 470 1444 l 2,26,27
 485 1510 485 1510 549 1510 c 0,28,29
 619 1510 619 1510 602 1435 c 2,30,-1
 454 797 l 1,31,-1
 1188 1477 l 2,32,33
 1229 1515 1229 1515 1257 1515 c 128,-1,34
 1285 1515 1285 1515 1300.5 1493.5 c 128,-1,35
 1316 1472 1316 1472 1309 1440 c 0,36,37
 1306 1425 1306 1425 1271 1392 c 2,38,-1
 765 911 l 1,39,-1
 987 147 l 2,40,41
 1001 102 1001 102 995 79 c 0,42,43
 987 43 987 43 958 20 c 0,44,45
 932 0 932 0 905 0 c 0,46,47
 871 0 871 0 857 45 c 2,48,-1
 643 798 l 1,49,-1
 406 578 l 1,50,-1
 295 99 l 2,51,52
 273 3 273 3 201 3 c 0,23,24
EndSplineSet
Validated: 33
EndChar

StartChar: uni0229
Encoding: 553 553 312
Width: 1377
GlyphClass: 2
Flags: W
LayerCount: 2
Fore
SplineSet
521 1033 m 0,0,1
 439 974 439 974 410 850 c 2,2,-1
 394 779 l 2,3,4
 368 666 368 666 446 597 c 0,5,6
 491 557 491 557 546 557 c 128,-1,7
 601 557 601 557 666 601 c 0,8,9
 765 667 765 667 799 810 c 2,10,-1
 803 829 l 2,11,12
 832 956 832 956 784 1024 c 0,13,14
 738 1090 738 1090 669.5 1090 c 128,-1,15
 601 1090 601 1090 521 1033 c 0,0,1
687 1234 m 0,16,17
 831 1234 831 1234 897 1129 c 0,18,19
 971 1018 971 1018 943 893 c 2,20,-1
 917 781 l 2,21,22
 878 612 878 612 746 507 c 0,23,24
 634 415 634 415 507 415 c 0,25,26
 373 415 373 415 313 511 c 0,27,28
 232 632 232 632 268 786 c 2,29,-1
 289 877 l 2,30,31
 326 1038 326 1038 477 1151 c 0,32,33
 583 1234 583 1234 687 1234 c 0,16,17
EndSplineSet
Validated: 33
EndChar

StartChar: uni023B
Encoding: 571 571 313
Width: 1667
GlyphClass: 2
Flags: W
LayerCount: 2
Fore
SplineSet
1582 700 m 1,0,-1
 1686 1148 l 2,1,2
 1704 1224 1704 1224 1768 1224 c 128,-1,3
 1832 1224 1832 1224 1815 1151 c 2,4,-1
 1660 479 l 2,5,6
 1641 396 1641 396 1579 396 c 0,7,8
 1563 396 1563 396 1547 411 c 0,9,10
 1528 429 1528 429 1521 450 c 2,11,-1
 1353 897 l 1,12,-1
 1256 477 l 2,13,14
 1238 397 1238 397 1167 397 c 0,15,16
 1104 397 1104 397 1122 479 c 2,17,-1
 1273 1133 l 2,18,19
 1294 1222 1294 1222 1361 1222 c 0,20,21
 1402 1222 1402 1222 1418 1176 c 2,22,-1
 1582 700 l 1,0,-1
602 1433 m 2,23,-1
 305 145 l 1,24,-1
 789 145 l 2,25,26
 874 145 874 145 857.5 72.5 c 128,-1,27
 841 0 841 0 753 0 c 2,28,-1
 203 0 l 2,29,30
 137 0 137 0 157 89 c 2,31,-1
 467 1433 l 2,32,33
 485 1510 485 1510 552.5 1510 c 128,-1,34
 620 1510 620 1510 602 1433 c 2,23,-1
EndSplineSet
Validated: 33
EndChar

StartChar: uni023C
Encoding: 572 572 314
Width: 831
GlyphClass: 2
Flags: W
LayerCount: 2
Fore
SplineSet
521 1033 m 0,0,1
 439 974 439 974 410 850 c 2,2,-1
 394 779 l 2,3,4
 368 666 368 666 446 597 c 0,5,6
 491 557 491 557 546 557 c 128,-1,7
 601 557 601 557 666 601 c 0,8,9
 765 667 765 667 799 810 c 2,10,-1
 803 829 l 2,11,12
 832 956 832 956 784 1024 c 0,13,14
 738 1090 738 1090 669.5 1090 c 128,-1,15
 601 1090 601 1090 521 1033 c 0,0,1
687 1234 m 0,16,17
 831 1234 831 1234 897 1129 c 0,18,19
 971 1018 971 1018 943 893 c 2,20,-1
 917 781 l 2,21,22
 878 612 878 612 746 507 c 0,23,24
 634 415 634 415 507 415 c 0,25,26
 373 415 373 415 313 511 c 0,27,28
 232 632 232 632 268 786 c 2,29,-1
 289 877 l 2,30,31
 326 1038 326 1038 477 1151 c 0,32,33
 583 1234 583 1234 687 1234 c 0,16,17
EndSplineSet
Validated: 33
EndChar

StartChar: uni0259
Encoding: 601 601 315
Width: 892
GlyphClass: 2
Flags: W
LayerCount: 2
Fore
SplineSet
736 432 m 1,0,-1
 342 432 l 1,1,2
 309 289 309 289 337 227 c 0,3,4
 373 148 373 148 468 148 c 0,5,6
 556 148 556 148 645 229 c 0,7,8
 701 280 701 280 736 432 c 1,0,-1
848 346 m 0,9,10
 813 196 813 196 672 91 c 0,11,12
 553 0 553 0 436 0 c 0,13,14
 296 0 296 0 226 120 c 0,15,16
 165 218 165 218 190 323 c 2,17,-1
 232 505 l 2,18,19
 248 574 248 574 308 574 c 2,20,-1
 769 574 l 1,21,-1
 797 695 l 2,22,23
 836 863 836 863 701 863 c 2,24,-1
 388 863 l 2,25,26
 312 863 312 863 329 937 c 0,27,28
 346 1009 346 1009 423 1009 c 2,29,-1
 739 1009 l 2,30,31
 844 1009 844 1009 902 917 c 0,32,33
 959 830 959 830 932 709 c 2,34,35
 848 346 l 0,9,10
EndSplineSet
Validated: 33
EndChar

StartChar: uni0275
Encoding: 629 629 316
Width: 885
GlyphClass: 2
Flags: W
LayerCount: 2
Fore
SplineSet
496 814 m 0,0,1
 415 760 415 760 389 646 c 2,2,-1
 372 572 l 1,3,-1
 770 572 l 1,4,-1
 782 627 l 2,5,6
 809 743 809 743 759 806 c 0,7,8
 711 866 711 866 643 866 c 128,-1,9
 575 866 575 866 496 814 c 0,0,1
661 1010 m 0,10,11
 805 1010 805 1010 873 910 c 0,12,13
 949 805 949 805 921 686 c 2,14,-1
 845 356 l 2,15,16
 808 196 808 196 677 95 c 0,17,18
 567 8 567 8 439 8 c 0,19,20
 303 8 303 8 244 99 c 0,21,22
 163 216 163 216 196 360 c 2,23,-1
 267 671 l 2,24,25
 302 824 302 824 452 931 c 0,26,27
 557 1010 557 1010 661 1010 c 0,10,11
736 428 m 1,28,-1
 339 428 l 1,29,-1
 321 353 l 2,30,31
 297 250 297 250 377 187 c 0,32,33
 423 150 423 150 478 150 c 128,-1,34
 533 150 533 150 598 190 c 0,35,36
 696 250 696 250 726 382 c 2,37,-1
 736 428 l 1,28,-1
EndSplineSet
Validated: 33
EndChar

StartChar: afii64937
Encoding: 701 701 319
Width: 438
GlyphClass: 2
Flags: W
LayerCount: 2
Fore
SplineSet
656 1745 m 2,0,-1
 656 1497 l 2,1,2
 656 1456 656 1456 651 1434 c 0,3,4
 635 1366 635 1366 569 1366 c 0,5,6
 517 1366 517 1366 516 1436 c 2,7,-1
 516 1699 l 2,8,9
 516 1723 516 1723 522 1747 c 0,10,11
 537 1812 537 1812 606 1812 c 0,12,13
 656 1812 656 1812 656 1745 c 2,0,-1
EndSplineSet
Validated: 1
EndChar

StartChar: dotaccent
Encoding: 729 729 320
Width: 3
GlyphClass: 2
Flags: W
LayerCount: 2
Fore
SplineSet
-35.5 1403 m 128,-1,1
 -11 1510 -11 1510 54 1510 c 0,2,3
 130 1510 130 1510 104 1396 c 0,4,5
 81 1296 81 1296 10 1296 c 0,6,0
 -60 1296 -60 1296 -35.5 1403 c 128,-1,1
EndSplineSet
Validated: 33
EndChar

StartChar: ring
Encoding: 730 730 321
Width: 644
GlyphClass: 2
Flags: W
AnchorPoint: "Anchor-0" 353 1280 basechar 0
LayerCount: 2
Fore
SplineSet
743 1811 m 128,-1,1
 640 1811 640 1811 616 1704 c 0,2,3
 589 1585 589 1585 690 1585 c 0,4,5
 793 1585 793 1585 821 1704 c 0,6,0
 846 1811 846 1811 743 1811 c 128,-1,1
772 1950 m 0,7,8
 1004 1950 1004 1950 947 1704 c 0,9,10
 888 1447 888 1447 656.5 1447 c 128,-1,11
 425 1447 425 1447 483 1700 c 0,12,13
 541 1950 541 1950 772 1950 c 0,7,8
EndSplineSet
Validated: 33
EndChar

StartChar: hungarumlaut
Encoding: 733 733 322
Width: 740
GlyphClass: 2
Flags: W
LayerCount: 2
Fore
SplineSet
937 1828 m 2,0,1
 966 1892 966 1892 1011 1892 c 0,2,3
 1086 1892 1086 1892 1072 1830 c 0,4,5
 1067 1807 1067 1807 1052 1772 c 2,6,-1
 933 1512 l 2,7,8
 902 1444 902 1444 858 1444 c 0,9,10
 783 1444 783 1444 798 1511 c 0,11,12
 803 1531 803 1531 809 1545 c 2,13,-1
 937 1828 l 2,0,1
584 1828 m 2,14,15
 613 1891 613 1891 662 1891 c 0,16,17
 735 1891 735 1891 719 1822 c 0,18,19
 717 1812 717 1812 706 1788 c 2,20,-1
 575 1508 l 2,21,22
 545 1444 545 1444 497 1444 c 0,23,24
 424 1444 424 1444 439 1509 c 0,25,26
 443 1525 443 1525 452 1545 c 2,27,-1
 584 1828 l 2,14,15
EndSplineSet
Validated: 33
EndChar

StartChar: acutecomb
Encoding: 769 769 323
Width: 596
GlyphClass: 2
Flags: W
LayerCount: 2
Fore
SplineSet
788 1740 m 2,0,1
 824 1765 824 1765 843 1765 c 0,2,3
 914 1765 914 1765 895 1686 c 0,4,5
 888 1654 888 1654 846 1626 c 2,6,-1
 531 1411 l 2,7,8
 499 1391 499 1391 475 1391 c 0,9,10
 412 1391 412 1391 429 1466 c 0,11,12
 438 1503 438 1503 477 1529 c 2,13,-1
 788 1740 l 2,0,1
EndSplineSet
Validated: 33
EndChar

StartChar: uni0302
Encoding: 770 770 324
Width: 738
GlyphClass: 2
Flags: W
LayerCount: 2
Fore
SplineSet
856 1474 m 2,0,1
 749 1632 l 1,2,-1
 566 1479 l 2,3,4
 517 1438 517 1438 491 1438 c 0,5,6
 423 1438 423 1438 438 1503 c 0,7,8
 445 1534 445 1534 485 1569 c 2,9,-1
 716 1773 l 2,10,11
 758 1810 758 1810 790 1810 c 0,12,13
 816 1810 816 1810 842 1773 c 2,14,-1
 978 1577 l 2,15,16
 1003 1541 1003 1541 995 1505 c 0,17,18
 980 1438 980 1438 908 1438 c 0,19,20
 879 1438 879 1438 856 1474 c 2,0,1
EndSplineSet
Validated: 33
EndChar

StartChar: uni0304
Encoding: 772 772 325
Width: 933
GlyphClass: 2
Flags: W
LayerCount: 2
Fore
SplineSet
438 1592 m 2,0,1
 1138 1592 l 0,2,3
 1211 1592 1211 1592 1194 1522 c 0,4,5
 1177 1448 1177 1448 1105 1448 c 2,6,-1
 403 1448 l 2,7,8
 334 1448 334 1448 352 1524 c 0,9,10
 367 1592 367 1592 438 1592 c 2,0,1
EndSplineSet
Validated: 33
EndChar

StartChar: uni0306
Encoding: 774 774 326
Width: 743
GlyphClass: 2
Flags: W
LayerCount: 2
Fore
SplineSet
629 1728 m 0,0,1
 613 1657 613 1657 653 1617 c 0,2,3
 691 1580 691 1580 734 1580 c 0,4,5
 789 1580 789 1580 831 1610 c 0,6,7
 896 1656 896 1656 911 1721 c 0,8,9
 930 1803 930 1803 1005 1803 c 0,10,11
 1069 1803 1069 1803 1050 1719 c 0,12,13
 1022 1597 1022 1597 923 1518 c 0,14,15
 813 1430 813 1430 697 1430 c 0,16,17
 571 1430 571 1430 516 1532 c 0,18,19
 466 1626 466 1626 491 1732 c 0,20,21
 507 1803 507 1803 584 1803 c 0,22,23
 646 1803 646 1803 629 1728 c 0,0,1
EndSplineSet
Validated: 33
EndChar

StartChar: uni0307
Encoding: 775 775 327
Width: 3
GlyphClass: 2
Flags: W
LayerCount: 2
Fore
SplineSet
-152.5 1739 m 128,-1,1
 -128 1846 -128 1846 -63 1846 c 0,2,3
 13 1846 13 1846 -13 1732 c 0,4,5
 -36 1632 -36 1632 -108 1632 c 0,6,0
 -177 1632 -177 1632 -152.5 1739 c 128,-1,1
EndSplineSet
Validated: 33
EndChar

StartChar: uni0308
Encoding: 776 776 328
Width: 747
GlyphClass: 2
Flags: W
LayerCount: 2
Fore
SplineSet
873 1550 m 128,-1,1
 898 1658 898 1658 963 1658 c 0,2,3
 1039 1658 1039 1658 1013 1544 c 0,4,5
 989 1442 989 1442 918 1442 c 0,6,0
 848 1442 848 1442 873 1550 c 128,-1,1
448.5 1549 m 128,-1,8
 473 1656 473 1656 539 1656 c 0,9,10
 615 1656 615 1656 589 1542 c 0,11,12
 566 1442 566 1442 495 1442 c 0,13,7
 424 1442 424 1442 448.5 1549 c 128,-1,8
EndSplineSet
Validated: 33
EndChar

StartChar: hookabovecomb
Encoding: 777 777 329
Width: 873
GlyphClass: 4
Flags: W
AnchorPoint: "Anchor-0" 484 1170 mark 0
LayerCount: 2
Fore
SplineSet
625 1675 m 0,0,1
 640 1738 640 1738 740 1820 c 0,2,3
 788 1860 788 1860 872 1860 c 0,4,5
 942 1860 942 1860 990 1798 c 0,6,7
 1029 1747 1029 1747 1011 1667 c 0,8,9
 997 1607 997 1607 939 1534 c 2,10,-1
 831 1401 l 1,11,-1
 824 1371 l 2,12,13
 807 1296 807 1296 743 1296 c 0,14,15
 682 1296 682 1296 698 1366 c 2,16,17
 710 1418 l 0,18,19
 715 1439 715 1439 741 1467 c 2,20,-1
 849 1606 l 2,21,22
 880 1645 880 1645 886 1667 c 0,23,24
 900 1726 900 1726 836 1726 c 0,25,26
 776 1726 776 1726 749.5 1667 c 128,-1,27
 723 1608 723 1608 670 1608 c 0,28,29
 610 1608 610 1608 625 1675 c 0,0,1
EndSplineSet
Validated: 33
EndChar

StartChar: uni030C
Encoding: 780 780 330
Width: 739
GlyphClass: 2
Flags: W
LayerCount: 2
Fore
SplineSet
940 1782 m 2,0,1
 971 1809 971 1809 998 1809 c 0,2,3
 1027 1809 1027 1809 1042 1787 c 0,4,5
 1056 1767 1056 1767 1049 1735 c 0,6,7
 1041 1701 1041 1701 992 1660 c 2,8,-1
 772 1471 l 2,9,10
 729 1434 729 1434 703 1434 c 0,11,12
 672 1434 672 1434 646 1471 c 2,13,-1
 500 1682 l 2,14,15
 485 1704 485 1704 491 1732 c 0,16,17
 499 1768 499 1768 525 1789 c 0,18,19
 549 1808 549 1808 577 1808 c 0,20,21
 604 1808 604 1808 621 1783 c 2,22,-1
 744 1613 l 1,23,-1
 940 1782 l 2,0,1
EndSplineSet
Validated: 1
EndChar

StartChar: uni031B
Encoding: 795 795 331
Width: 927
GlyphClass: 4
Flags: W
AnchorPoint: "Anchor-0" 384 772 mark 0
LayerCount: 2
Fore
SplineSet
468 767 m 0,0,1
 471 782 471 782 492 807 c 0,2,3
 511 830 511 830 543 830 c 0,4,5
 591 830 591 830 592 792 c 128,-1,6
 593 754 593 754 618 732 c 0,7,8
 637 716 637 716 678 716 c 0,9,10
 749 716 749 716 778 842 c 2,11,-1
 791 898 l 2,12,13
 810 980 810 980 871.5 980 c 128,-1,14
 933 980 933 980 915 900 c 2,15,-1
 895 816 l 2,16,17
 870 708 870 708 793 640 c 0,18,19
 730 584 730 584 633 584 c 0,20,21
 537 584 537 584 503 644 c 0,22,23
 458 722 458 722 468 767 c 0,0,1
EndSplineSet
Validated: 33
EndChar

StartChar: uni0321
Encoding: 801 801 332
Width: 123
GlyphClass: 4
Flags: W
AnchorPoint: "Anchor-0" -6 -70 mark 0
LayerCount: 2
Fore
SplineSet
-102 -122 m 0,0,1
 -74 -1 -74 -1 4 -1 c 0,2,3
 67 -1 67 -1 39 -123 c 0,4,5
 15 -229 15 -229 -83 -312 c 0,6,7
 -160 -377 -160 -377 -257 -377 c 0,8,9
 -334 -377 -334 -377 -319 -309 c 0,10,11
 -302 -237 -302 -237 -230 -237 c 0,12,13
 -129 -237 -129 -237 -102 -122 c 0,0,1
EndSplineSet
Validated: 33
EndChar

StartChar: uni0327
Encoding: 807 807 333
Width: 384
GlyphClass: 2
Flags: W
LayerCount: 2
Fore
SplineSet
184 94 m 0,0,1
 210 151 210 151 254 151 c 0,2,3
 273 151 273 151 291 141 c 0,4,5
 322 124 322 124 312 81 c 0,6,7
 309 66 309 66 300 48 c 2,8,9
 168 -238 l 0,10,11
 140 -299 140 -299 94 -299 c 0,12,13
 80 -299 80 -299 62 -293 c 0,14,15
 26 -280 26 -280 37 -232 c 0,16,17
 40 -218 40 -218 48 -202 c 2,18,19
 184 94 l 0,0,1
EndSplineSet
Validated: 33
EndChar

StartChar: uni0328
Encoding: 808 808 334
Width: 505
GlyphClass: 2
Flags: W
LayerCount: 2
Fore
SplineSet
375 148 m 0,0,1
 448 148 448 148 431 72 c 0,2,3
 414 0 414 0 334 0 c 0,4,5
 233 0 233 0 205 -119 c 0,6,7
 178 -234 178 -234 280 -234 c 0,8,9
 353 -234 353 -234 336 -306 c 0,10,11
 320 -374 320 -374 243 -374 c 0,12,13
 148 -374 148 -374 99 -309 c 0,14,15
 38 -229 38 -229 63 -120 c 128,-1,16
 88 -11 88 -11 175 67 c 0,17,18
 265 148 265 148 375 148 c 0,0,1
EndSplineSet
Validated: 33
EndChar

StartChar: tonos
Encoding: 900 900 335
Width: 389
GlyphClass: 2
Flags: W
LayerCount: 2
Fore
SplineSet
581 1817 m 2,0,1
 610 1880 610 1880 660 1880 c 0,2,3
 733 1880 733 1880 716 1811 c 0,4,5
 714 1801 714 1801 703 1777 c 2,6,-1
 572 1497 l 2,7,8
 542 1433 542 1433 494 1433 c 0,9,10
 421 1433 421 1433 437 1498 c 0,11,12
 441 1514 441 1514 450 1534 c 2,13,-1
 581 1817 l 2,0,1
EndSplineSet
Validated: 33
EndChar

StartChar: dieresistonos
Encoding: 901 901 336
Width: 747
GlyphClass: 2
Flags: W
LayerCount: 2
Fore
SplineSet
859 2072 m 2,0,1
 888 2135 888 2135 937 2135 c 0,2,3
 1010 2135 1010 2135 994 2066 c 0,4,5
 992 2056 992 2056 980 2032 c 2,6,-1
 850 1752 l 2,7,8
 820 1688 820 1688 772 1688 c 0,9,10
 699 1688 699 1688 714 1753 c 0,11,12
 718 1769 718 1769 727 1789 c 2,13,-1
 859 2072 l 2,0,1
873 1550 m 128,-1,15
 898 1658 898 1658 963 1658 c 0,16,17
 1039 1658 1039 1658 1013 1544 c 0,18,19
 989 1442 989 1442 918 1442 c 0,20,14
 848 1442 848 1442 873 1550 c 128,-1,15
448.5 1549 m 128,-1,22
 473 1656 473 1656 539 1656 c 0,23,24
 615 1656 615 1656 589 1542 c 0,25,26
 566 1442 566 1442 495 1442 c 0,27,21
 424 1442 424 1442 448.5 1549 c 128,-1,22
EndSplineSet
Validated: 33
EndChar

StartChar: Alpha
Encoding: 913 913 345
Width: 1165
GlyphClass: 2
Flags: W
LayerCount: 2
Fore
SplineSet
858 1455 m 2,0,1
 888 1511 888 1511 936 1511 c 0,2,3
 982 1511 982 1511 987 1455 c 2,4,-1
 1092 111 l 2,5,6
 1094 84 1094 84 1090 67 c 0,7,8
 1076 8 1076 8 1008 0 c 1,9,10
 959 0 959 0 953 66 c 2,11,12
 932 382 l 1,13,-1
 416 382 l 1,14,-1
 240 58 l 2,15,16
 206 -3 206 -3 163 -3 c 0,17,18
 90 -3 90 -3 107 70 c 0,19,20
 109 80 109 80 145 145 c 2,21,-1
 858 1455 l 2,0,1
862 1206 m 1,22,-1
 491 523 l 1,23,-1
 919 523 l 1,24,-1
 862 1206 l 1,22,-1
EndSplineSet
Validated: 33
EndChar

StartChar: Beta
Encoding: 914 914 346
Width: 1102
GlyphClass: 2
Flags: W
LayerCount: 2
Fore
SplineSet
1091 460 m 0,0,1
 1040 240 1040 240 882.5 120 c 128,-1,2
 725 0 725 0 610 0 c 2,3,-1
 202 0 l 2,4,5
 137 0 137 0 158 91 c 2,6,-1
 463 1416 l 2,7,8
 485 1511 485 1511 572 1511 c 2,9,-1
 862 1511 l 2,10,11
 1039 1511 1039 1511 1102 1434 c 0,12,13
 1212 1299 1212 1299 1173 1132 c 0,14,15
 1131 948 1131 948 975 838 c 1,16,17
 1049 784 1049 784 1084 683 c 128,-1,18
 1119 582 1119 582 1091 460 c 0,0,1
452 748 m 1,19,-1
 312 139 l 1,20,-1
 602 139 l 2,21,22
 728 139 728 139 826 233 c 128,-1,23
 924 327 924 327 951 441 c 256,24,25
 977 555 977 555 928 652 c 0,26,27
 879 748 879 748 745 748 c 2,28,-1
 452 748 l 1,19,-1
594 1361 m 1,29,-1
 488 904 l 1,30,-1
 772 904 l 2,31,32
 879 904 879 904 947 966.5 c 128,-1,33
 1015 1029 1015 1029 1036 1122 c 0,34,35
 1058 1216 1058 1216 1018 1288.5 c 128,-1,36
 978 1361 978 1361 874 1361 c 2,37,-1
 594 1361 l 1,29,-1
EndSplineSet
Validated: 33
EndChar

StartChar: Gamma
Encoding: 915 915 347
Width: 999
GlyphClass: 2
Flags: W
LayerCount: 2
Fore
SplineSet
289 77 m 2,0,1
 271 0 271 0 203.5 0 c 128,-1,2
 136 0 136 0 154 77 c 2,3,-1
 465 1421 l 2,4,5
 486 1511 486 1511 551 1511 c 2,6,7
 1170 1511 l 0,8,9
 1257 1511 1257 1511 1240.5 1438 c 128,-1,10
 1224 1365 1224 1365 1139 1365 c 2,11,-1
 586 1365 l 1,12,-1
 289 77 l 2,0,1
EndSplineSet
Validated: 33
EndChar

StartChar: Delta
Encoding: 916 916 348
Width: 1166
GlyphClass: 2
Flags: W
LayerCount: 2
Fore
SplineSet
1007 0 m 2,0,1
 164 0 l 0,2,3
 91 0 91 0 107 69 c 0,4,5
 110 84 110 84 120 102 c 2,6,-1
 851 1444 l 2,7,8
 887 1511 887 1511 933 1511 c 0,9,10
 986 1511 986 1511 990 1442 c 2,11,-1
 1094 116 l 2,12,13
 1096 89 1096 89 1092 70 c 0,14,15
 1076 0 1076 0 1007 0 c 2,0,1
949 150 m 1,16,-1
 861 1210 l 1,17,-1
 287 150 l 1,18,-1
 949 150 l 1,16,-1
EndSplineSet
Validated: 33
EndChar

StartChar: Epsilon
Encoding: 917 917 349
Width: 927
GlyphClass: 2
Flags: W
LayerCount: 2
Fore
SplineSet
305 149 m 1,0,-1
 801 149 l 2,1,2
 870 149 870 149 853 77 c 256,3,4
 836 5 836 5 770 5 c 2,5,-1
 199 5 l 2,6,7
 138 5 138 5 155 80 c 2,8,-1
 468 1437 l 2,9,10
 486 1515 486 1515 569 1515 c 2,11,-1
 1111 1515 l 2,12,13
 1186 1515 1186 1515 1170 1442 c 0,14,15
 1153 1370 1153 1370 1078 1370 c 2,16,-1
 587 1370 l 1,17,-1
 479 904 l 1,18,-1
 838 904 l 2,19,20
 906 904 906 904 889 832 c 0,21,22
 873 764 873 764 808 764 c 2,23,-1
 447 764 l 1,24,-1
 305 149 l 1,0,-1
EndSplineSet
Validated: 33
EndChar

StartChar: Zeta
Encoding: 918 918 350
Width: 1024
GlyphClass: 2
Flags: W
LayerCount: 2
Fore
SplineSet
303 142 m 1,0,-1
 894 142 l 2,1,2
 967 142 967 142 949 67 c 0,3,4
 934 0 934 0 860 0 c 2,5,-1
 162 0 l 2,6,7
 91 0 91 0 108 72 c 0,8,9
 114 99 114 99 145 140 c 2,10,-1
 1066 1365 l 1,11,-1
 486 1365 l 2,12,13
 408 1365 408 1365 426 1444 c 0,14,15
 441 1511 441 1511 523 1511 c 2,16,-1
 1192 1511 l 2,17,18
 1279 1511 1279 1511 1264 1444 c 0,19,20
 1257 1414 1257 1414 1236 1385 c 2,21,-1
 303 142 l 1,0,-1
EndSplineSet
Validated: 33
EndChar

StartChar: Eta
Encoding: 919 919 351
Width: 1119
GlyphClass: 2
Flags: W
LayerCount: 2
Fore
SplineSet
1026 760 m 1,0,-1
 449 760 l 1,1,-1
 291 77 l 2,2,3
 273 0 273 0 204.5 0 c 128,-1,4
 136 0 136 0 154 76 c 2,5,-1
 465 1425 l 2,6,7
 485 1511 485 1511 553.5 1511 c 128,-1,8
 622 1511 622 1511 602 1425 c 2,9,-1
 482 904 l 1,10,-1
 1059 904 l 1,11,-1
 1181 1431 l 2,12,13
 1198 1506 1198 1506 1264 1506 c 128,-1,14
 1330 1506 1330 1506 1313 1432 c 2,15,-1
 1001 80 l 2,16,17
 983 0 983 0 917 0 c 128,-1,18
 851 0 851 0 869 78 c 2,19,-1
 1026 760 l 1,0,-1
EndSplineSet
Validated: 33
EndChar

StartChar: Theta
Encoding: 920 920 352
Width: 1112
GlyphClass: 2
Flags: W
LayerCount: 2
Fore
SplineSet
681 828 m 2,0,1
 815 828 l 0,2,3
 882 828 882 828 864 751 c 0,4,5
 849 684 849 684 777 684 c 2,6,-1
 645 684 l 2,7,8
 576 684 576 684 594 759 c 0,9,10
 609 828 609 828 681 828 c 2,0,1
371 423 m 2,11,12
 346 315 346 315 418 225 c 0,13,14
 481 148 481 148 582 148 c 0,15,16
 699 148 699 148 789 219 c 0,17,18
 915 319 915 319 946 452 c 2,19,-1
 1086 1060 l 2,20,21
 1120 1206 1120 1206 1042 1291 c 0,22,23
 972 1367 972 1367 862 1367 c 0,24,25
 770 1367 770 1367 664 1290 c 0,26,27
 552 1209 552 1209 519 1064 c 2,28,-1
 371 423 l 2,11,12
388 1088 m 2,29,30
 426 1254 426 1254 578 1384 c 0,31,32
 731 1515 731 1515 908 1515 c 0,33,34
 1076 1515 1076 1515 1168 1385 c 0,35,36
 1265 1248 1265 1248 1223 1067 c 2,37,-1
 1082 456 l 2,38,39
 1037 260 1037 260 878 127 c 0,40,41
 727 0 727 0 551 0 c 0,42,43
 385 0 385 0 291 127 c 0,44,45
 195 257 195 257 235 428 c 2,46,-1
 388 1088 l 2,29,30
EndSplineSet
Validated: 33
EndChar

StartChar: Iota
Encoding: 921 921 353
Width: 414
GlyphClass: 2
Flags: W
LayerCount: 2
Fore
SplineSet
207 0 m 128,-1,1
 136 0 136 0 158 94 c 2,2,-1
 464 1420 l 2,3,4
 485 1511 485 1511 556 1511 c 128,-1,5
 627 1511 627 1511 605 1417 c 2,6,-1
 300 96 l 2,7,0
 278 0 278 0 207 0 c 128,-1,1
EndSplineSet
Validated: 33
EndChar

StartChar: Kappa
Encoding: 922 922 354
Width: 1069
GlyphClass: 2
Flags: W
LayerCount: 2
Fore
SplineSet
201 3 m 0,0,1
 137 3 137 3 159 96 c 2,2,-1
 470 1444 l 2,3,4
 485 1511 485 1511 550 1511 c 0,5,6
 620 1511 620 1511 602 1435 c 2,7,-1
 454 797 l 1,8,-1
 1188 1477 l 2,9,10
 1229 1515 1229 1515 1257 1515 c 128,-1,11
 1285 1515 1285 1515 1300 1490 c 0,12,13
 1314 1466 1314 1466 1307 1438 c 0,14,15
 1301 1412 1301 1412 1259 1372 c 2,16,-1
 765 911 l 1,17,-1
 989 124 l 2,18,19
 999 90 999 90 995 74 c 0,20,21
 988 43 988 43 958 20 c 0,22,23
 932 0 932 0 905 0 c 0,24,25
 871 0 871 0 857 45 c 2,26,-1
 643 798 l 1,27,-1
 406 578 l 1,28,-1
 295 99 l 2,29,30
 273 3 273 3 201 3 c 0,0,1
EndSplineSet
Validated: 33
EndChar

StartChar: Lambda
Encoding: 923 923 355
Width: 1166
GlyphClass: 2
Flags: W
LayerCount: 2
Fore
SplineSet
861 1210 m 1,0,-1
 246 74 l 2,1,2
 208 4 208 4 165 4 c 0,3,4
 92 4 92 4 107 69 c 0,5,6
 110 84 110 84 120 102 c 2,7,-1
 851 1444 l 2,8,9
 888 1511 888 1511 933 1511 c 0,10,11
 986 1511 986 1511 990 1442 c 2,12,-1
 1094 116 l 2,13,14
 1096 89 1096 89 1092 70 c 0,15,16
 1076 0 1076 0 1007 0 c 0,17,18
 961 0 961 0 955 66 c 2,19,-1
 861 1210 l 1,0,-1
EndSplineSet
Validated: 33
EndChar

StartChar: Mu
Encoding: 924 924 356
Width: 1262
GlyphClass: 2
Flags: W
LayerCount: 2
Fore
SplineSet
1336 1472 m 2,0,1
 1367 1511 1367 1511 1404 1511 c 0,2,3
 1475 1511 1475 1511 1456 1430 c 2,4,-1
 1149 99 l 2,5,6
 1126 0 1126 0 1057 0 c 128,-1,7
 988 0 988 0 1011 99 c 2,8,-1
 1259 1172 l 1,9,-1
 852 664 l 2,10,11
 802 601 802 601 766.5 601 c 128,-1,12
 731 601 731 601 712 662 c 2,13,-1
 544 1170 l 1,14,-1
 296 94 l 2,15,16
 274 0 274 0 203 0 c 0,17,18
 137 0 137 0 158 92 c 2,19,-1
 467 1431 l 2,20,21
 485 1511 485 1511 556 1511 c 0,22,23
 592 1511 592 1511 605 1475 c 2,24,-1
 814 824 l 1,25,-1
 1336 1472 l 2,0,1
EndSplineSet
Validated: 33
EndChar

StartChar: Nu
Encoding: 925 925 357
Width: 1111
GlyphClass: 2
Flags: W
LayerCount: 2
Fore
SplineSet
929 357 m 1,0,-1
 1179 1439 l 2,1,2
 1197 1515 1197 1515 1261 1515 c 128,-1,3
 1325 1515 1325 1515 1308 1442 c 2,4,-1
 996 89 l 2,5,6
 977 6 977 6 915 6 c 0,7,8
 872 6 872 6 857 60 c 2,9,-1
 538 1159 l 1,10,-1
 291 89 l 2,11,12
 273 9 273 9 202 9 c 0,13,14
 139 9 139 9 158 91 c 2,15,-1
 466 1426 l 2,16,17
 487 1515 487 1515 553 1515 c 0,18,19
 597 1515 597 1515 610 1469 c 2,20,-1
 929 357 l 1,0,-1
EndSplineSet
Validated: 33
EndChar

StartChar: Xi
Encoding: 926 926 358
Width: 1019
GlyphClass: 2
Flags: W
LayerCount: 2
Fore
SplineSet
567 830 m 2,0,1
 844 830 l 0,2,3
 911 830 911 830 894 753 c 0,4,5
 879 686 879 686 806 686 c 2,6,-1
 531 686 l 2,7,8
 462 686 462 686 480 761 c 0,9,10
 495 830 495 830 567 830 c 2,0,1
512 1514 m 2,11,-1
 1211 1514 l 2,12,13
 1278 1514 1278 1514 1260 1437 c 0,14,15
 1245 1370 1245 1370 1173 1370 c 2,16,-1
 476 1370 l 2,17,18
 407 1370 407 1370 425 1445 c 0,19,20
 440 1514 440 1514 512 1514 c 2,11,-1
196 144 m 2,21,-1
 894 144 l 2,22,23
 961 144 961 144 943 67 c 0,24,25
 928 0 928 0 856 0 c 2,26,-1
 160 0 l 2,27,28
 91 0 91 0 108 75 c 0,29,30
 124 144 124 144 196 144 c 2,21,-1
EndSplineSet
Validated: 33
EndChar

StartChar: Omicron
Encoding: 927 927 359
Width: 1112
GlyphClass: 2
Flags: W
LayerCount: 2
Fore
SplineSet
371 423 m 2,0,1
 346 315 346 315 418 225 c 0,2,3
 481 148 481 148 582 148 c 0,4,5
 699 148 699 148 789 219 c 0,6,7
 915 319 915 319 946 452 c 2,8,-1
 1086 1060 l 2,9,10
 1120 1206 1120 1206 1042 1291 c 0,11,12
 972 1367 972 1367 862 1367 c 0,13,14
 770 1367 770 1367 664 1290 c 0,15,16
 552 1209 552 1209 519 1064 c 2,17,-1
 371 423 l 2,0,1
388 1088 m 2,18,19
 426 1254 426 1254 578 1384 c 0,20,21
 731 1515 731 1515 908 1515 c 0,22,23
 1076 1515 1076 1515 1168 1385 c 0,24,25
 1265 1248 1265 1248 1223 1067 c 2,26,-1
 1082 456 l 2,27,28
 1037 260 1037 260 878 127 c 0,29,30
 727 0 727 0 551 0 c 0,31,32
 385 0 385 0 291 127 c 0,33,34
 195 257 195 257 235 428 c 2,35,-1
 388 1088 l 2,18,19
EndSplineSet
Validated: 33
EndChar

StartChar: Pi
Encoding: 928 928 360
Width: 1119
GlyphClass: 2
Flags: W
LayerCount: 2
Fore
SplineSet
567 1520 m 2,0,1
 1267 1520 l 0,2,3
 1334 1520 1334 1520 1315 1440 c 2,4,-1
 1004 93 l 2,5,6
 984 5 984 5 912 5 c 0,7,8
 844 5 844 5 862 83 c 2,9,-1
 1160 1370 l 1,10,-1
 592 1370 l 1,11,-1
 295 83 l 2,12,13
 277 5 277 5 203 5 c 0,14,15
 138 5 138 5 156 83 c 2,16,-1
 468 1437 l 2,17,18
 487 1520 487 1520 567 1520 c 2,0,1
EndSplineSet
Validated: 33
EndChar

StartChar: Rho
Encoding: 929 929 361
Width: 1066
GlyphClass: 2
Flags: W
LayerCount: 2
Fore
SplineSet
590 1366 m 1,0,1
 448 755 l 1,2,-1
 757 755 l 2,3,4
 851 755 851 755 954 844 c 0,5,6
 1056 932 1056 932 1086.5 1062 c 128,-1,7
 1117 1192 1117 1192 1054.5 1279 c 128,-1,8
 992 1366 992 1366 859 1366 c 2,9,-1
 590 1366 l 1,0,1
294 88 m 2,10,11
 275 5 275 5 206.5 5 c 128,-1,12
 138 5 138 5 157 90 c 2,13,-1
 467 1431 l 2,14,15
 485 1511 485 1511 562 1511 c 2,16,-1
 922 1511 l 2,17,18
 1096 1511 1096 1511 1185 1360 c 0,19,20
 1260 1234 1260 1234 1226 1086 c 0,21,22
 1184 904 1184 904 1088 800 c 0,23,24
 909 607 909 607 723 607 c 2,25,-1
 414 607 l 1,26,-1
 294 88 l 2,10,11
EndSplineSet
Validated: 33
EndChar

StartChar: Sigma
Encoding: 931 931 362
Width: 1017
GlyphClass: 2
Flags: W
LayerCount: 2
Fore
SplineSet
690 755 m 1,0,-1
 304 144 l 1,1,-1
 889 144 l 2,2,3
 958 144 958 144 941 72 c 256,4,5
 924 0 924 0 858 0 c 2,6,-1
 158 0 l 2,7,8
 92 0 92 0 106 59 c 0,9,10
 114 93 114 93 132 122 c 2,11,-1
 539 751 l 1,12,-1
 425 1379 l 2,13,14
 418 1419 418 1419 425 1447 c 0,15,16
 440 1511 440 1511 528 1511 c 2,17,-1
 1200 1511 l 2,18,19
 1275 1511 1275 1511 1258 1437 c 0,20,21
 1241 1365 1241 1365 1166 1365 c 2,22,-1
 586 1365 l 1,23,-1
 690 755 l 1,0,-1
EndSplineSet
Validated: 33
EndChar

StartChar: Tau
Encoding: 932 932 363
Width: 1019
GlyphClass: 2
Flags: W
LayerCount: 2
Fore
SplineSet
425 1446 m 0,0,1
 441 1515 441 1515 523 1515 c 2,2,-1
 1212 1515 l 2,3,4
 1279 1515 1279 1515 1262 1443 c 0,5,6
 1245 1370 1245 1370 1180 1370 c 2,7,-1
 895 1370 l 1,8,-1
 597 79 l 2,9,10
 579 0 579 0 510 0 c 256,11,12
 442 0 442 0 460 77 c 2,13,-1
 759 1370 l 1,14,-1
 487 1370 l 2,15,16
 407 1370 407 1370 425 1446 c 0,0,1
EndSplineSet
Validated: 33
EndChar

StartChar: Upsilon
Encoding: 933 933 364
Width: 1165
GlyphClass: 2
Flags: W
LayerCount: 2
Fore
SplineSet
694 761 m 1,0,1
 427 1392 l 0,2,3
 417 1415 417 1415 423 1438 c 0,4,5
 440 1511 440 1511 513 1511 c 0,6,7
 546 1511 546 1511 562 1466 c 2,8,-1
 792 906 l 1,9,-1
 1286 1475 l 2,10,11
 1318 1511 1318 1511 1353 1511 c 0,12,13
 1424 1511 1424 1511 1408 1442 c 0,14,15
 1402 1417 1402 1417 1378 1388 c 2,16,-1
 826 757 l 1,17,-1
 670 85 l 2,18,19
 650 0 650 0 586 0 c 0,20,21
 518 0 518 0 538 87 c 2,22,-1
 694 761 l 1,0,1
EndSplineSet
Validated: 33
EndChar

StartChar: Phi
Encoding: 934 934 365
Width: 1312
GlyphClass: 2
Flags: W
LayerCount: 2
Fore
SplineSet
918 1437 m 2,0,1
 937 1520 937 1520 1010 1520 c 2,2,-1
 1280 1520 l 2,3,4
 1360 1520 1360 1520 1342 1442 c 0,5,6
 1325 1370 1325 1370 1243 1370 c 2,7,-1
 1050 1370 l 1,8,-1
 1033 1298 l 1,9,10
 1234 1298 1234 1298 1339 1147 c 0,11,12
 1450 987 1450 987 1397 758 c 128,-1,13
 1344 529 1344 529 1114 353 c 0,14,15
 959 235 959 235 788 235 c 1,16,-1
 757 101 l 2,17,18
 734 0 734 0 649 0 c 2,19,-1
 387 0 l 2,20,21
 304 0 304 0 321 73 c 0,22,23
 339 149 339 149 422 149 c 2,24,-1
 621 149 l 1,25,-1
 641 235 l 1,26,27
 439 235 439 235 330 391 c 0,28,29
 218 551 218 551 265 752 c 0,30,31
 318 980 318 980 458 1107 c 0,32,33
 674 1302 674 1302 887 1302 c 1,34,-1
 918 1437 l 2,0,1
851 1147 m 1,35,36
 728 1147 728 1147 603 1059 c 0,37,38
 454 955 454 955 411 766 c 0,39,40
 372 595 372 595 465 482 c 0,41,42
 539 392 539 392 677 392 c 1,43,-1
 851 1147 l 1,35,36
999 1147 m 1,44,-1
 825 392 l 1,45,46
 978 392 978 392 1095 500 c 0,47,48
 1225 620 1225 620 1261 777 c 0,49,50
 1299 941 1299 941 1201 1059 c 0,51,52
 1128 1147 1128 1147 999 1147 c 1,44,-1
EndSplineSet
Validated: 33
EndChar

StartChar: Chi
Encoding: 935 935 366
Width: 1169
GlyphClass: 2
Flags: W
LayerCount: 2
Fore
SplineSet
678 755 m 1,0,1
 430 1392 l 0,2,3
 421 1417 421 1417 426 1441 c 0,4,5
 441 1507 441 1507 511 1507 c 0,6,7
 545 1507 545 1507 563 1463 c 2,8,-1
 790 889 l 1,9,-1
 1290 1473 l 2,10,11
 1323 1511 1323 1511 1361 1511 c 0,12,13
 1428 1511 1428 1511 1412 1443 c 0,14,15
 1406 1416 1406 1416 1372 1377 c 2,16,-1
 841 755 l 1,17,-1
 1088 115 l 2,18,19
 1098 92 1098 92 1093 74 c 0,20,21
 1076 0 1076 0 1008 0 c 0,22,23
 969 0 969 0 953 43 c 2,24,-1
 729 625 l 1,25,-1
 231 38 l 2,26,27
 198 0 198 0 166 0 c 0,28,29
 91 0 91 0 107 70 c 0,30,31
 112 93 112 93 141 127 c 2,32,-1
 678 755 l 1,0,1
EndSplineSet
Validated: 33
EndChar

StartChar: Psi
Encoding: 936 936 367
Width: 1224
GlyphClass: 2
Flags: W
LayerCount: 2
Fore
SplineSet
445 1417 m 2,0,1
 467 1511 467 1511 542 1511 c 0,2,3
 611 1511 611 1511 586 1407 c 2,4,-1
 476 928 l 2,5,6
 438 763 438 763 517 638 c 0,7,8
 562 567 562 567 669 540 c 1,9,-1
 871 1417 l 2,10,11
 893 1511 893 1511 966 1511 c 0,12,13
 1033 1511 1033 1511 1009 1409 c 2,14,-1
 808 538 l 1,15,16
 933 572 933 572 1005 634 c 0,17,18
 1144 754 1144 754 1187 940 c 2,19,-1
 1298 1419 l 2,20,21
 1319 1511 1319 1511 1386 1511 c 0,22,23
 1455 1511 1455 1511 1433 1417 c 2,24,-1
 1315 905 l 2,25,26
 1264 682 1264 682 1112 552 c 0,27,28
 922 388 922 388 777 388 c 1,29,-1
 708 88 l 2,30,31
 688 0 688 0 615 0 c 0,32,33
 544 0 544 0 565 90 c 2,34,-1
 633 384 l 1,35,36
 459 417 459 417 379 551 c 0,37,38
 282 713 282 713 333 930 c 2,39,-1
 445 1417 l 2,0,1
EndSplineSet
Validated: 33
EndChar

StartChar: Omega
Encoding: 937 937 368
Width: 1221
GlyphClass: 2
Flags: W
LayerCount: 2
Fore
SplineSet
958 1520 m 0,0,1
 1158 1520 1158 1520 1265 1380 c 0,2,3
 1382 1226 1382 1226 1334 1019 c 2,4,5
 1278 778 l 0,6,7
 1249 653 1249 653 1130 522 c 0,8,9
 1058 442 1058 442 983 404 c 1,10,-1
 925 150 l 1,11,-1
 1046 150 l 2,12,13
 1138 150 1138 150 1122 81 c 0,14,15
 1103 0 1103 0 1016 0 c 2,16,17
 826 0 l 0,18,19
 755 0 755 0 774 81 c 2,20,21
 856 438 l 0,22,23
 867 486 867 486 917 513 c 0,24,25
 998 559 998 559 1053 629 c 0,26,27
 1132 730 1132 730 1150 805 c 2,28,29
 1193 994 l 0,30,31
 1229 1150 1229 1150 1155 1250 c 0,32,33
 1066 1370 1066 1370 924 1370 c 128,-1,34
 782 1370 782 1370 662 1268 c 0,35,36
 516 1145 516 1145 480 988 c 2,37,-1
 442 822 l 2,38,39
 416 708 416 708 472 598 c 0,40,41
 493 558 493 558 546 511 c 0,42,43
 578 484 578 484 564 423 c 2,44,45
 484 77 l 0,46,47
 466 0 466 0 402 0 c 2,48,-1
 195 0 l 2,49,50
 118 0 118 0 136 76 c 0,51,52
 153 149 153 149 231 149 c 2,53,-1
 362 149 l 1,54,-1
 419 397 l 1,55,56
 346 470 346 470 326 528 c 0,57,58
 275 679 275 679 312 839 c 2,59,-1
 344 979 l 2,60,61
 398 1215 398 1215 577 1365 c 0,62,63
 760 1520 760 1520 958 1520 c 0,0,1
EndSplineSet
Validated: 33
EndChar

StartChar: alpha
Encoding: 945 945 376
Width: 1083
GlyphClass: 2
Flags: W
LayerCount: 2
Fore
SplineSet
991 960 m 2,0,1
 1022 1012 1022 1012 1064 1012 c 0,2,3
 1132 1012 1132 1012 1116 942 c 0,4,5
 1111 918 1111 918 1079 870 c 2,6,-1
 847 489 l 1,7,-1
 875 244 l 2,8,9
 885 147 885 147 930 147 c 0,10,11
 993 147 993 147 977 74 c 0,12,13
 961 3 961 3 898 3 c 0,14,15
 768 3 768 3 751 153 c 2,16,-1
 733 302 l 1,17,-1
 662 188 l 2,18,19
 547 3 547 3 374 3 c 0,20,21
 284 3 284 3 220 74 c 0,22,23
 148 153 148 153 187 321 c 2,24,-1
 278 718 l 2,25,26
 305 837 305 837 400 923 c 0,27,28
 495 1012 495 1012 613 1012 c 0,29,30
 790 1012 790 1012 810 813 c 2,31,-1
 824 681 l 1,32,-1
 991 960 l 2,0,1
710 495 m 1,33,-1
 682 743 l 2,34,35
 669 859 669 859 575 859 c 0,36,37
 447 859 447 859 410 697 c 2,38,-1
 323 322 l 2,39,40
 285 157 285 157 413 157 c 0,41,42
 500 157 500 157 567 265 c 2,43,-1
 710 495 l 1,33,-1
EndSplineSet
Validated: 33
EndChar

StartChar: beta
Encoding: 946 946 377
Width: 1062
GlyphClass: 2
Flags: W
LayerCount: 2
Fore
SplineSet
962 843 m 1,0,1
 1013 811 1013 811 1037 731 c 0,2,3
 1066 631 1066 631 1047 551 c 2,4,-1
 1002 357 l 2,5,6
 972 227 972 227 851 110 c 0,7,8
 738 0 738 0 593 0 c 0,9,10
 525 0 525 0 542 75 c 0,11,12
 558 145 558 145 633 145 c 0,13,14
 701 145 701 145 766 204 c 0,15,16
 852 279 852 279 874 374 c 2,17,-1
 912 536 l 2,18,19
 927 601 927 601 902 665 c 0,20,21
 869 757 869 757 768 757 c 0,22,23
 701 757 701 757 719 834 c 0,24,25
 735 905 735 905 800 905 c 0,26,27
 846 905 846 905 897 946 c 0,28,29
 950 988 950 988 967 1061 c 2,30,31
 999 1200 l 0,32,33
 1015 1268 1015 1268 982 1316 c 128,-1,34
 949 1364 949 1364 898 1364 c 2,35,-1
 786 1364 l 2,36,37
 696 1364 696 1364 625 1299 c 0,38,39
 550 1231 550 1231 530 1144 c 2,40,-1
 182 -362 l 2,41,42
 159 -461 159 -461 84 -461 c 0,43,44
 23 -461 23 -461 46 -361 c 2,45,-1
 392 1135 l 2,46,47
 429 1295 429 1295 548 1398 c 0,48,49
 674 1511 674 1511 802 1511 c 2,50,-1
 946 1511 l 2,51,52
 1049 1511 1049 1511 1113 1409 c 0,53,54
 1160 1336 1160 1336 1132 1215 c 2,55,-1
 1093 1045 l 2,56,57
 1065 922 1065 922 962 843 c 1,0,1
EndSplineSet
Validated: 33
EndChar

StartChar: gamma
Encoding: 947 947 378
Width: 973
GlyphClass: 2
Flags: W
LayerCount: 2
Fore
SplineSet
314 986 m 0,0,1
 330 1054 330 1054 389 1054 c 0,2,3
 413 1054 413 1054 440 1037 c 0,4,5
 582 948 582 948 697 732 c 1,6,7
 809 873 809 873 990 1024 c 0,8,9
 1026 1054 1026 1054 1053 1054 c 0,10,11
 1122 1054 1122 1054 1106 986 c 0,12,13
 1099 954 1099 954 1044 906 c 0,14,15
 869 752 869 752 750 607 c 1,16,17
 817 428 817 428 819 214 c 0,18,19
 821 29 821 29 785 -126 c 0,20,21
 750 -277 750 -277 666 -358 c 0,22,23
 565 -456 565 -456 442 -456 c 0,24,25
 323 -456 323 -456 273 -360 c 0,26,27
 225 -265 225 -265 263 -104 c 0,28,29
 299 54 299 54 394 249 c 0,30,31
 497 461 497 461 594 594 c 1,32,33
 497 804 497 804 344 906 c 0,34,35
 302 934 302 934 314 986 c 0,0,1
645 452 m 1,36,37
 452 148 452 148 393 -106 c 0,38,39
 347 -305 347 -305 478 -305 c 0,40,41
 613 -305 613 -305 659 -106 c 0,42,43
 725 179 725 179 645 452 c 1,36,37
EndSplineSet
Validated: 33
EndChar

StartChar: delta
Encoding: 948 948 379
Width: 897
GlyphClass: 2
Flags: W
LayerCount: 2
Fore
SplineSet
273 696 m 2,0,1
 301 816 301 816 410 931 c 0,2,3
 479 1004 479 1004 580 1037 c 1,4,-1
 501 1123 l 2,5,6
 453 1173 453 1173 481 1290 c 0,7,8
 501 1377 501 1377 581 1451 c 0,9,10
 649 1514 649 1514 732 1514 c 2,11,-1
 981 1514 l 2,12,13
 1057 1514 1057 1514 1039 1433 c 0,14,15
 1024 1366 1024 1366 943 1366 c 2,16,-1
 717 1366 l 2,17,18
 630 1366 630 1366 612 1287 c 0,19,20
 602 1245 602 1245 627 1221 c 2,21,-1
 862 988 l 2,22,23
 977 880 977 880 928 668 c 2,24,-1
 856 358 l 2,25,26
 822 212 822 212 701 106 c 0,27,28
 580 -3 580 -3 454 -3 c 0,29,30
 309 -3 309 -3 235 106 c 0,31,32
 161 210 161 210 198 370 c 2,33,-1
 273 696 l 2,0,1
405 684 m 2,34,-1
 331 365 l 2,35,36
 308 266 308 266 381 184 c 0,37,38
 413 146 413 146 483 146 c 0,39,40
 549 146 549 146 616 198 c 0,41,42
 698 261 698 261 724 373 c 2,43,-1
 796 686 l 2,44,45
 819 784 819 784 765 851 c 0,46,47
 722 905 722 905 652 905 c 0,48,49
 601 905 601 905 544 872 c 0,50,51
 434 809 434 809 405 684 c 2,34,-1
EndSplineSet
Validated: 33
EndChar

StartChar: epsilon
Encoding: 949 949 380
Width: 835
GlyphClass: 2
Flags: W
LayerCount: 2
Fore
SplineSet
910 986 m 0,0,1
 956 963 956 963 952 920 c 0,2,3
 950 899 950 899 934 873 c 0,4,5
 909 833 909 833 871 833 c 0,6,7
 850 833 850 833 822 846 c 0,8,9
 698 906 698 906 585 906 c 0,10,11
 432 906 432 906 395 747 c 0,12,13
 362 604 362 604 542 604 c 0,14,15
 616 604 616 604 599 528 c 128,-1,16
 582 452 582 452 506 452 c 0,17,18
 410 452 410 452 369 421 c 0,19,20
 308 374 308 374 294 314 c 0,21,22
 255 147 255 147 398 147 c 0,23,24
 507 147 507 147 675 210 c 0,25,26
 710 223 710 223 737 223 c 0,27,28
 763 223 763 223 772 199.5 c 128,-1,29
 781 176 781 176 774 144 c 0,30,31
 763 98 763 98 700 71 c 0,32,33
 536 0 536 0 374 0 c 0,34,35
 250 0 250 0 190 75 c 0,36,37
 123 159 123 159 155 296 c 0,38,39
 188 438 188 438 299 530 c 1,40,41
 231 624 231 624 264 770 c 0,42,43
 287 869 287 869 370 954 c 0,44,45
 467 1054 467 1054 608 1054 c 0,46,47
 776 1054 776 1054 910 986 c 0,0,1
EndSplineSet
Validated: 33
EndChar

StartChar: zeta
Encoding: 950 950 381
Width: 842
GlyphClass: 2
Flags: W
LayerCount: 2
Fore
SplineSet
418 1438 m 2,0,1
 437 1520 437 1520 505 1520 c 0,2,3
 572 1520 572 1520 553 1437 c 2,4,-1
 540 1382 l 2,5,6
 520 1294 520 1294 586 1294 c 2,7,-1
 887 1294 l 2,8,9
 980 1294 980 1294 961 1214 c 0,10,11
 954 1185 954 1185 894 1124 c 0,12,13
 592 820 592 820 363 445 c 0,14,15
 302 346 302 346 291 295 c 0,16,17
 276 230 276 230 315 184 c 0,18,19
 345 150 345 150 397 150 c 2,20,-1
 576 150 l 2,21,22
 674 150 674 150 714 75 c 0,23,24
 750 9 750 9 731 -74 c 2,25,-1
 698 -216 l 2,26,27
 671 -331 671 -331 590 -398 c 0,28,29
 521 -456 521 -456 452 -456 c 0,30,31
 381 -456 381 -456 397 -383 c 0,32,33
 415 -303 415 -303 484 -303 c 0,34,35
 543 -303 543 -303 563 -221 c 2,36,-1
 593 -91 l 2,37,38
 614 0 614 0 542 0 c 2,39,-1
 367 0 l 2,40,41
 244 0 244 0 192 82 c 0,42,43
 130 174 130 174 159 301 c 0,44,45
 175 371 175 371 240 483 c 0,46,47
 427 802 427 802 736 1141 c 1,48,-1
 555 1141 l 2,49,50
 451 1141 451 1141 413 1227 c 0,51,52
 384 1291 384 1291 402 1368 c 2,53,-1
 418 1438 l 2,0,1
EndSplineSet
Validated: 33
EndChar

StartChar: eta
Encoding: 951 951 382
Width: 1010
GlyphClass: 2
Flags: W
LayerCount: 2
Fore
SplineSet
493 903 m 1,0,1
 611 1010 611 1010 747 1010 c 0,2,3
 879 1010 879 1010 953 897 c 0,4,5
 1021 800 1021 800 991 670 c 2,6,7
 751 -367 l 0,8,9
 731 -453 731 -453 671 -453 c 0,10,11
 600 -453 600 -453 620 -367 c 2,12,13
 856 653 l 0,14,15
 874 731 874 731 820 806 c 0,16,17
 784 857 784 857 706 857 c 0,18,19
 629 857 629 857 569 804 c 0,20,21
 483 729 483 729 461 632 c 2,22,-1
 331 71 l 2,23,24
 311 -17 311 -17 249 -18 c 0,25,26
 174 -18 174 -18 195 71 c 2,27,-1
 358 776 l 2,28,29
 377 857 377 857 314 857 c 0,30,31
 250 857 250 857 268 936 c 0,32,33
 284 1007 284 1007 354 1007 c 0,34,35
 464 1007 464 1007 493 903 c 1,0,1
EndSplineSet
Validated: 33
EndChar

StartChar: theta
Encoding: 952 952 383
Width: 987
GlyphClass: 2
Flags: W
LayerCount: 2
Fore
SplineSet
881 987 m 1,0,1
 928 1193 l 0,2,3
 942 1252 942 1252 912 1309 c 0,4,5
 881 1368 881 1368 802 1368 c 0,6,7
 740 1368 740 1368 674 1306 c 0,8,9
 620 1255 620 1255 601 1174 c 0,10,11
 583 1098 583 1098 622 1041 c 0,12,13
 658 987 658 987 730 987 c 2,14,-1
 881 987 l 1,0,1
850 837 m 1,15,-1
 660 837 l 2,16,17
 567 837 567 837 494 944 c 0,18,19
 433 1035 433 1035 466 1179 c 0,20,21
 494 1302 494 1302 612 1423 c 0,22,23
 703 1517 703 1517 839 1517 c 0,24,25
 973 1517 973 1517 1039 1407 c 0,26,27
 1093 1317 1093 1317 1064 1193 c 2,28,-1
 1016 985 l 1,29,-1
 1070 985 l 2,30,31
 1146 985 1146 985 1129 910 c 0,32,33
 1112 837 1112 837 1043 837 c 2,34,-1
 982 837 l 1,35,-1
 883 410 l 2,36,37
 837 210 837 210 701 96 c 0,38,39
 586 0 586 0 463.5 0 c 128,-1,40
 341 0 341 0 272 85 c 0,41,42
 178 201 178 201 216 361 c 0,43,44
 237 453 237 453 145 453 c 0,45,46
 35 453 35 453 52 526 c 0,47,48
 71 610 71 610 157 610 c 0,49,50
 284 610 284 610 324 545 c 0,51,52
 366 477 366 477 346 388 c 0,53,54
 319 269 319 269 385 194 c 0,55,56
 422 152 422 152 502 152 c 0,57,58
 583 152 583 152 648 218 c 0,59,60
 725 295 725 295 755 426 c 2,61,-1
 850 837 l 1,15,-1
EndSplineSet
Validated: 33
EndChar

StartChar: iota
Encoding: 953 953 384
Width: 789
GlyphClass: 2
Flags: W
LayerCount: 2
Fore
SplineSet
338 976 m 2,0,1
 358 1062 358 1062 428 1062 c 0,2,3
 496 1062 496 1062 477 977 c 2,4,5
 348 419 l 0,6,7
 320 297 320 297 351 231 c 0,8,9
 389 149 389 149 477 149 c 0,10,11
 557 149 557 149 630 213 c 0,12,13
 657 237 657 237 689 237 c 0,14,15
 748 237 748 237 731 165 c 0,16,17
 722 128 722 128 682 93 c 0,18,19
 575 0 575 0 449 0 c 0,20,21
 315 0 315 0 244 106 c 0,22,23
 163 220 163 220 211 426 c 2,24,-1
 338 976 l 2,0,1
EndSplineSet
Validated: 33
EndChar

StartChar: kappa
Encoding: 954 954 385
Width: 861
GlyphClass: 2
Flags: W
LayerCount: 2
Fore
SplineSet
265 906 m 0,0,1
 200 906 200 906 219 984 c 0,2,3
 235 1054 235 1054 309 1054 c 0,4,5
 387 1054 387 1054 428 985 c 0,6,7
 466 921 466 921 444 823 c 2,8,-1
 379 540 l 1,9,-1
 822 1021 l 2,10,11
 854 1054 854 1054 887 1054 c 0,12,13
 951 1054 951 1054 936 986 c 0,14,15
 929 954 929 954 898 922 c 2,16,-1
 578 576 l 1,17,-1
 695 184 l 2,18,19
 707 145 707 145 744 145 c 0,20,21
 805 145 805 145 787 69 c 0,22,23
 771 0 771 0 694 0 c 0,24,25
 597 0 597 0 565 112 c 2,26,-1
 467 454 l 1,27,-1
 324 301 l 1,28,-1
 273 80 l 2,29,30
 255 0 255 0 192 0 c 0,31,32
 121 0 121 0 138 77 c 2,33,34
 312 830 l 0,35,36
 329 906 329 906 265 906 c 0,0,1
EndSplineSet
Validated: 33
EndChar

StartChar: lambda
Encoding: 955 955 386
Width: 960
GlyphClass: 2
Flags: W
LayerCount: 2
Fore
SplineSet
787 213 m 2,0,1
 792 148 792 148 840 148 c 0,2,3
 901 148 901 148 881 65 c 0,4,5
 866 0 866 0 792 0 c 0,6,7
 665 0 665 0 653 169 c 2,8,9
 615 718 l 1,10,-1
 235 65 l 2,11,12
 197 0 197 0 155 0 c 0,13,14
 87 0 87 0 102 67 c 0,15,16
 107 89 107 89 124 120 c 2,17,-1
 604 947 l 1,18,-1
 583 1297 l 2,19,20
 579 1365 579 1365 535 1365 c 0,21,22
 468 1365 468 1365 486 1440 c 0,23,24
 502 1511 502 1511 575 1511 c 0,25,26
 704 1511 704 1511 713 1361 c 2,27,-1
 787 213 l 2,0,1
EndSplineSet
Validated: 33
EndChar

StartChar: mu
Encoding: 956 956 387
Width: 982
GlyphClass: 2
Flags: W
LayerCount: 2
Fore
SplineSet
354 971 m 2,0,1
 373 1054 373 1054 443 1054 c 0,2,3
 509 1054 509 1054 488 963 c 2,4,5
 354 384 l 0,6,7
 330 280 330 280 373 215 c 0,8,9
 418 146 418 146 499 146 c 128,-1,10
 580 146 580 146 642 205 c 0,11,12
 726 284 726 284 747 376 c 2,13,-1
 886 976 l 2,14,15
 905 1057 905 1057 973 1057 c 0,16,17
 1036 1057 1036 1057 1015 968 c 2,18,-1
 844 225 l 2,19,20
 826 148 826 148 896 148 c 0,21,22
 956 148 956 148 939 74 c 128,-1,23
 922 0 922 0 850 0 c 0,24,25
 747 0 747 0 713 102 c 1,26,27
 609 0 609 0 463 0 c 0,28,29
 356 0 356 0 283 68 c 1,30,-1
 180 -381 l 2,31,32
 162 -461 162 -461 90 -461 c 0,33,34
 23 -461 23 -461 43 -378 c 2,35,-1
 354 971 l 2,0,1
EndSplineSet
Validated: 33
EndChar

StartChar: nu
Encoding: 957 957 388
Width: 962
GlyphClass: 2
Flags: W
LayerCount: 2
Fore
SplineSet
957 943 m 0,0,1
 980 1010 980 1010 1038 1010 c 0,2,3
 1102 1010 1102 1010 1084 935 c 0,4,5
 1079 915 1079 915 1055 856 c 0,6,7
 960 625 960 625 817 420 c 0,8,9
 681 225 681 225 515 71 c 0,10,11
 442 3 442 3 411 3 c 0,12,13
 359 3 359 3 365 77 c 2,14,15
 399 786 l 0,16,17
 402 859 402 859 356 859 c 0,18,19
 285 859 285 859 303 940 c 0,20,21
 320 1012 320 1012 388 1012 c 0,22,23
 538 1012 538 1012 530 821 c 2,24,-1
 502 225 l 1,25,26
 694 427 694 427 799.5 613.5 c 128,-1,27
 905 800 905 800 957 943 c 0,0,1
EndSplineSet
Validated: 33
EndChar

StartChar: xi
Encoding: 958 958 389
Width: 976
GlyphClass: 2
Flags: W
LayerCount: 2
Fore
SplineSet
725 146 m 2,0,1
 800 146 800 146 844 79 c 0,2,3
 885 18 885 18 866 -64 c 2,4,-1
 828 -228 l 2,5,6
 805 -326 805 -326 731.5 -391 c 128,-1,7
 658 -456 658 -456 576 -456 c 0,8,9
 516 -456 516 -456 533 -384 c 0,10,11
 551 -306 551 -306 620 -306 c 0,12,13
 678 -306 678 -306 698 -217 c 2,14,-1
 733 -66 l 2,15,16
 748 0 748 0 678 0 c 2,17,-1
 479 0 l 2,18,19
 318 0 318 0 244 126 c 0,20,21
 153 273 153 273 187 420 c 2,22,-1
 200 478 l 2,23,24
 257 724 257 724 496 854 c 1,25,26
 440 930 440 930 469 1054 c 0,27,28
 493 1159 493 1159 543 1218 c 1,29,30
 454 1244 454 1244 427 1309 c 0,31,32
 403 1370 403 1370 418 1437 c 0,33,34
 436 1516 436 1516 501 1516 c 0,35,36
 566 1516 566 1516 548 1440 c 0,37,38
 531 1367 531 1367 603 1367 c 2,39,-1
 970 1367 l 2,40,41
 1051 1367 1051 1367 1035 1296 c 0,42,43
 1018 1221 1018 1221 938 1221 c 2,44,-1
 832 1221 l 2,45,46
 719 1221 719 1221 666 1173 c 0,47,48
 617 1129 617 1129 602 1063 c 0,49,50
 590 1010 590 1010 618 956 c 0,51,52
 644 906 644 906 758 906 c 2,53,-1
 873 906 l 2,54,55
 945 906 945 906 930 840 c 0,56,57
 913 765 913 765 841 765 c 2,58,-1
 712 765 l 2,59,60
 560 765 560 765 465 674 c 0,61,62
 357 573 357 573 336 478 c 2,63,-1
 317 396 l 2,64,65
 299 320 299 320 371 218 c 0,66,67
 419 146 419 146 603 146 c 2,68,-1
 725 146 l 2,0,1
EndSplineSet
Validated: 33
EndChar

StartChar: omicron
Encoding: 959 959 390
Width: 885
GlyphClass: 2
Flags: W
LayerCount: 2
Fore
SplineSet
496 813 m 0,0,1
 415 758 415 758 388 643 c 2,2,3
 322 357 l 0,4,5
 298 252 298 252 377 187 c 0,6,7
 423 150 423 150 477.5 150 c 128,-1,8
 532 150 532 150 598 191 c 0,9,10
 696 252 696 252 727 386 c 2,11,-1
 781 623 l 2,12,13
 808 741 808 741 759 805 c 0,14,15
 712 866 712 866 643.5 866 c 128,-1,16
 575 866 575 866 496 813 c 0,0,1
661 1010 m 0,17,18
 805 1010 805 1010 873 910 c 0,19,20
 949 805 949 805 921 686 c 2,21,-1
 845 356 l 2,22,23
 808 196 808 196 677 95 c 0,24,25
 567 8 567 8 439 8 c 0,26,27
 303 8 303 8 244 99 c 0,28,29
 163 216 163 216 196 360 c 2,30,-1
 267 671 l 2,31,32
 302 824 302 824 452 931 c 0,33,34
 557 1010 557 1010 661 1010 c 0,17,18
EndSplineSet
Validated: 33
EndChar

StartChar: pi
Encoding: 960 960 391
Width: 1149
GlyphClass: 2
Flags: W
LayerCount: 2
Fore
SplineSet
388 853 m 2,0,1
 309 853 309 853 328 934 c 0,2,3
 345 1007 345 1007 429 1007 c 2,4,5
 1181 1007 l 0,6,7
 1259 1007 1259 1007 1241 929 c 0,8,9
 1223 853 1223 853 1152 853 c 2,10,11
 1030 853 l 1,12,13
 891 248 l 0,14,15
 868 147 868 147 932.5 147 c 128,-1,16
 997 147 997 147 981 78 c 0,17,18
 963 0 963 0 899 0 c 0,19,20
 700 0 700 0 760 260 c 2,21,-1
 897 853 l 1,22,-1
 635 853 l 1,23,-1
 494 242 l 2,24,25
 438 0 438 0 245 0 c 0,26,27
 177 0 177 0 191 63 c 0,28,29
 209 143 209 143 284 143 c 0,30,31
 340 143 340 143 362 241 c 2,32,-1
 504 853 l 1,33,-1
 388 853 l 2,0,1
EndSplineSet
Validated: 33
EndChar

StartChar: rho
Encoding: 961 961 392
Width: 891
GlyphClass: 2
Flags: W
LayerCount: 2
Fore
SplineSet
273 -147 m 0,0,1
 298 -39 298 -39 252 58 c 0,2,3
 165 227 165 227 198 372 c 2,4,-1
 274 699 l 2,5,6
 312 863 312 863 461 973 c 0,7,8
 569 1054 569 1054 677 1054 c 0,9,10
 821 1054 821 1054 891.5 947 c 128,-1,11
 962 840 962 840 933 715 c 2,12,-1
 853 367 l 2,13,14
 816 208 816 208 681 93 c 0,15,16
 575 0 575 0 423 0 c 1,17,18
 423 -82 423 -82 412 -128 c 2,19,-1
 400 -178 l 2,20,21
 372 -299 372 -299 280 -410 c 0,22,23
 242 -456 242 -456 202 -456 c 0,24,25
 142 -456 142 -456 158 -387 c 0,26,27
 168 -345 168 -345 189 -326 c 0,28,29
 243 -278 243 -278 273 -147 c 0,0,1
505 855 m 0,30,31
 424 796 424 796 395 672 c 2,32,-1
 326 374 l 2,33,34
 302 268 302 268 368 192 c 0,35,36
 410 148 410 148 483 148 c 0,37,38
 551 148 551 148 602 187 c 0,39,40
 704 266 704 266 737 409 c 2,41,-1
 793 651 l 2,42,43
 822 777 822 777 774 846 c 0,44,45
 728 912 728 912 659 912 c 0,46,47
 586 912 586 912 505 855 c 0,30,31
EndSplineSet
Validated: 33
EndChar

StartChar: sigma1
Encoding: 962 962 393
Width: 1024
GlyphClass: 2
Flags: W
LayerCount: 2
Fore
SplineSet
432 908 m 0,0,1
 568 1054 568 1054 809 1054 c 2,2,-1
 925 1054 l 2,3,4
 997 1054 997 1054 982 990 c 0,5,6
 965 915 965 915 893 915 c 2,7,-1
 763 915 l 2,8,9
 608 915 608 915 513 824 c 0,10,11
 417 732 417 732 383 588 c 2,12,-1
 339 396 l 2,13,14
 321 319 321 319 388 218 c 0,15,16
 435 146 435 146 619 146 c 2,17,-1
 742 146 l 2,18,19
 817 146 817 146 861 79 c 0,20,21
 902 18 902 18 884 -64 c 2,22,23
 846 -228 l 0,24,25
 823 -326 823 -326 749 -391 c 128,-1,26
 675 -456 675 -456 593 -456 c 0,27,28
 533 -456 533 -456 551 -384 c 0,29,30
 569 -306 569 -306 637 -306 c 0,31,32
 695 -306 695 -306 715 -217 c 2,33,34
 750 -66 l 0,35,36
 765 0 765 0 695 0 c 2,37,-1
 496 0 l 2,38,39
 339 0 339 0 266 126 c 0,40,41
 175 272 175 272 209 420 c 2,42,-1
 248 588 l 2,43,44
 288 758 288 758 432 908 c 0,0,1
EndSplineSet
Validated: 33
EndChar

StartChar: sigma
Encoding: 963 963 394
Width: 1067
GlyphClass: 2
Flags: W
LayerCount: 2
Fore
SplineSet
1011 1005 m 2,0,1
 1073 1005 1073 1005 1098 1113 c 0,2,3
 1120 1208 1120 1208 1190 1208 c 0,4,5
 1250 1208 1250 1208 1228 1114 c 0,6,7
 1198 984 1198 984 1104 908 c 0,8,9
 1033 850 1033 850 905 850 c 1,10,11
 948 764 948 764 921 645 c 2,12,-1
 855 359 l 2,13,14
 816 191 816 191 684 87 c 0,15,16
 578 0 578 0 446 0 c 0,17,18
 317 0 317 0 250 88 c 0,19,20
 159 202 159 202 192 345 c 2,21,-1
 261 645 l 2,22,23
 299 811 299 811 450 923 c 0,24,25
 555 1005 555 1005 683 1005 c 2,26,-1
 1011 1005 l 2,0,1
503 804 m 0,27,28
 422 749 422 749 395 634 c 2,29,-1
 329 349 l 2,30,31
 308 258 308 258 369 191 c 0,32,33
 409 146 409 146 474.5 146 c 128,-1,34
 540 146 540 146 606 188 c 0,35,36
 700 248 700 248 729 378 c 2,37,-1
 784 615 l 2,38,39
 811 731 811 731 766 796 c 0,40,41
 731 850 731 850 641 850 c 0,42,43
 572 850 572 850 503 804 c 0,27,28
EndSplineSet
Validated: 33
EndChar

StartChar: tau
Encoding: 964 964 395
Width: 1028
GlyphClass: 2
Flags: W
LayerCount: 2
Fore
SplineSet
745 855 m 1,0,-1
 623 325 l 2,1,2
 601 229 601 229 622 195 c 0,3,4
 649 152 649 152 690 152 c 0,5,6
 771 152 771 152 753.5 76 c 128,-1,7
 736 0 736 0 650 0 c 0,8,9
 550 0 550 0 497 96 c 0,10,11
 452 177 452 177 481 302 c 2,12,13
 609 855 l 1,14,-1
 355 855 l 2,15,16
 284 855 284 855 302 932.5 c 128,-1,17
 320 1010 320 1010 399 1010 c 2,18,-1
 1090 1010 l 2,19,20
 1167 1010 1167 1010 1149 935 c 0,21,22
 1131 855 1131 855 1060 855 c 2,23,-1
 745 855 l 1,0,-1
EndSplineSet
Validated: 33
EndChar

StartChar: upsilon
Encoding: 965 965 396
Width: 1129
GlyphClass: 2
Flags: W
LayerCount: 2
Fore
SplineSet
352 859 m 0,0,1
 284 859 284 859 303 936 c 0,2,3
 319 1007 319 1007 395 1007 c 128,-1,4
 471 1007 471 1007 515 941 c 0,5,6
 554 884 554 884 534 796 c 2,7,-1
 439 387 l 2,8,9
 414 280 414 280 456 218 c 0,10,11
 503 149 503 149 597 149 c 2,12,-1
 705 149 l 2,13,14
 800 149 800 149 870 218 c 0,15,16
 937 282 937 282 963 395 c 2,17,-1
 1085 924 l 2,18,19
 1104 1007 1104 1007 1176 1007 c 0,20,21
 1240 1007 1240 1007 1218 916 c 2,22,-1
 1092 371 l 2,23,24
 1056 214 1056 214 934 106 c 0,25,26
 816 0 816 0 678 0 c 2,27,-1
 560 0 l 2,28,29
 410 0 410 0 343 98 c 0,30,31
 265 205 265 205 303 370 c 2,32,-1
 397 776 l 2,33,34
 415 859 415 859 352 859 c 0,0,1
EndSplineSet
Validated: 33
EndChar

StartChar: phi
Encoding: 966 966 397
Width: 1154
GlyphClass: 2
Flags: W
LayerCount: 2
Fore
SplineSet
677 154 m 1,0,1
 803 191 803 191 896 290 c 0,2,3
 992 391 992 391 1022 521 c 2,4,-1
 1066 715 l 2,5,6
 1109 903 1109 903 978 903 c 0,7,8
 851 903 851 903 808 721 c 2,9,-1
 677 154 l 1,0,1
542 152 m 1,10,-1
 676 732 l 2,11,12
 708 872 708 872 803 960 c 0,13,14
 901 1054 901 1054 1016 1054 c 0,15,16
 1135 1054 1135 1054 1186 964 c 0,17,18
 1234 883 1234 883 1199 734 c 2,19,-1
 1149 514 l 2,20,21
 1101 305 1101 305 941 160 c 0,22,23
 799 26 799 26 640 0 c 1,24,-1
 558 -356 l 2,25,26
 535 -456 535 -456 465 -456 c 0,27,28
 402 -456 402 -456 425 -356 c 2,29,-1
 507 0 l 1,30,31
 374 27 374 27 307 114 c 0,32,33
 176 276 176 276 221 472 c 2,34,-1
 337 974 l 2,35,36
 356 1058 356 1058 425 1058 c 0,37,38
 486 1058 486 1058 466 968 c 2,39,-1
 367 542 l 2,40,41
 333 396 333 396 388 275 c 0,42,43
 431 179 431 179 542 152 c 1,10,-1
EndSplineSet
Validated: 33
EndChar

StartChar: chi
Encoding: 967 967 398
Width: 962
GlyphClass: 2
Flags: W
LayerCount: 2
Fore
SplineSet
700 957 m 1,0,-1
 1003 1448 l 2,1,2
 1047 1520 1047 1520 1082 1520 c 0,3,4
 1106 1520 1106 1520 1122 1506 c 0,5,6
 1145 1485 1145 1485 1136 1448 c 0,7,8
 1130 1424 1130 1424 1110 1390 c 2,9,-1
 724 760 l 1,10,-1
 785 213 l 2,11,12
 792 148 792 148 833 148 c 0,13,14
 902 148 902 148 885 74 c 128,-1,15
 868 0 868 0 793 0 c 0,16,17
 673 0 673 0 653 163 c 2,18,-1
 604 566 l 1,19,-1
 287 48 l 2,20,21
 260 3 260 3 218 3 c 0,22,23
 193 3 193 3 180 20 c 0,24,25
 164 42 164 42 172 76 c 0,26,27
 178 103 178 103 192 123 c 2,28,-1
 582 759 l 1,29,-1
 516 1329 l 2,30,31
 512 1367 512 1367 474 1367 c 0,32,33
 402 1367 402 1367 420 1443 c 0,34,35
 438 1520 438 1520 509 1520 c 0,36,37
 632 1520 632 1520 652 1360 c 2,38,-1
 700 957 l 1,0,-1
EndSplineSet
Validated: 33
EndChar

StartChar: psi
Encoding: 968 968 399
Width: 1159
GlyphClass: 2
Flags: W
LayerCount: 2
Fore
SplineSet
544 154 m 1,0,-1
 801 1267 l 2,1,2
 822 1357 822 1357 890 1357 c 0,3,4
 955 1357 955 1357 933 1261 c 2,5,-1
 678 157 l 1,6,7
 788 180 788 180 868 256 c 0,8,9
 989 370 989 370 1025 528 c 2,10,-1
 1125 961 l 2,11,12
 1146 1054 1146 1054 1216 1054 c 0,13,14
 1280 1054 1280 1054 1257 958 c 2,15,-1
 1159 530 l 2,16,17
 1107 304 1107 304 944 160 c 0,18,19
 799 26 799 26 642 0 c 1,20,-1
 558 -362 l 2,21,22
 536 -456 536 -456 468 -456 c 128,-1,23
 400 -456 400 -456 422 -358 c 2,24,-1
 505 0 l 1,25,26
 396 16 396 16 316 108 c 0,27,28
 173 264 173 264 237 538 c 2,29,-1
 334 960 l 2,30,31
 356 1054 356 1054 425 1054 c 0,32,33
 489 1054 489 1054 466 952 c 2,34,-1
 371 544 l 2,35,36
 334 382 334 382 405 252 c 0,37,38
 450 168 450 168 544 154 c 1,0,-1
EndSplineSet
Validated: 33
EndChar

StartChar: omega
Encoding: 969 969 400
Width: 1237
GlyphClass: 2
Flags: W
LayerCount: 2
Fore
SplineSet
1141 928 m 0,0,1
 1136 962 1136 962 1143 990 c 0,2,3
 1160 1065 1160 1065 1225 1065 c 0,4,5
 1276 1065 1276 1065 1278 968 c 0,6,7
 1286 618 1286 618 1237 408 c 0,8,9
 1197 235 1197 235 1091 128 c 0,10,11
 964 0 964 0 827 0 c 0,12,13
 692 0 692 0 637 102 c 1,14,15
 526 0 526 0 402 0 c 0,16,17
 276 0 276 0 189 146 c 0,18,19
 140 229 140 229 187 434 c 0,20,21
 242 672 242 672 423 1008 c 0,22,23
 453 1064 453 1064 499 1064 c 0,24,25
 560 1064 560 1064 544 994 c 0,26,27
 537 964 537 964 512 915 c 0,28,29
 355 606 355 606 310 410 c 0,30,31
 288 313 288 313 314 249 c 0,32,33
 354 151 354 151 444 151 c 0,34,35
 506 151 506 151 560 200 c 0,36,37
 608 244 608 244 626 320 c 2,38,-1
 671 516 l 2,39,40
 692 608 692 608 757 608 c 0,41,42
 818 608 818 608 797 514 c 2,43,-1
 753 326 l 2,44,45
 729 221 729 221 778 180 c 0,46,47
 812 151 812 151 855 151 c 0,48,49
 950 151 950 151 1017 234 c 0,50,51
 1080 311 1080 311 1106 426 c 0,52,53
 1173 717 1173 717 1141 928 c 0,0,1
EndSplineSet
Validated: 33
EndChar

StartChar: uni0401
Encoding: 1025 1025 408
Width: 946
GlyphClass: 2
Flags: W
LayerCount: 2
Fore
SplineSet
499 1511 m 1,0,-1
 1203 1528 l 1,1,-1
 842 0 l 1,2,-1
 150 0 l 1,3,-1
 499 1511 l 1,0,-1
1045 1745 m 128,-1,5
 1070 1853 1070 1853 1135 1853 c 0,6,7
 1211 1853 1211 1853 1185 1739 c 0,8,9
 1161 1637 1161 1637 1090 1637 c 0,10,4
 1020 1637 1020 1637 1045 1745 c 128,-1,5
620.5 1744 m 128,-1,12
 645 1851 645 1851 711 1851 c 0,13,14
 787 1851 787 1851 761 1737 c 0,15,16
 738 1637 738 1637 667 1637 c 0,17,11
 596 1637 596 1637 620.5 1744 c 128,-1,12
316 149 m 1,18,-1
 811 149 l 2,19,20
 880 149 880 149 864 77 c 256,21,22
 847 5 847 5 781 5 c 2,23,-1
 210 5 l 2,24,25
 149 5 149 5 166 80 c 2,26,-1
 479 1437 l 2,27,28
 497 1515 497 1515 580 1515 c 2,29,-1
 1122 1515 l 2,30,31
 1197 1515 1197 1515 1181 1442 c 0,32,33
 1164 1370 1164 1370 1089 1370 c 2,34,-1
 598 1370 l 1,35,-1
 490 904 l 1,36,-1
 849 904 l 2,37,38
 917 904 917 904 900 832 c 0,39,40
 884 764 884 764 819 764 c 2,41,-1
 458 764 l 1,42,-1
 316 149 l 1,18,-1
EndSplineSet
Validated: 37
EndChar

StartChar: afii10051
Encoding: 1026 1026 409
Width: 1271
GlyphClass: 2
Flags: W
LayerCount: 2
Fore
SplineSet
375 1446 m 0,0,1
 391 1515 391 1515 473 1515 c 2,2,-1
 1162 1515 l 2,3,4
 1229 1515 1229 1515 1212 1443 c 0,5,6
 1195 1370 1195 1370 1130 1370 c 2,7,-1
 845 1370 l 1,8,-1
 740 918 l 1,9,-1
 1118 918 l 2,10,11
 1229 918 1229 918 1298 825 c 0,12,13
 1353 751 1353 751 1323 619 c 2,14,-1
 1189 38 l 2,15,16
 1163 -73 1163 -73 1070 -154 c 0,17,18
 963 -247 963 -247 862 -247 c 2,19,-1
 781 -247 l 2,20,21
 710 -247 710 -247 727 -173 c 0,22,23
 743 -102 743 -102 810 -102 c 2,24,-1
 891 -102 l 2,25,26
 935 -102 935 -102 995 -50 c 0,27,28
 1046 -6 1046 -6 1059 49 c 2,29,-1
 1186 602 l 2,30,31
 1226 774 1226 774 1062 774 c 2,32,-1
 707 774 l 1,33,-1
 547 79 l 2,34,35
 529 0 529 0 460.5 0 c 128,-1,36
 392 0 392 0 410 77 c 2,37,-1
 709 1370 l 1,38,-1
 437 1370 l 2,39,40
 357 1370 357 1370 375 1446 c 0,0,1
EndSplineSet
Validated: 33
EndChar

StartChar: afii10053
Encoding: 1028 1028 411
Width: 928
GlyphClass: 2
Flags: W
LayerCount: 2
Fore
SplineSet
830 1515 m 2,0,-1
 1115 1515 l 2,1,2
 1184 1515 1184 1515 1166 1440 c 0,3,4
 1148 1364 1148 1364 1075 1364 c 2,5,-1
 795 1364 l 2,6,7
 717 1364 717 1364 626 1291 c 0,8,9
 557 1235 557 1235 536 1141 c 2,10,-1
 472 864 l 1,11,-1
 847 864 l 2,12,13
 914 864 914 864 897 787 c 0,14,15
 882 720 882 720 811 720 c 2,16,-1
 439 720 l 1,17,-1
 359 377 l 2,18,19
 337 283 337 283 381 215 c 0,20,21
 426 145 426 145 492 145 c 2,22,-1
 804 145 l 2,23,24
 871 145 871 145 854 72 c 0,25,26
 838 3 838 3 771 3 c 2,27,-1
 453 3 l 2,28,29
 325 3 325 3 244 136 c 0,30,31
 189 227 189 227 222 369 c 2,32,-1
 402 1152 l 2,33,34
 437 1302 437 1302 572 1413 c 0,35,36
 696 1515 696 1515 830 1515 c 2,0,-1
EndSplineSet
Validated: 33
EndChar

StartChar: afii10056
Encoding: 1031 1031 414
Width: 565
GlyphClass: 2
Flags: W
LayerCount: 2
Fore
SplineSet
282.5 0 m 128,-1,1
 212 0 212 0 234 94 c 2,2,-1
 540 1420 l 2,3,4
 561 1510 561 1510 631.5 1510 c 128,-1,5
 702 1510 702 1510 681 1417 c 2,6,-1
 376 96 l 2,7,0
 353 0 353 0 282.5 0 c 128,-1,1
827 1745 m 128,-1,9
 852 1853 852 1853 917 1853 c 0,10,11
 993 1853 993 1853 967 1739 c 0,12,13
 943 1637 943 1637 872 1637 c 0,14,8
 802 1637 802 1637 827 1745 c 128,-1,9
402.5 1744 m 128,-1,16
 427 1851 427 1851 493 1851 c 0,17,18
 569 1851 569 1851 543 1737 c 0,19,20
 520 1637 520 1637 449 1637 c 0,21,15
 378 1637 378 1637 402.5 1744 c 128,-1,16
EndSplineSet
Validated: 33
EndChar

StartChar: afii10058
Encoding: 1033 1033 416
Width: 1826
GlyphClass: 2
Flags: W
LayerCount: 2
Fore
SplineSet
170 152 m 0,0,1
 293 152 293 152 333 328 c 2,2,-1
 586 1426 l 2,3,4
 605 1508 605 1508 685 1508 c 2,5,-1
 1314 1508 l 2,6,7
 1381 1508 1381 1508 1363 1429 c 2,8,-1
 1241 902 l 1,9,-1
 1534 902 l 2,10,11
 1653 902 1653 902 1727 837 c 1,12,13
 1801 782 1801 782 1835 682 c 128,-1,14
 1869 582 1869 582 1841 460 c 0,15,16
 1791 242 1791 242 1633.5 121 c 128,-1,17
 1476 0 1476 0 1361 0 c 2,18,-1
 956 0 l 2,19,20
 893 0 893 0 911 79 c 2,21,-1
 1206 1360 l 1,22,-1
 712 1360 l 1,23,-1
 488 391 l 2,24,25
 440 184 440 184 361 98 c 0,26,27
 270 0 270 0 139 0 c 2,28,-1
 108 0 l 2,29,30
 17 0 17 0 33 74 c 0,31,32
 52 152 52 152 170 152 c 0,0,1
1679 651 m 0,33,34
 1632 747 1632 747 1498 747 c 2,35,-1
 1206 747 l 1,36,-1
 1066 140 l 1,37,-1
 1354 140 l 2,38,39
 1480 140 1480 140 1578.5 233.5 c 128,-1,40
 1677 327 1677 327 1703 441 c 128,-1,41
 1729 555 1729 555 1679 651 c 0,33,34
EndSplineSet
Validated: 33
EndChar

StartChar: afii10059
Encoding: 1034 1034 417
Width: 1787
GlyphClass: 2
Flags: W
LayerCount: 2
Fore
SplineSet
1039 760 m 1,0,-1
 461 760 l 1,1,-1
 304 77 l 2,2,3
 286 0 286 0 217.5 0 c 128,-1,4
 149 0 149 0 167 76 c 2,5,-1
 478 1425 l 2,6,7
 498 1511 498 1511 566.5 1511 c 128,-1,8
 635 1511 635 1511 615 1425 c 2,9,-1
 495 904 l 1,10,-1
 1072 904 l 1,11,-1
 1194 1431 l 2,12,13
 1211 1506 1211 1506 1277 1506 c 128,-1,14
 1343 1506 1343 1506 1326 1432 c 2,15,-1
 1204 904 l 1,16,-1
 1496 904 l 2,17,18
 1612 904 1612 904 1689 837 c 1,19,20
 1761 783 1761 783 1797 682 c 0,21,22
 1832 583 1832 583 1803 460 c 0,23,24
 1753 242 1753 242 1596 121 c 128,-1,25
 1439 0 1439 0 1323 0 c 2,26,-1
 930 0 l 2,27,28
 864 0 864 0 881 78 c 2,29,-1
 1039 760 l 1,0,-1
1641 651 m 0,30,31
 1587 760 1587 760 1463 760 c 2,32,-1
 1171 760 l 1,33,-1
 1028 140 l 1,34,-1
 1316 140 l 2,35,36
 1442 140 1442 140 1541 234 c 0,37,38
 1639 327 1639 327 1665 441 c 128,-1,39
 1691 555 1691 555 1641 651 c 0,30,31
EndSplineSet
Validated: 33
EndChar

StartChar: afii10060
Encoding: 1035 1035 418
Width: 1271
GlyphClass: 2
Flags: W
LayerCount: 2
Fore
SplineSet
375 1446 m 0,0,1
 391 1515 391 1515 473 1515 c 2,2,-1
 1162 1515 l 2,3,4
 1229 1515 1229 1515 1212 1443 c 0,5,6
 1195 1370 1195 1370 1130 1370 c 2,7,-1
 845 1370 l 1,8,-1
 740 918 l 1,9,-1
 1118 918 l 2,10,11
 1229 918 1229 918 1298 825 c 0,12,13
 1353 751 1353 751 1323 619 c 2,14,-1
 1200 84 l 2,15,16
 1182 6 1182 6 1120 6 c 0,17,18
 1048 6 1048 6 1067 86 c 2,19,-1
 1186 602 l 2,20,21
 1226 774 1226 774 1062 774 c 2,22,-1
 707 774 l 1,23,-1
 547 79 l 2,24,25
 529 0 529 0 460.5 0 c 128,-1,26
 392 0 392 0 410 77 c 2,27,-1
 709 1370 l 1,28,-1
 437 1370 l 2,29,30
 357 1370 357 1370 375 1446 c 0,0,1
EndSplineSet
Validated: 33
EndChar

StartChar: afii10145
Encoding: 1039 1039 422
Width: 1214
GlyphClass: 2
Flags: W
LayerCount: 2
Fore
SplineSet
506 0 m 1,0,-1
 213 0 l 2,1,2
 146 0 146 0 164 80 c 2,3,-1
 473 1418 l 2,4,5
 493 1506 493 1506 564 1506 c 0,6,7
 632 1506 632 1506 614 1428 c 2,8,-1
 319 150 l 1,9,-1
 914 150 l 1,10,-1
 1209 1428 l 2,11,12
 1227 1506 1227 1506 1302 1506 c 0,13,14
 1366 1506 1366 1506 1349 1428 c 2,15,-1
 1037 78 l 2,16,17
 1027 35 1027 35 1005.5 17.5 c 128,-1,18
 984 0 984 0 948 0 c 2,19,-1
 652 0 l 1,20,-1
 577 -322 l 2,21,22
 556 -411 556 -411 482 -411 c 0,23,24
 411 -411 411 -411 433 -320 c 2,25,-1
 506 0 l 1,0,-1
EndSplineSet
Validated: 33
EndChar

StartChar: uni0411
Encoding: 1041 1041 424
Width: 1060
GlyphClass: 2
Flags: W
LayerCount: 2
Fore
SplineSet
938 649 m 0,0,1
 889 745 889 745 756 745 c 2,2,-1
 464 745 l 1,3,-1
 324 138 l 1,4,-1
 614 138 l 2,5,6
 741 138 741 138 838 232 c 0,7,8
 943 334 943 334 968 441 c 0,9,10
 992 543 992 543 938 649 c 0,0,1
583 1505 m 2,11,-1
 1131 1505 l 2,12,13
 1211 1505 1211 1505 1194 1430 c 0,14,15
 1177 1356 1177 1356 1096 1356 c 2,16,-1
 606 1356 l 1,17,-1
 500 901 l 1,18,-1
 793 901 l 2,19,20
 912 901 912 901 986 835 c 1,21,22
 1060 781 1060 781 1095 680 c 0,23,24
 1130 580 1130 580 1101 458 c 0,25,26
 1050 238 1050 238 894 119 c 256,27,28
 737 0 737 0 622 0 c 2,29,-1
 214 0 l 2,30,31
 149 0 149 0 170 90 c 2,32,-1
 475 1411 l 2,33,34
 497 1505 497 1505 583 1505 c 2,11,-1
EndSplineSet
Validated: 33
EndChar

StartChar: uni0412
Encoding: 1042 1042 425
Width: 1082
GlyphClass: 2
Flags: W
LayerCount: 2
Fore
SplineSet
1093 460 m 0,0,1
 1042 240 1042 240 884.5 120 c 128,-1,2
 727 0 727 0 612 0 c 2,3,-1
 203 0 l 2,4,5
 138 0 138 0 159 91 c 2,6,-1
 465 1416 l 2,7,8
 487 1511 487 1511 574 1511 c 2,9,-1
 864 1511 l 2,10,11
 1041 1511 1041 1511 1104 1434 c 0,12,13
 1214 1299 1214 1299 1175 1132 c 0,14,15
 1133 948 1133 948 977 838 c 1,16,17
 1051 784 1051 784 1086 683 c 128,-1,18
 1121 582 1121 582 1093 460 c 0,0,1
454 748 m 1,19,-1
 314 139 l 1,20,-1
 604 139 l 2,21,22
 730 139 730 139 828 233 c 128,-1,23
 926 327 926 327 953 441 c 256,24,25
 979 555 979 555 930 652 c 0,26,27
 881 748 881 748 747 748 c 2,28,-1
 454 748 l 1,19,-1
596 1361 m 1,29,-1
 490 904 l 1,30,-1
 774 904 l 2,31,32
 881 904 881 904 949 966.5 c 128,-1,33
 1017 1029 1017 1029 1038 1122 c 0,34,35
 1060 1216 1060 1216 1020 1288.5 c 128,-1,36
 980 1361 980 1361 876 1361 c 2,37,-1
 596 1361 l 1,29,-1
EndSplineSet
Validated: 33
EndChar

StartChar: uni0413
Encoding: 1043 1043 426
Width: 965
GlyphClass: 2
Flags: W
LayerCount: 2
Fore
SplineSet
302 77 m 2,0,1
 284 0 284 0 216.5 0 c 128,-1,2
 149 0 149 0 167 77 c 2,3,-1
 477 1421 l 2,4,5
 498 1511 498 1511 564 1511 c 0,6,7
 874 1511 874 1511 1183 1511 c 0,8,9
 1270 1511 1270 1511 1253 1438 c 128,-1,10
 1236 1365 1236 1365 1152 1365 c 2,11,-1
 599 1365 l 1,12,-1
 302 77 l 2,0,1
EndSplineSet
Validated: 33
EndChar

StartChar: uni0414
Encoding: 1044 1044 427
Width: 1171
GlyphClass: 2
Flags: W
LayerCount: 2
Fore
SplineSet
731 1367 m 1,0,1
 727 1350 727 1350 724 1334 c 0,2,3
 612 847 612 847 537 642 c 0,4,5
 437 367 437 367 305 159 c 1,6,-1
 872 159 l 1,7,-1
 1151 1367 l 1,8,-1
 731 1367 l 1,0,1
1124 74 m 2,9,-1
 1057 -217 l 2,10,11
 1035 -311 1035 -311 964 -311 c 0,12,13
 963 -311 963 -311 962 -311 c 0,14,15
 895 -311 895 -311 915 -228 c 2,16,-1
 967 0 l 1,17,-1
 140 0 l 1,18,-1
 88 -228 l 2,19,20
 69 -311 69 -311 -5 -311 c 0,21,22
 -6 -311 -6 -311 -7 -311 c 0,23,24
 -72 -311 -72 -311 -53 -228 c 2,25,-1
 16 71 l 2,26,27
 36 159 36 159 118 159 c 2,28,-1
 155 159 l 1,29,30
 316 375 316 375 408 655 c 0,31,32
 461 816 461 816 529 1111 c 2,33,34
 601 1425 l 0,35,36
 620 1508 620 1508 701 1508 c 2,37,-1
 1256 1508 l 2,38,39
 1322 1508 1322 1508 1302 1422 c 2,40,-1
 1010 159 l 1,41,-1
 1076 159 l 2,42,43
 1144 159 1144 159 1124 74 c 2,9,-1
EndSplineSet
Validated: 33
EndChar

StartChar: uni0415
Encoding: 1045 1045 428
Width: 946
GlyphClass: 2
Flags: W
LayerCount: 2
Fore
SplineSet
315 144 m 1,0,-1
 810 144 l 2,1,2
 879 144 879 144 862 72 c 256,3,4
 845 0 845 0 780 0 c 2,5,-1
 209 0 l 2,6,7
 148 0 148 0 165 75 c 2,8,-1
 478 1432 l 2,9,10
 496 1511 496 1511 579 1511 c 2,11,-1
 1121 1511 l 2,12,13
 1196 1511 1196 1511 1179 1437 c 0,14,15
 1162 1365 1162 1365 1088 1365 c 2,16,-1
 596 1365 l 1,17,-1
 489 899 l 1,18,-1
 848 899 l 2,19,20
 916 899 916 899 899 827 c 0,21,22
 883 759 883 759 817 759 c 2,23,-1
 457 759 l 1,24,-1
 315 144 l 1,0,-1
EndSplineSet
Validated: 33
EndChar

StartChar: uni0416
Encoding: 1046 1046 429
Width: 1510
GlyphClass: 2
Flags: W
LayerCount: 2
Fore
SplineSet
338 1440 m 0,0,1
 353 1505 353 1505 442 1505 c 0,2,3
 542 1505 542 1505 607 1464 c 0,4,5
 695 1407 695 1407 709 1208 c 0,6,7
 723 1015 723 1015 786 938 c 0,8,9
 848 862 848 862 879 862 c 1,10,-1
 1009 1426 l 2,11,12
 1030 1517 1030 1517 1102 1517 c 0,13,14
 1103 1517 l 0,15,16
 1177 1517 1177 1517 1156 1424 c 2,17,-1
 1027 862 l 2,18,19
 1028 862 l 0,20,21
 1058 862 1058 862 1153 936 c 0,22,23
 1252 1013 1252 1013 1355 1205 c 0,24,25
 1460 1401 1460 1401 1578 1464 c 0,26,27
 1654 1505 1654 1505 1761 1505 c 0,28,29
 1850 1505 1850 1505 1832 1427 c 0,30,31
 1814 1347 1814 1347 1723 1347 c 0,32,33
 1571 1347 1571 1347 1441 1102 c 0,34,35
 1306 849 1306 849 1141 787 c 1,36,37
 1255 722 1255 722 1338 605 c 0,38,39
 1489 390 1489 390 1455 91 c 0,40,41
 1451 59 1451 59 1427 34 c 0,42,43
 1394 0 1394 0 1366 0 c 128,-1,44
 1338 0 1338 0 1321 15 c 0,45,46
 1301 33 1301 33 1305 72 c 0,47,48
 1334 312 1334 312 1202 504 c 0,49,50
 1070 694 1070 694 990 705 c 1,51,-1
 850 97 l 2,52,53
 828 0 828 0 754 0 c 0,54,55
 753 0 753 0 752 0 c 0,56,57
 683 0 683 0 708 105 c 2,58,-1
 846 705 l 1,59,60
 761 705 761 705 539.5 510.5 c 128,-1,61
 318 316 318 316 236 78 c 0,62,63
 225 46 225 46 195 25 c 0,64,65
 165 3 165 3 143 3 c 0,66,67
 113 3 113 3 97 40 c 0,68,69
 85 66 85 66 96 97 c 0,70,71
 202 396 202 396 453 609 c 0,72,73
 585 721 585 721 729 787 c 1,74,75
 591 851 591 851 575 1102 c 0,76,77
 559 1347 559 1347 413 1347 c 0,78,79
 317 1347 317 1347 338 1440 c 0,0,1
EndSplineSet
Validated: 33
EndChar

StartChar: afii10025
Encoding: 1047 1047 430
Width: 910
GlyphClass: 2
Flags: W
LayerCount: 2
Fore
SplineSet
531 1515 m 2,0,1
 822 1515 l 0,2,3
 948 1515 948 1515 1022 1398 c 0,4,5
 1090 1290 1090 1290 1057 1145 c 0,6,7
 1015 963 1015 963 840 834 c 1,8,9
 956 724 956 724 918 563 c 2,10,11
 868 343 l 0,12,13
 838 214 838 214 709 103 c 0,14,15
 595 5 595 5 448 5 c 2,16,17
 171 5 l 0,18,19
 92 5 92 5 109 79 c 0,20,21
 124 146 124 146 208 146 c 2,22,23
 454 146 l 0,24,25
 567 146 567 146 648 218 c 0,26,27
 724 285 724 285 749 393 c 2,28,-1
 779 523 l 2,29,30
 803 625 803 625 761 688 c 0,31,32
 711 765 711 765 634 765 c 2,33,-1
 493 765 l 2,34,35
 416 765 416 765 433 840 c 0,36,37
 448 906 448 906 526 906 c 2,38,-1
 652 906 l 2,39,40
 739 906 739 906 817 974 c 0,41,42
 900 1046 900 1046 921 1138 c 0,43,44
 943 1232 943 1232 903 1290 c 0,45,46
 849 1369 849 1369 773 1369 c 2,47,-1
 497 1369 l 2,48,49
 411 1369 411 1369 428 1444 c 0,50,51
 445 1515 445 1515 531 1515 c 2,0,1
EndSplineSet
Validated: 33
EndChar

StartChar: uni0418
Encoding: 1048 1048 431
Width: 1129
GlyphClass: 2
Flags: W
LayerCount: 2
Fore
SplineSet
557 1500 m 0,0,1
 628 1500 628 1500 609 1420 c 2,2,-1
 363 355 l 1,3,-1
 1186 1449 l 2,4,5
 1226 1503 1226 1503 1269 1503 c 0,6,7
 1329 1503 1329 1503 1310 1420 c 2,8,-1
 1000 74 l 2,9,10
 983 0 983 0 919 0 c 128,-1,11
 855 0 855 0 873 77 c 2,12,-1
 1121 1153 l 1,13,-1
 293 47 l 2,14,15
 258 0 258 0 214 0 c 0,16,17
 147 0 147 0 168 89 c 2,18,-1
 475 1418 l 2,19,20
 494 1500 494 1500 557 1500 c 0,0,1
EndSplineSet
Validated: 33
EndChar

StartChar: uni0419
Encoding: 1049 1049 432
Width: 1129
GlyphClass: 2
Flags: W
LayerCount: 2
Fore
SplineSet
557 1500 m 0,0,1
 628 1500 628 1500 609 1420 c 2,2,-1
 363 355 l 1,3,-1
 1186 1449 l 2,4,5
 1226 1503 1226 1503 1269 1503 c 0,6,7
 1329 1503 1329 1503 1310 1420 c 2,8,-1
 1000 74 l 2,9,10
 983 0 983 0 919 0 c 128,-1,11
 855 0 855 0 873 77 c 2,12,-1
 1121 1153 l 1,13,-1
 293 47 l 2,14,15
 258 0 258 0 214 0 c 0,16,17
 147 0 147 0 168 89 c 2,18,-1
 475 1418 l 2,19,20
 494 1500 494 1500 557 1500 c 0,0,1
1222 1891 m 0,21,22
 1197 1784 1197 1784 1107 1711 c 128,-1,23
 1017 1638 1017 1638 911 1638 c 128,-1,24
 805 1638 805 1638 759.5 1724 c 128,-1,25
 714 1810 714 1810 735 1899 c 0,26,27
 735 1901 735 1901 735 1902 c 0,28,29
 749 1964 749 1964 817 1964 c 0,30,31
 871 1964 871 1964 856 1900 c 0,32,33
 841 1837 841 1837 875 1803.5 c 128,-1,34
 909 1770 909 1770 952.5 1770 c 128,-1,35
 996 1770 996 1770 1041.5 1803 c 128,-1,36
 1087 1836 1087 1836 1100 1892 c 0,37,38
 1117 1964 1117 1964 1183 1964 c 0,39,40
 1239 1964 1239 1964 1222 1891 c 0,21,22
EndSplineSet
Validated: 33
EndChar

StartChar: uni041A
Encoding: 1050 1050 433
Width: 993
GlyphClass: 2
Flags: W
LayerCount: 2
Fore
SplineSet
560 1502 m 0,0,1
 632 1502 632 1502 610 1407 c 2,2,-1
 492 897 l 1,3,4
 634 897 634 897 725 961 c 0,5,6
 823 1030 823 1030 923 1195 c 0,7,8
 1016 1350 1016 1350 1094 1414 c 0,9,10
 1173 1479 1173 1479 1247 1498 c 0,11,12
 1276 1505 1276 1505 1298 1492 c 0,13,14
 1319 1479 1319 1479 1321 1449 c 0,15,16
 1323 1421 1323 1421 1302 1394 c 0,17,18
 1283 1369 1283 1369 1246 1358 c 0,19,20
 1147 1328 1147 1328 1043 1156 c 0,21,22
 912 941 912 941 784 848 c 0,23,24
 687 778 687 778 579 758 c 1,25,-1
 985 138 l 2,26,27
 1009 99 1009 99 1002 72 c 0,28,29
 996 44 996 44 970.5 20 c 128,-1,30
 945 -4 945 -4 917.5 -4 c 128,-1,31
 890 -4 890 -4 866 34 c 2,32,-1
 440 679 l 1,33,-1
 301 76 l 2,34,35
 283 0 283 0 213 0 c 0,36,37
 149 0 149 0 164 66 c 2,38,-1
 475 1410 l 2,39,40
 496 1502 496 1502 560 1502 c 0,0,1
EndSplineSet
Validated: 33
EndChar

StartChar: uni041B
Encoding: 1051 1051 434
Width: 1182
GlyphClass: 2
Flags: W
LayerCount: 2
Fore
SplineSet
170 152 m 0,0,1
 293 152 293 152 333 328 c 2,2,-1
 586 1426 l 2,3,4
 605 1508 605 1508 685 1508 c 2,5,-1
 1314 1508 l 2,6,7
 1381 1508 1381 1508 1363 1429 c 2,8,-1
 1053 89 l 2,9,10
 1032 0 1032 0 962 0 c 128,-1,11
 892 0 892 0 911 79 c 2,12,-1
 1206 1360 l 1,13,-1
 712 1360 l 1,14,-1
 488 391 l 2,15,16
 440 184 440 184 361 98 c 0,17,18
 270 0 270 0 139 0 c 2,19,20
 108 0 l 0,21,22
 17 0 17 0 33 74 c 0,23,24
 52 152 52 152 170 152 c 0,0,1
EndSplineSet
Validated: 33
EndChar

StartChar: uni041C
Encoding: 1052 1052 435
Width: 1273
GlyphClass: 2
Flags: W
LayerCount: 2
Fore
SplineSet
1341 1472 m 2,0,1
 1372 1511 1372 1511 1410 1511 c 0,2,3
 1481 1511 1481 1511 1462 1430 c 2,4,-1
 1154 99 l 2,5,6
 1131 0 1131 0 1062.5 0 c 128,-1,7
 994 0 994 0 1017 99 c 2,8,-1
 1264 1172 l 1,9,-1
 857 664 l 2,10,11
 807 601 807 601 771.5 601 c 128,-1,12
 736 601 736 601 717 662 c 2,13,-1
 550 1170 l 1,14,-1
 301 94 l 2,15,16
 279 0 279 0 208 0 c 0,17,18
 142 0 142 0 163 92 c 2,19,-1
 472 1431 l 2,20,21
 490 1511 490 1511 561 1511 c 0,22,23
 597 1511 597 1511 611 1475 c 2,24,-1
 820 824 l 1,25,-1
 1341 1472 l 2,0,1
EndSplineSet
Validated: 33
EndChar

StartChar: uni041D
Encoding: 1053 1053 436
Width: 1144
GlyphClass: 2
Flags: W
LayerCount: 2
Fore
SplineSet
1039 760 m 1,0,-1
 461 760 l 1,1,-1
 304 77 l 2,2,3
 286 0 286 0 217.5 0 c 128,-1,4
 149 0 149 0 167 76 c 2,5,-1
 478 1425 l 2,6,7
 498 1511 498 1511 566.5 1511 c 128,-1,8
 635 1511 635 1511 615 1425 c 2,9,-1
 495 904 l 1,10,-1
 1072 904 l 1,11,-1
 1194 1431 l 2,12,13
 1211 1506 1211 1506 1277 1506 c 128,-1,14
 1343 1506 1343 1506 1326 1432 c 2,15,-1
 1014 80 l 2,16,17
 996 0 996 0 929.5 0 c 128,-1,18
 863 0 863 0 881 78 c 2,19,-1
 1039 760 l 1,0,-1
EndSplineSet
Validated: 33
EndChar

StartChar: uni041F
Encoding: 1055 1055 438
Width: 1144
GlyphClass: 2
Flags: W
LayerCount: 2
Fore
SplineSet
580 1520 m 2,0,1
 1280 1520 l 0,2,3
 1347 1520 1347 1520 1328 1440 c 2,4,-1
 1017 93 l 2,5,6
 997 5 997 5 925 5 c 0,7,8
 857 5 857 5 875 83 c 2,9,-1
 1172 1370 l 1,10,-1
 605 1370 l 1,11,-1
 308 83 l 2,12,13
 290 5 290 5 215 5 c 0,14,15
 150 5 150 5 168 83 c 2,16,-1
 481 1437 l 2,17,18
 500 1520 500 1520 580 1520 c 2,0,1
EndSplineSet
Validated: 33
EndChar

StartChar: uni0420
Encoding: 1056 1056 439
Width: 1064
GlyphClass: 2
Flags: W
LayerCount: 2
Fore
SplineSet
597 1366 m 1,0,1
 456 755 l 1,2,-1
 764 755 l 2,3,4
 858 755 858 755 962 844 c 0,5,6
 1064 932 1064 932 1094 1062 c 128,-1,7
 1124 1192 1124 1192 1061.5 1279 c 128,-1,8
 999 1366 999 1366 866 1366 c 2,9,-1
 597 1366 l 1,0,1
302 88 m 2,10,11
 283 5 283 5 214 5 c 128,-1,12
 145 5 145 5 165 90 c 2,13,-1
 474 1431 l 2,14,15
 492 1511 492 1511 569 1511 c 2,16,-1
 929 1511 l 2,17,18
 1103 1511 1103 1511 1192 1360 c 0,19,20
 1267 1234 1267 1234 1233 1086 c 0,21,22
 1191 904 1191 904 1095 800 c 0,23,24
 916 607 916 607 730 607 c 2,25,-1
 422 607 l 1,26,-1
 302 88 l 2,10,11
EndSplineSet
Validated: 33
EndChar

StartChar: uni0421
Encoding: 1057 1057 440
Width: 868
GlyphClass: 2
Flags: W
LayerCount: 2
Fore
SplineSet
789 1515 m 2,0,1
 1073 1515 l 0,2,3
 1142 1515 1142 1515 1125 1440 c 0,4,5
 1107 1364 1107 1364 1033 1364 c 2,6,-1
 753 1364 l 2,7,8
 675 1364 675 1364 584 1291 c 0,9,10
 515 1235 515 1235 494 1141 c 2,11,-1
 317 377 l 2,12,13
 295 283 295 283 339 215 c 0,14,15
 384 145 384 145 450 145 c 2,16,-1
 762 145 l 2,17,18
 829 145 829 145 812 72 c 0,19,20
 796 3 796 3 729 3 c 2,21,-1
 412 3 l 2,22,23
 284 3 284 3 202 136 c 0,24,25
 147 227 147 227 180 369 c 2,26,-1
 361 1152 l 2,27,28
 396 1302 396 1302 531 1413 c 0,29,30
 655 1515 655 1515 789 1515 c 2,0,1
EndSplineSet
Validated: 33
EndChar

StartChar: uni0422
Encoding: 1058 1058 441
Width: 919
GlyphClass: 2
Flags: W
LayerCount: 2
Fore
SplineSet
375 1446 m 0,0,1
 391 1515 391 1515 473 1515 c 2,2,-1
 1162 1515 l 2,3,4
 1229 1515 1229 1515 1212 1443 c 0,5,6
 1195 1370 1195 1370 1130 1370 c 2,7,-1
 845 1370 l 1,8,-1
 547 79 l 2,9,10
 529 0 529 0 460 0 c 256,11,12
 392 0 392 0 410 77 c 2,13,-1
 709 1370 l 1,14,-1
 437 1370 l 2,15,16
 357 1370 357 1370 375 1446 c 0,0,1
EndSplineSet
Validated: 33
EndChar

StartChar: uni0423
Encoding: 1059 1059 442
Width: 789
GlyphClass: 2
Flags: W
LayerCount: 2
Fore
SplineSet
1046 1375 m 2,0,-1
 340 73 l 2,1,2
 303 4 303 4 242 4 c 2,3,-1
 122 4 l 2,4,5
 47 4 47 4 63 75 c 0,6,7
 80 149 80 149 158 149 c 2,8,-1
 237 149 l 1,9,-1
 437 521 l 1,10,-1
 376 1380 l 2,11,12
 372 1417 372 1417 379 1445 c 0,13,14
 395 1514 395 1514 463 1514 c 0,15,16
 511 1514 511 1514 516 1445 c 2,17,-1
 565 756 l 1,18,-1
 946 1453 l 2,19,20
 980 1514 980 1514 1025 1514 c 0,21,22
 1094 1514 1094 1514 1078 1445 c 0,23,24
 1072 1423 1072 1423 1046 1375 c 2,0,-1
EndSplineSet
Validated: 33
EndChar

StartChar: uni0424
Encoding: 1060 1060 443
Width: 1279
GlyphClass: 2
Flags: W
LayerCount: 2
Fore
SplineSet
902 1437 m 2,0,1
 921 1520 921 1520 994 1520 c 0,2,3
 1068 1520 1068 1520 1049 1437 c 2,4,-1
 1017 1298 l 1,5,6
 1218 1298 1218 1298 1322 1147 c 0,7,8
 1433 987 1433 987 1380.5 758 c 128,-1,9
 1328 529 1328 529 1097 353 c 0,10,11
 942 235 942 235 772 235 c 1,12,13
 755 162 755 162 738 87 c 0,14,15
 718 0 718 0 646 0 c 0,16,17
 571 0 571 0 590 86 c 2,18,-1
 625 235 l 1,19,20
 423 235 423 235 314 391 c 0,21,22
 202 551 202 551 248 752 c 0,23,24
 301 980 301 980 442 1107 c 0,25,26
 658 1302 658 1302 871 1302 c 1,27,-1
 902 1437 l 2,0,1
835 1147 m 1,28,29
 712 1147 712 1147 587 1059 c 0,30,31
 438 955 438 955 395 766 c 0,32,33
 356 595 356 595 448 482 c 0,34,35
 522 392 522 392 661 392 c 1,36,-1
 835 1147 l 1,28,29
983 1147 m 1,37,-1
 809 392 l 1,38,39
 962 392 962 392 1078 500 c 0,40,41
 1208 620 1208 620 1244 777 c 0,42,43
 1282 941 1282 941 1185 1059 c 0,44,45
 1112 1147 1112 1147 983 1147 c 1,37,-1
EndSplineSet
Validated: 33
EndChar

StartChar: uni0425
Encoding: 1061 1061 444
Width: 1007
GlyphClass: 2
Flags: W
LayerCount: 2
Fore
SplineSet
596 755 m 1,0,1
 348 1392 l 0,2,3
 339 1417 339 1417 345 1441 c 0,4,5
 360 1507 360 1507 429 1507 c 0,6,7
 463 1507 463 1507 481 1463 c 2,8,-1
 708 889 l 1,9,-1
 1208 1473 l 2,10,11
 1241 1511 1241 1511 1279 1511 c 0,12,13
 1346 1511 1346 1511 1330 1443 c 0,14,15
 1324 1416 1324 1416 1290 1377 c 2,16,-1
 759 755 l 1,17,-1
 1006 115 l 2,18,19
 1016 92 1016 92 1011 74 c 0,20,21
 994 0 994 0 926 0 c 0,22,23
 887 0 887 0 871 43 c 2,24,-1
 647 625 l 1,25,-1
 149 38 l 2,26,27
 116 0 116 0 84 0 c 0,28,29
 9 0 9 0 25 70 c 0,30,31
 30 93 30 93 59 127 c 2,32,-1
 596 755 l 1,0,1
EndSplineSet
Validated: 33
EndChar

StartChar: uni0426
Encoding: 1062 1062 445
Width: 1217
GlyphClass: 2
Flags: W
LayerCount: 2
Fore
SplineSet
1079 -325 m 2,0,1
 1059 -410 1059 -410 989 -410 c 0,2,3
 920 -410 920 -410 941 -323 c 2,4,-1
 1015 0 l 1,5,-1
 213 0 l 2,6,7
 146 0 146 0 164 80 c 2,8,-1
 473 1418 l 2,9,10
 493 1506 493 1506 564 1506 c 0,11,12
 632 1506 632 1506 614 1428 c 2,13,-1
 319 150 l 1,14,-1
 914 150 l 1,15,-1
 1209 1428 l 2,16,17
 1227 1506 1227 1506 1302 1506 c 0,18,19
 1366 1506 1366 1506 1349 1428 c 2,20,-1
 1054 154 l 1,21,-1
 1102 154 l 2,22,23
 1189 154 1189 154 1168 61 c 2,24,-1
 1079 -325 l 2,0,1
EndSplineSet
Validated: 33
EndChar

StartChar: uni0427
Encoding: 1063 1063 446
Width: 949
GlyphClass: 2
Flags: W
LayerCount: 2
Fore
SplineSet
419 777 m 2,0,1
 380 607 380 607 542 607 c 2,2,-1
 806 607 l 1,3,-1
 996 1428 l 2,4,5
 1014 1508 1014 1508 1083 1508 c 0,6,7
 1148 1508 1148 1508 1129 1424 c 2,8,-1
 821 89 l 2,9,10
 800 0 800 0 731 0 c 0,11,12
 666 0 666 0 686 85 c 2,13,-1
 773 464 l 1,14,-1
 487 464 l 2,15,16
 377 464 377 464 308 556 c 0,17,18
 253 630 253 630 284 760 c 2,19,-1
 439 1431 l 2,20,21
 457 1508 457 1508 517 1508 c 0,22,23
 588 1508 588 1508 569 1429 c 2,24,-1
 419 777 l 2,0,1
EndSplineSet
Validated: 33
EndChar

StartChar: uni0428
Encoding: 1064 1064 447
Width: 1496
GlyphClass: 2
Flags: W
LayerCount: 2
Fore
SplineSet
1679 1436 m 2,0,-1
 1367 86 l 2,1,2
 1347 0 1347 0 1289 0 c 2,3,-1
 220 0 l 2,4,5
 149 0 149 0 169 86 c 2,6,-1
 478 1426 l 2,7,8
 500 1520 500 1520 575 1520 c 0,9,10
 647 1520 647 1520 628 1436 c 2,11,-1
 331 149 l 1,12,-1
 710 149 l 1,13,-1
 1005 1426 l 2,14,15
 1027 1520 1027 1520 1102 1520 c 0,16,17
 1173 1520 1173 1520 1153 1436 c 2,18,-1
 856 149 l 1,19,-1
 1235 149 l 1,20,-1
 1532 1436 l 2,21,22
 1551 1520 1551 1520 1629 1520 c 0,23,24
 1698 1520 1698 1520 1679 1436 c 2,0,-1
EndSplineSet
Validated: 33
EndChar

StartChar: uni0429
Encoding: 1065 1065 448
Width: 1546
GlyphClass: 2
Flags: W
LayerCount: 2
Fore
SplineSet
1669 1428 m 2,0,-1
 1377 161 l 1,1,-1
 1427 161 l 2,2,3
 1518 161 1518 161 1496 64 c 2,4,-1
 1406 -323 l 2,5,6
 1385 -412 1385 -412 1312 -412 c 0,7,8
 1240 -412 1240 -412 1262 -321 c 2,9,-1
 1336 0 l 1,10,-1
 219 0 l 2,11,12
 149 0 149 0 169 84 c 2,13,-1
 476 1417 l 2,14,15
 498 1511 498 1511 572 1511 c 0,16,17
 643 1511 643 1511 624 1428 c 2,18,-1
 331 158 l 1,19,-1
 708 158 l 1,20,-1
 999 1417 l 2,21,22
 1021 1511 1021 1511 1095 1511 c 0,23,24
 1167 1511 1167 1511 1148 1428 c 2,25,-1
 854 158 l 1,26,-1
 1230 158 l 1,27,-1
 1523 1428 l 2,28,29
 1542 1511 1542 1511 1621 1511 c 0,30,31
 1688 1511 1688 1511 1669 1428 c 2,0,-1
EndSplineSet
Validated: 33
EndChar

StartChar: uni042A
Encoding: 1066 1066 449
Width: 1369
GlyphClass: 2
Flags: W
LayerCount: 2
Fore
SplineSet
1245 651 m 0,0,1
 1198 747 1198 747 1064 747 c 2,2,-1
 772 747 l 1,3,-1
 632 140 l 1,4,-1
 920 140 l 2,5,6
 1046 140 1046 140 1144.5 233.5 c 128,-1,7
 1243 327 1243 327 1269 441 c 128,-1,8
 1295 555 1295 555 1245 651 c 0,0,1
860 1506 m 2,9,10
 947 1506 947 1506 926 1413 c 2,11,-1
 808 902 l 1,12,-1
 1101 902 l 2,13,14
 1219 902 1219 902 1293 837 c 1,15,16
 1367 782 1367 782 1402 682 c 256,17,18
 1437 582 1437 582 1408 460 c 0,19,20
 1358 242 1358 242 1200.5 121 c 128,-1,21
 1043 0 1043 0 928 0 c 2,22,-1
 522 0 l 2,23,24
 457 0 457 0 478 92 c 2,25,-1
 770 1357 l 1,26,-1
 394 1357 l 2,27,28
 313 1357 313 1357 330 1431 c 0,29,30
 347 1506 347 1506 427 1506 c 2,31,-1
 860 1506 l 2,9,10
EndSplineSet
Validated: 33
EndChar

StartChar: uni042B
Encoding: 1067 1067 450
Width: 1430
GlyphClass: 2
Flags: W
LayerCount: 2
Fore
SplineSet
821 230 m 0,0,1
 923 316 923 316 952 445 c 256,2,3
 982 574 982 574 921 662 c 0,4,5
 859 750 859 750 765 750 c 2,6,-1
 458 750 l 1,7,-1
 318 143 l 1,8,-1
 587 143 l 2,9,10
 719 143 719 143 821 230 c 0,0,1
562.5 1496 m 128,-1,12
 630 1496 630 1496 611 1413 c 2,13,-1
 492 897 l 1,14,-1
 799 897 l 2,15,16
 984 897 984 897 1073 705 c 0,17,18
 1122 602 1122 602 1080 421 c 0,19,20
 1046 273 1046 273 913 149 c 0,21,22
 755 0 755 0 582 0 c 2,23,-1
 225 0 l 2,24,25
 150 0 150 0 167 78 c 2,26,-1
 475 1411 l 2,27,11
 495 1496 495 1496 562.5 1496 c 128,-1,12
1603 1405 m 2,28,-1
 1300 92 l 2,29,30
 1279 0 1279 0 1208.5 0 c 128,-1,31
 1138 0 1138 0 1158 89 c 2,32,-1
 1463 1407 l 2,33,34
 1484 1500 1484 1500 1554.5 1500 c 128,-1,35
 1625 1500 1625 1500 1603 1405 c 2,28,-1
EndSplineSet
Validated: 33
EndChar

StartChar: afii10046
Encoding: 1068 1068 451
Width: 952
GlyphClass: 2
Flags: W
LayerCount: 2
Fore
SplineSet
575 148 m 2,0,1
 735 148 735 148 774 318 c 2,2,3
 873 747 l 0,4,5
 891 824 891 824 859.5 869.5 c 128,-1,6
 828 915 828 915 760 915 c 2,7,-1
 479 915 l 1,8,-1
 302 148 l 1,9,-1
 575 148 l 2,0,1
221 4 m 2,10,11
 137 4 137 4 153 72 c 2,12,-1
 469 1441 l 2,13,14
 486 1515 486 1515 550 1515 c 0,15,16
 619 1515 619 1515 602 1441 c 2,17,-1
 514 1058 l 1,18,-1
 821 1058 l 2,19,20
 939 1058 939 1058 999 944 c 0,21,22
 1036 874 1036 874 1014 780 c 2,23,-1
 898 278 l 2,24,25
 871 161 871 161 772.5 82.5 c 128,-1,26
 674 4 674 4 555 4 c 2,27,-1
 221 4 l 2,10,11
EndSplineSet
Validated: 33
EndChar

StartChar: uni042D
Encoding: 1069 1069 452
Width: 852
GlyphClass: 2
Flags: W
LayerCount: 2
Fore
SplineSet
415 1511 m 1,0,-1
 1116 1511 l 1,1,-1
 767 0 l 1,2,-1
 66 0 l 1,3,-1
 415 1511 l 1,0,-1
EndSplineSet
Validated: 1
EndChar

StartChar: uni042E
Encoding: 1070 1070 453
Width: 1459
GlyphClass: 2
Flags: W
LayerCount: 2
Fore
SplineSet
1484 1061 m 2,0,1
 1518 1207 1518 1207 1444 1287.5 c 128,-1,2
 1370 1368 1370 1368 1269 1368 c 128,-1,3
 1168 1368 1168 1368 1059 1289 c 128,-1,4
 950 1210 950 1210 917 1065 c 2,5,-1
 769 424 l 2,6,7
 744 316 744 316 811.5 232.5 c 128,-1,8
 879 149 879 149 988 149 c 128,-1,9
 1097 149 1097 149 1187 220 c 0,10,11
 1314 321 1314 321 1344 453 c 2,12,-1
 1484 1061 l 2,0,1
1480 457 m 2,13,14
 1435 262 1435 262 1280 131 c 128,-1,15
 1125 0 1125 0 954.5 0 c 128,-1,16
 784 0 784 0 689 129 c 128,-1,17
 594 258 594 258 633 429 c 2,18,-1
 691 680 l 1,19,-1
 448 680 l 1,20,-1
 312 94 l 2,21,22
 290 0 290 0 220 0 c 256,23,24
 149 0 149 0 170 91 c 2,25,-1
 478 1423 l 2,26,27
 500 1517 500 1517 570 1517 c 256,28,29
 641 1517 641 1517 619 1421 c 2,30,-1
 483 832 l 1,31,-1
 726 832 l 1,32,-1
 786 1089 l 2,33,34
 825 1256 825 1256 976 1385 c 0,35,36
 1129 1515 1129 1515 1301.5 1515 c 128,-1,37
 1474 1515 1474 1515 1568 1382 c 128,-1,38
 1662 1249 1662 1249 1621 1068 c 2,39,-1
 1480 457 l 2,13,14
EndSplineSet
Validated: 33
EndChar

